<mxfile host="app.diagrams.net" agent="Mozilla/5.0 (Windows NT 10.0; Win64; x64) AppleWebKit/537.36 (KHTML, like Gecko) Chrome/131.0.0.0 Safari/537.36" version="24.8.3" pages="20">
  <diagram name="Page-1" id="7xsKH6pPMwgzXLg-aELs">
    <mxGraphModel dx="880" dy="468" grid="1" gridSize="10" guides="1" tooltips="1" connect="1" arrows="1" fold="1" page="1" pageScale="1" pageWidth="850" pageHeight="1100" math="0" shadow="0">
      <root>
        <mxCell id="0" />
        <mxCell id="1" parent="0" />
        <mxCell id="hEX6vRJ63KsdVSKcUMxn-11" value="" style="edgeStyle=orthogonalEdgeStyle;rounded=0;orthogonalLoop=1;jettySize=auto;html=1;" parent="1" source="hEX6vRJ63KsdVSKcUMxn-1" target="hEX6vRJ63KsdVSKcUMxn-2" edge="1">
          <mxGeometry relative="1" as="geometry" />
        </mxCell>
        <mxCell id="hEX6vRJ63KsdVSKcUMxn-1" value="Start" style="ellipse;whiteSpace=wrap;html=1;" parent="1" vertex="1">
          <mxGeometry x="367.5" y="60" width="165" height="90" as="geometry" />
        </mxCell>
        <mxCell id="hEX6vRJ63KsdVSKcUMxn-3" value="Menunjukkan nilai dari analog potensio" style="shape=parallelogram;perimeter=parallelogramPerimeter;whiteSpace=wrap;html=1;fixedSize=1;" parent="1" vertex="1">
          <mxGeometry x="355" y="320" width="190" height="90" as="geometry" />
        </mxCell>
        <mxCell id="hEX6vRJ63KsdVSKcUMxn-14" value="" style="endArrow=none;html=1;rounded=0;" parent="1" source="hEX6vRJ63KsdVSKcUMxn-2" edge="1">
          <mxGeometry width="50" height="50" relative="1" as="geometry">
            <mxPoint x="410" y="290" as="sourcePoint" />
            <mxPoint x="450" y="230" as="targetPoint" />
          </mxGeometry>
        </mxCell>
        <mxCell id="hEX6vRJ63KsdVSKcUMxn-2" value="Tentukan nilai berdasarkan analog potensio" style="shape=parallelogram;perimeter=parallelogramPerimeter;whiteSpace=wrap;html=1;fixedSize=1;" parent="1" vertex="1">
          <mxGeometry x="360" y="190" width="180" height="90" as="geometry" />
        </mxCell>
        <mxCell id="hEX6vRJ63KsdVSKcUMxn-24" value="" style="endArrow=classic;startArrow=classic;html=1;rounded=0;" parent="1" edge="1">
          <mxGeometry width="50" height="50" relative="1" as="geometry">
            <mxPoint x="450" y="320" as="sourcePoint" />
            <mxPoint x="449.5" y="280" as="targetPoint" />
            <Array as="points" />
          </mxGeometry>
        </mxCell>
      </root>
    </mxGraphModel>
  </diagram>
  <diagram id="P4kOJuHA-Qv2yGfM0axs" name="Page-2">
    <mxGraphModel dx="880" dy="468" grid="1" gridSize="10" guides="1" tooltips="1" connect="1" arrows="1" fold="1" page="1" pageScale="1" pageWidth="850" pageHeight="1100" math="0" shadow="0">
      <root>
        <mxCell id="0" />
        <mxCell id="1" parent="0" />
        <mxCell id="n6y1z-Yo7t-sg9VH4C1c-1" value="" style="edgeStyle=orthogonalEdgeStyle;rounded=0;orthogonalLoop=1;jettySize=auto;html=1;" edge="1" source="n6y1z-Yo7t-sg9VH4C1c-2" target="n6y1z-Yo7t-sg9VH4C1c-5" parent="1">
          <mxGeometry relative="1" as="geometry" />
        </mxCell>
        <mxCell id="n6y1z-Yo7t-sg9VH4C1c-2" value="Start" style="ellipse;whiteSpace=wrap;html=1;" vertex="1" parent="1">
          <mxGeometry x="342.5" y="50" width="165" height="90" as="geometry" />
        </mxCell>
        <mxCell id="n6y1z-Yo7t-sg9VH4C1c-3" value="Menampilkan nilai dari analog potensio" style="shape=parallelogram;perimeter=parallelogramPerimeter;whiteSpace=wrap;html=1;fixedSize=1;" vertex="1" parent="1">
          <mxGeometry x="330" y="310" width="190" height="90" as="geometry" />
        </mxCell>
        <mxCell id="n6y1z-Yo7t-sg9VH4C1c-4" value="" style="endArrow=none;html=1;rounded=0;" edge="1" source="n6y1z-Yo7t-sg9VH4C1c-5" parent="1">
          <mxGeometry width="50" height="50" relative="1" as="geometry">
            <mxPoint x="385" y="280" as="sourcePoint" />
            <mxPoint x="425" y="220" as="targetPoint" />
          </mxGeometry>
        </mxCell>
        <mxCell id="n6y1z-Yo7t-sg9VH4C1c-5" value="Tentukan nilai voltage berdasarkan analog potensio" style="shape=parallelogram;perimeter=parallelogramPerimeter;whiteSpace=wrap;html=1;fixedSize=1;" vertex="1" parent="1">
          <mxGeometry x="335" y="180" width="180" height="90" as="geometry" />
        </mxCell>
        <mxCell id="n6y1z-Yo7t-sg9VH4C1c-6" value="" style="endArrow=classic;startArrow=classic;html=1;rounded=0;" edge="1" parent="1">
          <mxGeometry width="50" height="50" relative="1" as="geometry">
            <mxPoint x="425" y="310" as="sourcePoint" />
            <mxPoint x="424.5" y="270" as="targetPoint" />
            <Array as="points" />
          </mxGeometry>
        </mxCell>
      </root>
    </mxGraphModel>
  </diagram>
  <diagram id="WOu5z1Ee6XybZ4AOHJIU" name="Page-3">
    <mxGraphModel dx="197" dy="476" grid="1" gridSize="10" guides="1" tooltips="1" connect="1" arrows="1" fold="1" page="1" pageScale="1" pageWidth="850" pageHeight="1100" math="0" shadow="0">
      <root>
        <mxCell id="0" />
        <mxCell id="1" parent="0" />
        <mxCell id="LO2GCd7thXTgHZh84h_5-7" value="" style="edgeStyle=orthogonalEdgeStyle;rounded=0;orthogonalLoop=1;jettySize=auto;html=1;" parent="1" source="LO2GCd7thXTgHZh84h_5-1" target="LO2GCd7thXTgHZh84h_5-2" edge="1">
          <mxGeometry relative="1" as="geometry" />
        </mxCell>
        <mxCell id="LO2GCd7thXTgHZh84h_5-1" value="Start" style="ellipse;whiteSpace=wrap;html=1;" parent="1" vertex="1">
          <mxGeometry x="370" y="70" width="140" height="90" as="geometry" />
        </mxCell>
        <mxCell id="LO2GCd7thXTgHZh84h_5-6" style="edgeStyle=orthogonalEdgeStyle;rounded=0;orthogonalLoop=1;jettySize=auto;html=1;exitX=0.5;exitY=1;exitDx=0;exitDy=0;entryX=0.5;entryY=0;entryDx=0;entryDy=0;" parent="1" source="LO2GCd7thXTgHZh84h_5-2" target="LO2GCd7thXTgHZh84h_5-3" edge="1">
          <mxGeometry relative="1" as="geometry" />
        </mxCell>
        <mxCell id="LO2GCd7thXTgHZh84h_5-2" value="Pilih nilai pada analog&amp;nbsp;&lt;div&gt;potensio (0-1240)&lt;/div&gt;" style="shape=parallelogram;perimeter=parallelogramPerimeter;whiteSpace=wrap;html=1;fixedSize=1;" parent="1" vertex="1">
          <mxGeometry x="350" y="200" width="180" height="90" as="geometry" />
        </mxCell>
        <mxCell id="LO2GCd7thXTgHZh84h_5-3" value="Ubah nilai analog menjadi PWM (Voltage) (0-255)" style="rounded=0;whiteSpace=wrap;html=1;" parent="1" vertex="1">
          <mxGeometry x="360" y="330" width="160" height="90" as="geometry" />
        </mxCell>
        <mxCell id="LO2GCd7thXTgHZh84h_5-4" value="Tampilkan nilai voltage potensio" style="shape=parallelogram;perimeter=parallelogramPerimeter;whiteSpace=wrap;html=1;fixedSize=1;" parent="1" vertex="1">
          <mxGeometry x="350" y="460" width="170" height="80" as="geometry" />
        </mxCell>
        <mxCell id="LO2GCd7thXTgHZh84h_5-5" style="edgeStyle=orthogonalEdgeStyle;rounded=0;orthogonalLoop=1;jettySize=auto;html=1;exitX=0.5;exitY=1;exitDx=0;exitDy=0;entryX=0.541;entryY=-0.037;entryDx=0;entryDy=0;entryPerimeter=0;" parent="1" source="LO2GCd7thXTgHZh84h_5-3" target="LO2GCd7thXTgHZh84h_5-4" edge="1">
          <mxGeometry relative="1" as="geometry" />
        </mxCell>
        <mxCell id="LO2GCd7thXTgHZh84h_5-13" value="" style="endArrow=none;html=1;rounded=0;" parent="1" edge="1">
          <mxGeometry width="50" height="50" relative="1" as="geometry">
            <mxPoint x="510" y="510" as="sourcePoint" />
            <mxPoint x="590" y="510" as="targetPoint" />
          </mxGeometry>
        </mxCell>
        <mxCell id="LO2GCd7thXTgHZh84h_5-14" value="" style="endArrow=none;html=1;rounded=0;" parent="1" edge="1">
          <mxGeometry width="50" height="50" relative="1" as="geometry">
            <mxPoint x="590.0033333333332" y="510" as="sourcePoint" />
            <mxPoint x="590" y="240" as="targetPoint" />
          </mxGeometry>
        </mxCell>
        <mxCell id="LO2GCd7thXTgHZh84h_5-15" value="" style="endArrow=classic;html=1;rounded=0;" parent="1" edge="1">
          <mxGeometry width="50" height="50" relative="1" as="geometry">
            <mxPoint x="590" y="240" as="sourcePoint" />
            <mxPoint x="520" y="240" as="targetPoint" />
          </mxGeometry>
        </mxCell>
      </root>
    </mxGraphModel>
  </diagram>
  <diagram id="WzlIhdNzlnu4qb8vGgma" name="Page-4">
    <mxGraphModel dx="880" dy="468" grid="1" gridSize="10" guides="1" tooltips="1" connect="1" arrows="1" fold="1" page="1" pageScale="1" pageWidth="850" pageHeight="1100" math="0" shadow="0">
      <root>
        <mxCell id="0" />
        <mxCell id="1" parent="0" />
        <mxCell id="aYpGiaVqw2s0bX2Neu3e-1" value="" style="edgeStyle=orthogonalEdgeStyle;rounded=0;orthogonalLoop=1;jettySize=auto;html=1;" edge="1" parent="1" source="aYpGiaVqw2s0bX2Neu3e-2" target="aYpGiaVqw2s0bX2Neu3e-4">
          <mxGeometry relative="1" as="geometry" />
        </mxCell>
        <mxCell id="aYpGiaVqw2s0bX2Neu3e-2" value="Start" style="ellipse;whiteSpace=wrap;html=1;" vertex="1" parent="1">
          <mxGeometry x="370" y="70" width="140" height="90" as="geometry" />
        </mxCell>
        <mxCell id="aYpGiaVqw2s0bX2Neu3e-3" style="edgeStyle=orthogonalEdgeStyle;rounded=0;orthogonalLoop=1;jettySize=auto;html=1;exitX=0.5;exitY=1;exitDx=0;exitDy=0;entryX=0.5;entryY=0;entryDx=0;entryDy=0;" edge="1" parent="1" source="aYpGiaVqw2s0bX2Neu3e-4" target="aYpGiaVqw2s0bX2Neu3e-5">
          <mxGeometry relative="1" as="geometry" />
        </mxCell>
        <mxCell id="aYpGiaVqw2s0bX2Neu3e-4" value="Pilih nilai pada analog&amp;nbsp;&lt;div&gt;potensio (0-1240)&lt;/div&gt;" style="shape=parallelogram;perimeter=parallelogramPerimeter;whiteSpace=wrap;html=1;fixedSize=1;" vertex="1" parent="1">
          <mxGeometry x="350" y="200" width="180" height="90" as="geometry" />
        </mxCell>
        <mxCell id="aYpGiaVqw2s0bX2Neu3e-5" value="Ubah nilai analog menjadi nilaai sudut (Voltage) (0-255)" style="rounded=0;whiteSpace=wrap;html=1;" vertex="1" parent="1">
          <mxGeometry x="360" y="330" width="160" height="90" as="geometry" />
        </mxCell>
        <mxCell id="aYpGiaVqw2s0bX2Neu3e-6" value="Tampilkan nilai sudut&amp;nbsp;&lt;div&gt;ke servo&lt;/div&gt;" style="shape=parallelogram;perimeter=parallelogramPerimeter;whiteSpace=wrap;html=1;fixedSize=1;" vertex="1" parent="1">
          <mxGeometry x="350" y="460" width="170" height="80" as="geometry" />
        </mxCell>
        <mxCell id="aYpGiaVqw2s0bX2Neu3e-7" style="edgeStyle=orthogonalEdgeStyle;rounded=0;orthogonalLoop=1;jettySize=auto;html=1;exitX=0.5;exitY=1;exitDx=0;exitDy=0;entryX=0.541;entryY=-0.037;entryDx=0;entryDy=0;entryPerimeter=0;" edge="1" parent="1" source="aYpGiaVqw2s0bX2Neu3e-5" target="aYpGiaVqw2s0bX2Neu3e-6">
          <mxGeometry relative="1" as="geometry" />
        </mxCell>
        <mxCell id="aYpGiaVqw2s0bX2Neu3e-8" value="" style="endArrow=none;html=1;rounded=0;" edge="1" parent="1">
          <mxGeometry width="50" height="50" relative="1" as="geometry">
            <mxPoint x="510" y="510" as="sourcePoint" />
            <mxPoint x="590" y="510" as="targetPoint" />
          </mxGeometry>
        </mxCell>
        <mxCell id="aYpGiaVqw2s0bX2Neu3e-9" value="" style="endArrow=none;html=1;rounded=0;" edge="1" parent="1">
          <mxGeometry width="50" height="50" relative="1" as="geometry">
            <mxPoint x="590.0033333333332" y="510" as="sourcePoint" />
            <mxPoint x="590" y="240" as="targetPoint" />
          </mxGeometry>
        </mxCell>
        <mxCell id="aYpGiaVqw2s0bX2Neu3e-10" value="" style="endArrow=classic;html=1;rounded=0;" edge="1" parent="1">
          <mxGeometry width="50" height="50" relative="1" as="geometry">
            <mxPoint x="590" y="240" as="sourcePoint" />
            <mxPoint x="520" y="240" as="targetPoint" />
          </mxGeometry>
        </mxCell>
      </root>
    </mxGraphModel>
  </diagram>
  <diagram id="83VCnpNajWrUhug65tjm" name="Page-5">
    <mxGraphModel dx="880" dy="468" grid="1" gridSize="10" guides="1" tooltips="1" connect="1" arrows="1" fold="1" page="1" pageScale="1" pageWidth="850" pageHeight="1100" math="0" shadow="0">
      <root>
        <mxCell id="0" />
        <mxCell id="1" parent="0" />
      </root>
    </mxGraphModel>
  </diagram>
  <diagram id="vIIB17qesLdT2yFIIE_M" name="Page-6">
    <mxGraphModel dx="1600" dy="942" grid="1" gridSize="10" guides="1" tooltips="1" connect="1" arrows="1" fold="1" page="1" pageScale="1" pageWidth="850" pageHeight="1100" math="0" shadow="0">
      <root>
        <mxCell id="0" />
        <mxCell id="1" parent="0" />
        <mxCell id="eRvDTjzg-Syd29gc3DkY-22" value="Mulai" style="rounded=1;arcSize=40;strokeWidth=2" vertex="1" parent="1">
          <mxGeometry x="281" y="430" width="69" height="49" as="geometry" />
        </mxCell>
        <mxCell id="eRvDTjzg-Syd29gc3DkY-23" value="Inisialisasi Serial 9600" style="rounded=1;arcSize=40;strokeWidth=2" vertex="1" parent="1">
          <mxGeometry x="223" y="529" width="187" height="49" as="geometry" />
        </mxCell>
        <mxCell id="eRvDTjzg-Syd29gc3DkY-24" value="Inisialisasi Sensor DHT" style="rounded=1;arcSize=40;strokeWidth=2" vertex="1" parent="1">
          <mxGeometry x="221" y="628" width="189" height="49" as="geometry" />
        </mxCell>
        <mxCell id="eRvDTjzg-Syd29gc3DkY-25" value="Loop" style="rhombus;strokeWidth=2;whiteSpace=wrap;" vertex="1" parent="1">
          <mxGeometry x="274" y="727" width="83" height="83" as="geometry" />
        </mxCell>
        <mxCell id="eRvDTjzg-Syd29gc3DkY-26" value="Baca Kelembaban" style="rounded=1;arcSize=40;strokeWidth=2" vertex="1" parent="1">
          <mxGeometry x="60" y="860" width="156" height="49" as="geometry" />
        </mxCell>
        <mxCell id="eRvDTjzg-Syd29gc3DkY-27" value="Baca Suhu" style="rounded=1;arcSize=40;strokeWidth=2" vertex="1" parent="1">
          <mxGeometry x="87" y="959" width="103" height="49" as="geometry" />
        </mxCell>
        <mxCell id="eRvDTjzg-Syd29gc3DkY-28" value="Apakah pembacaan gagal?" style="rhombus;strokeWidth=2;whiteSpace=wrap;" vertex="1" parent="1">
          <mxGeometry x="20" y="1058" width="237" height="237" as="geometry" />
        </mxCell>
        <mxCell id="eRvDTjzg-Syd29gc3DkY-29" value="Cetak Failed to read from DHT sensor!" style="rounded=1;arcSize=40;strokeWidth=2" vertex="1" parent="1">
          <mxGeometry x="108" y="1368" width="215" height="67" as="geometry" />
        </mxCell>
        <mxCell id="eRvDTjzg-Syd29gc3DkY-30" value="Cetak Humidity dan Temperature" style="rounded=1;arcSize=40;strokeWidth=2" vertex="1" parent="1">
          <mxGeometry x="373" y="1368" width="172" height="67" as="geometry" />
        </mxCell>
        <mxCell id="eRvDTjzg-Syd29gc3DkY-31" value="Tunggu 2 detik" style="rounded=1;arcSize=40;strokeWidth=2" vertex="1" parent="1">
          <mxGeometry x="451" y="1485" width="136" height="49" as="geometry" />
        </mxCell>
        <mxCell id="eRvDTjzg-Syd29gc3DkY-32" value="" style="curved=1;startArrow=none;endArrow=block;exitX=0.51;exitY=1;entryX=0.5;entryY=0;rounded=0;fontSize=12;startSize=8;endSize=8;" edge="1" parent="1" source="eRvDTjzg-Syd29gc3DkY-22" target="eRvDTjzg-Syd29gc3DkY-23">
          <mxGeometry relative="1" as="geometry">
            <Array as="points" />
          </mxGeometry>
        </mxCell>
        <mxCell id="eRvDTjzg-Syd29gc3DkY-33" value="" style="curved=1;startArrow=none;endArrow=block;exitX=0.5;exitY=1;entryX=0.5;entryY=0;rounded=0;fontSize=12;startSize=8;endSize=8;" edge="1" parent="1" source="eRvDTjzg-Syd29gc3DkY-23" target="eRvDTjzg-Syd29gc3DkY-24">
          <mxGeometry relative="1" as="geometry">
            <Array as="points" />
          </mxGeometry>
        </mxCell>
        <mxCell id="eRvDTjzg-Syd29gc3DkY-34" value="" style="curved=1;startArrow=none;endArrow=block;exitX=0.5;exitY=1;entryX=0.5;entryY=0;rounded=0;fontSize=12;startSize=8;endSize=8;" edge="1" parent="1" source="eRvDTjzg-Syd29gc3DkY-24" target="eRvDTjzg-Syd29gc3DkY-25">
          <mxGeometry relative="1" as="geometry">
            <Array as="points" />
          </mxGeometry>
        </mxCell>
        <mxCell id="eRvDTjzg-Syd29gc3DkY-35" value="" style="curved=1;startArrow=none;endArrow=block;exitX=0;exitY=0.69;entryX=0.5;entryY=0.01;rounded=0;fontSize=12;startSize=8;endSize=8;" edge="1" parent="1" source="eRvDTjzg-Syd29gc3DkY-25" target="eRvDTjzg-Syd29gc3DkY-26">
          <mxGeometry relative="1" as="geometry">
            <Array as="points">
              <mxPoint x="138" y="835" />
            </Array>
          </mxGeometry>
        </mxCell>
        <mxCell id="eRvDTjzg-Syd29gc3DkY-36" value="" style="curved=1;startArrow=none;endArrow=block;exitX=0.5;exitY=1.01;entryX=0.5;entryY=0.01;rounded=0;fontSize=12;startSize=8;endSize=8;" edge="1" parent="1" source="eRvDTjzg-Syd29gc3DkY-26" target="eRvDTjzg-Syd29gc3DkY-27">
          <mxGeometry relative="1" as="geometry">
            <Array as="points" />
          </mxGeometry>
        </mxCell>
        <mxCell id="eRvDTjzg-Syd29gc3DkY-37" value="" style="curved=1;startArrow=none;endArrow=block;exitX=0.5;exitY=1.01;entryX=0.5;entryY=0;rounded=0;fontSize=12;startSize=8;endSize=8;" edge="1" parent="1" source="eRvDTjzg-Syd29gc3DkY-27" target="eRvDTjzg-Syd29gc3DkY-28">
          <mxGeometry relative="1" as="geometry">
            <Array as="points" />
          </mxGeometry>
        </mxCell>
        <mxCell id="eRvDTjzg-Syd29gc3DkY-38" value="Ya" style="curved=1;startArrow=none;endArrow=block;exitX=0.5;exitY=1;entryX=0.33;entryY=0;rounded=0;fontSize=12;startSize=8;endSize=8;" edge="1" parent="1" source="eRvDTjzg-Syd29gc3DkY-28" target="eRvDTjzg-Syd29gc3DkY-29">
          <mxGeometry relative="1" as="geometry">
            <Array as="points">
              <mxPoint x="138" y="1332" />
            </Array>
          </mxGeometry>
        </mxCell>
        <mxCell id="eRvDTjzg-Syd29gc3DkY-39" value="" style="curved=1;startArrow=none;endArrow=block;exitX=0.72;exitY=0;entryX=0.5;entryY=1;rounded=0;fontSize=12;startSize=8;endSize=8;" edge="1" parent="1" source="eRvDTjzg-Syd29gc3DkY-29" target="eRvDTjzg-Syd29gc3DkY-25">
          <mxGeometry relative="1" as="geometry">
            <Array as="points">
              <mxPoint x="316" y="1332" />
            </Array>
          </mxGeometry>
        </mxCell>
        <mxCell id="eRvDTjzg-Syd29gc3DkY-40" value="Tidak" style="curved=1;startArrow=none;endArrow=block;exitX=1;exitY=0.74;entryX=0.5;entryY=0;rounded=0;fontSize=12;startSize=8;endSize=8;" edge="1" parent="1" source="eRvDTjzg-Syd29gc3DkY-28" target="eRvDTjzg-Syd29gc3DkY-30">
          <mxGeometry relative="1" as="geometry">
            <Array as="points">
              <mxPoint x="459" y="1332" />
            </Array>
          </mxGeometry>
        </mxCell>
        <mxCell id="eRvDTjzg-Syd29gc3DkY-41" value="" style="curved=1;startArrow=none;endArrow=block;exitX=0.5;exitY=1;entryX=0.28;entryY=0;rounded=0;fontSize=12;startSize=8;endSize=8;" edge="1" parent="1" source="eRvDTjzg-Syd29gc3DkY-30" target="eRvDTjzg-Syd29gc3DkY-31">
          <mxGeometry relative="1" as="geometry">
            <Array as="points">
              <mxPoint x="459" y="1460" />
            </Array>
          </mxGeometry>
        </mxCell>
        <mxCell id="eRvDTjzg-Syd29gc3DkY-42" value="" style="curved=1;startArrow=none;endArrow=block;exitX=0.72;exitY=0;entryX=1.01;entryY=0.63;rounded=0;fontSize=12;startSize=8;endSize=8;" edge="1" parent="1" source="eRvDTjzg-Syd29gc3DkY-31" target="eRvDTjzg-Syd29gc3DkY-25">
          <mxGeometry relative="1" as="geometry">
            <Array as="points">
              <mxPoint x="580" y="1460" />
              <mxPoint x="580" y="835" />
            </Array>
          </mxGeometry>
        </mxCell>
      </root>
    </mxGraphModel>
  </diagram>
  <diagram id="J1uG0B4viaiX-aqjHr5V" name="Page-7">
    <mxGraphModel dx="880" dy="518" grid="1" gridSize="10" guides="1" tooltips="1" connect="1" arrows="1" fold="1" page="1" pageScale="1" pageWidth="850" pageHeight="1100" math="0" shadow="0">
      <root>
        <mxCell id="0" />
        <mxCell id="1" parent="0" />
        <mxCell id="Z0ajDFj2CvX-1wqKtfaN-2" value="Mulai" style="rounded=1;arcSize=40;strokeWidth=2" vertex="1" parent="1">
          <mxGeometry x="286" y="240" width="69" height="49" as="geometry" />
        </mxCell>
        <mxCell id="Z0ajDFj2CvX-1wqKtfaN-3" value="Inisialisasi Serial 9600" style="rounded=1;arcSize=40;strokeWidth=2" vertex="1" parent="1">
          <mxGeometry x="227" y="339" width="187" height="49" as="geometry" />
        </mxCell>
        <mxCell id="Z0ajDFj2CvX-1wqKtfaN-4" value="Inisialisasi Sensor DHT" style="rounded=1;arcSize=40;strokeWidth=2" vertex="1" parent="1">
          <mxGeometry x="226" y="438" width="189" height="49" as="geometry" />
        </mxCell>
        <mxCell id="Z0ajDFj2CvX-1wqKtfaN-5" value="Inisialisasi Pin LED sebagai Output" style="rounded=1;arcSize=40;strokeWidth=2" vertex="1" parent="1">
          <mxGeometry x="211" y="537" width="218" height="67" as="geometry" />
        </mxCell>
        <mxCell id="Z0ajDFj2CvX-1wqKtfaN-6" value="Loop" style="rhombus;strokeWidth=2;whiteSpace=wrap;" vertex="1" parent="1">
          <mxGeometry x="279" y="654" width="83" height="83" as="geometry" />
        </mxCell>
        <mxCell id="Z0ajDFj2CvX-1wqKtfaN-7" value="Baca Kelembaban" style="rounded=1;arcSize=40;strokeWidth=2" vertex="1" parent="1">
          <mxGeometry x="60" y="787" width="156" height="49" as="geometry" />
        </mxCell>
        <mxCell id="Z0ajDFj2CvX-1wqKtfaN-8" value="Baca Suhu dalam Celcius" style="rounded=1;arcSize=40;strokeWidth=2" vertex="1" parent="1">
          <mxGeometry x="35" y="886" width="207" height="49" as="geometry" />
        </mxCell>
        <mxCell id="Z0ajDFj2CvX-1wqKtfaN-9" value="Apakah pembacaan gagal?" style="rhombus;strokeWidth=2;whiteSpace=wrap;" vertex="1" parent="1">
          <mxGeometry x="20" y="985" width="237" height="237" as="geometry" />
        </mxCell>
        <mxCell id="Z0ajDFj2CvX-1wqKtfaN-10" value="Cetak Failed to read from DHT sensor!" style="rounded=1;arcSize=40;strokeWidth=2" vertex="1" parent="1">
          <mxGeometry x="108" y="1304" width="215" height="67" as="geometry" />
        </mxCell>
        <mxCell id="Z0ajDFj2CvX-1wqKtfaN-11" value="Cetak Humidity dan Temperature ke Serial Monitor" style="rounded=1;arcSize=40;strokeWidth=2" vertex="1" parent="1">
          <mxGeometry x="373" y="1295" width="190" height="84" as="geometry" />
        </mxCell>
        <mxCell id="Z0ajDFj2CvX-1wqKtfaN-12" value="Apakah Suhu &gt;= 27 derajat?" style="rhombus;strokeWidth=2;whiteSpace=wrap;" vertex="1" parent="1">
          <mxGeometry x="355" y="1429" width="225" height="225" as="geometry" />
        </mxCell>
        <mxCell id="Z0ajDFj2CvX-1wqKtfaN-13" value="Nyalakan LED" style="rounded=1;arcSize=40;strokeWidth=2" vertex="1" parent="1">
          <mxGeometry x="318" y="1727" width="126" height="49" as="geometry" />
        </mxCell>
        <mxCell id="Z0ajDFj2CvX-1wqKtfaN-14" value="Matikan LED" style="rounded=1;arcSize=40;strokeWidth=2" vertex="1" parent="1">
          <mxGeometry x="495" y="1727" width="118" height="49" as="geometry" />
        </mxCell>
        <mxCell id="Z0ajDFj2CvX-1wqKtfaN-15" value="Tunggu 2 detik" style="rounded=1;arcSize=40;strokeWidth=2" vertex="1" parent="1">
          <mxGeometry x="486" y="1826" width="136" height="49" as="geometry" />
        </mxCell>
        <mxCell id="Z0ajDFj2CvX-1wqKtfaN-16" value="" style="curved=1;startArrow=none;endArrow=block;exitX=0.5;exitY=1;entryX=0.5;entryY=0;rounded=0;fontSize=12;startSize=8;endSize=8;" edge="1" parent="1" source="Z0ajDFj2CvX-1wqKtfaN-2" target="Z0ajDFj2CvX-1wqKtfaN-3">
          <mxGeometry relative="1" as="geometry">
            <Array as="points" />
          </mxGeometry>
        </mxCell>
        <mxCell id="Z0ajDFj2CvX-1wqKtfaN-17" value="" style="curved=1;startArrow=none;endArrow=block;exitX=0.5;exitY=1;entryX=0.5;entryY=0;rounded=0;fontSize=12;startSize=8;endSize=8;" edge="1" parent="1" source="Z0ajDFj2CvX-1wqKtfaN-3" target="Z0ajDFj2CvX-1wqKtfaN-4">
          <mxGeometry relative="1" as="geometry">
            <Array as="points" />
          </mxGeometry>
        </mxCell>
        <mxCell id="Z0ajDFj2CvX-1wqKtfaN-18" value="" style="curved=1;startArrow=none;endArrow=block;exitX=0.5;exitY=1;entryX=0.5;entryY=0;rounded=0;fontSize=12;startSize=8;endSize=8;" edge="1" parent="1" source="Z0ajDFj2CvX-1wqKtfaN-4" target="Z0ajDFj2CvX-1wqKtfaN-5">
          <mxGeometry relative="1" as="geometry">
            <Array as="points" />
          </mxGeometry>
        </mxCell>
        <mxCell id="Z0ajDFj2CvX-1wqKtfaN-19" value="" style="curved=1;startArrow=none;endArrow=block;exitX=0.5;exitY=0.99;entryX=0.5;entryY=0;rounded=0;fontSize=12;startSize=8;endSize=8;" edge="1" parent="1" source="Z0ajDFj2CvX-1wqKtfaN-5" target="Z0ajDFj2CvX-1wqKtfaN-6">
          <mxGeometry relative="1" as="geometry">
            <Array as="points" />
          </mxGeometry>
        </mxCell>
        <mxCell id="Z0ajDFj2CvX-1wqKtfaN-20" value="" style="curved=1;startArrow=none;endArrow=block;exitX=0;exitY=0.68;entryX=0.5;entryY=0;rounded=0;fontSize=12;startSize=8;endSize=8;" edge="1" parent="1" source="Z0ajDFj2CvX-1wqKtfaN-6" target="Z0ajDFj2CvX-1wqKtfaN-7">
          <mxGeometry relative="1" as="geometry">
            <Array as="points">
              <mxPoint x="138" y="762" />
            </Array>
          </mxGeometry>
        </mxCell>
        <mxCell id="Z0ajDFj2CvX-1wqKtfaN-21" value="" style="curved=1;startArrow=none;endArrow=block;exitX=0.5;exitY=1;entryX=0.5;entryY=0;rounded=0;fontSize=12;startSize=8;endSize=8;" edge="1" parent="1" source="Z0ajDFj2CvX-1wqKtfaN-7" target="Z0ajDFj2CvX-1wqKtfaN-8">
          <mxGeometry relative="1" as="geometry">
            <Array as="points" />
          </mxGeometry>
        </mxCell>
        <mxCell id="Z0ajDFj2CvX-1wqKtfaN-22" value="" style="curved=1;startArrow=none;endArrow=block;exitX=0.5;exitY=1;entryX=0.5;entryY=0;rounded=0;fontSize=12;startSize=8;endSize=8;" edge="1" parent="1" source="Z0ajDFj2CvX-1wqKtfaN-8" target="Z0ajDFj2CvX-1wqKtfaN-9">
          <mxGeometry relative="1" as="geometry">
            <Array as="points" />
          </mxGeometry>
        </mxCell>
        <mxCell id="Z0ajDFj2CvX-1wqKtfaN-23" value="Ya" style="curved=1;startArrow=none;endArrow=block;exitX=0.5;exitY=1;entryX=0.35;entryY=-0.01;rounded=0;fontSize=12;startSize=8;endSize=8;" edge="1" parent="1" source="Z0ajDFj2CvX-1wqKtfaN-9" target="Z0ajDFj2CvX-1wqKtfaN-10">
          <mxGeometry relative="1" as="geometry">
            <Array as="points">
              <mxPoint x="138" y="1258" />
            </Array>
          </mxGeometry>
        </mxCell>
        <mxCell id="Z0ajDFj2CvX-1wqKtfaN-24" value="" style="curved=1;startArrow=none;endArrow=block;exitX=0.71;exitY=-0.01;entryX=0.5;entryY=1;rounded=0;fontSize=12;startSize=8;endSize=8;" edge="1" parent="1" source="Z0ajDFj2CvX-1wqKtfaN-10" target="Z0ajDFj2CvX-1wqKtfaN-6">
          <mxGeometry relative="1" as="geometry">
            <Array as="points">
              <mxPoint x="320" y="1258" />
            </Array>
          </mxGeometry>
        </mxCell>
        <mxCell id="Z0ajDFj2CvX-1wqKtfaN-25" value="Tidak" style="curved=1;startArrow=none;endArrow=block;exitX=1;exitY=0.73;entryX=0.5;entryY=0;rounded=0;fontSize=12;startSize=8;endSize=8;" edge="1" parent="1" source="Z0ajDFj2CvX-1wqKtfaN-9" target="Z0ajDFj2CvX-1wqKtfaN-11">
          <mxGeometry relative="1" as="geometry">
            <Array as="points">
              <mxPoint x="468" y="1258" />
            </Array>
          </mxGeometry>
        </mxCell>
        <mxCell id="Z0ajDFj2CvX-1wqKtfaN-26" value="" style="curved=1;startArrow=none;endArrow=block;exitX=0.5;exitY=1;entryX=0.5;entryY=0;rounded=0;fontSize=12;startSize=8;endSize=8;" edge="1" parent="1" source="Z0ajDFj2CvX-1wqKtfaN-11" target="Z0ajDFj2CvX-1wqKtfaN-12">
          <mxGeometry relative="1" as="geometry">
            <Array as="points" />
          </mxGeometry>
        </mxCell>
        <mxCell id="Z0ajDFj2CvX-1wqKtfaN-27" value="Ya" style="curved=1;startArrow=none;endArrow=block;exitX=0.21;exitY=1;entryX=0.5;entryY=0.01;rounded=0;fontSize=12;startSize=8;endSize=8;" edge="1" parent="1" source="Z0ajDFj2CvX-1wqKtfaN-12" target="Z0ajDFj2CvX-1wqKtfaN-13">
          <mxGeometry relative="1" as="geometry">
            <Array as="points">
              <mxPoint x="382" y="1691" />
            </Array>
          </mxGeometry>
        </mxCell>
        <mxCell id="Z0ajDFj2CvX-1wqKtfaN-28" value="Tidak" style="curved=1;startArrow=none;endArrow=block;exitX=0.79;exitY=1;entryX=0.5;entryY=0.01;rounded=0;fontSize=12;startSize=8;endSize=8;" edge="1" parent="1" source="Z0ajDFj2CvX-1wqKtfaN-12" target="Z0ajDFj2CvX-1wqKtfaN-14">
          <mxGeometry relative="1" as="geometry">
            <Array as="points">
              <mxPoint x="554" y="1691" />
            </Array>
          </mxGeometry>
        </mxCell>
        <mxCell id="Z0ajDFj2CvX-1wqKtfaN-29" value="" style="curved=1;startArrow=none;endArrow=block;exitX=0.5;exitY=1.01;entryX=0;entryY=0.11;rounded=0;fontSize=12;startSize=8;endSize=8;" edge="1" parent="1" source="Z0ajDFj2CvX-1wqKtfaN-13" target="Z0ajDFj2CvX-1wqKtfaN-15">
          <mxGeometry relative="1" as="geometry">
            <Array as="points">
              <mxPoint x="382" y="1801" />
            </Array>
          </mxGeometry>
        </mxCell>
        <mxCell id="Z0ajDFj2CvX-1wqKtfaN-30" value="" style="curved=1;startArrow=none;endArrow=block;exitX=0.5;exitY=1.01;entryX=0.5;entryY=0.01;rounded=0;fontSize=12;startSize=8;endSize=8;" edge="1" parent="1" source="Z0ajDFj2CvX-1wqKtfaN-14" target="Z0ajDFj2CvX-1wqKtfaN-15">
          <mxGeometry relative="1" as="geometry">
            <Array as="points" />
          </mxGeometry>
        </mxCell>
        <mxCell id="Z0ajDFj2CvX-1wqKtfaN-31" value="" style="curved=1;startArrow=none;endArrow=block;exitX=0.94;exitY=0.01;entryX=1;entryY=0.59;rounded=0;fontSize=12;startSize=8;endSize=8;" edge="1" parent="1" source="Z0ajDFj2CvX-1wqKtfaN-15" target="Z0ajDFj2CvX-1wqKtfaN-6">
          <mxGeometry relative="1" as="geometry">
            <Array as="points">
              <mxPoint x="675" y="1801" />
              <mxPoint x="675" y="762" />
            </Array>
          </mxGeometry>
        </mxCell>
      </root>
    </mxGraphModel>
  </diagram>
  <diagram id="t3LN_8-SiEhD4W1mIZ2W" name="Page-8">
    <mxGraphModel dx="880" dy="518" grid="0" gridSize="10" guides="1" tooltips="1" connect="1" arrows="1" fold="1" page="0" pageScale="1" pageWidth="850" pageHeight="1100" math="0" shadow="0">
      <root>
        <mxCell id="0" />
        <mxCell id="1" parent="0" />
        <mxCell id="Wte-DNYQxjZ6OysAD6iD-10" value="Mulai" style="rounded=1;arcSize=40;strokeWidth=2" vertex="1" parent="1">
          <mxGeometry x="188" y="20" width="69" height="49" as="geometry" />
        </mxCell>
        <mxCell id="Wte-DNYQxjZ6OysAD6iD-11" value="Inisialisasi komunikasi Serial dan SPI" style="rounded=1;arcSize=40;strokeWidth=2" vertex="1" parent="1">
          <mxGeometry x="129" y="119" width="187" height="67" as="geometry" />
        </mxCell>
        <mxCell id="Wte-DNYQxjZ6OysAD6iD-12" value="Inisialisasi RFID reader" style="rounded=1;arcSize=40;strokeWidth=2" vertex="1" parent="1">
          <mxGeometry x="127" y="236" width="192" height="49" as="geometry" />
        </mxCell>
        <mxCell id="Wte-DNYQxjZ6OysAD6iD-13" value="Loop" style="rhombus;strokeWidth=2;whiteSpace=wrap;" vertex="1" parent="1">
          <mxGeometry x="181" y="335" width="83" height="83" as="geometry" />
        </mxCell>
        <mxCell id="Wte-DNYQxjZ6OysAD6iD-14" value="Apakah ada kartu baru?" style="rhombus;strokeWidth=2;whiteSpace=wrap;" vertex="1" parent="1">
          <mxGeometry x="52" y="491" width="218" height="218" as="geometry" />
        </mxCell>
        <mxCell id="Wte-DNYQxjZ6OysAD6iD-15" value="Apakah kartu dapat dibaca?" style="rhombus;strokeWidth=2;whiteSpace=wrap;" vertex="1" parent="1">
          <mxGeometry x="120" y="782" width="248" height="248" as="geometry" />
        </mxCell>
        <mxCell id="Wte-DNYQxjZ6OysAD6iD-16" value="Baca UID dari kartu dan tampilkan di Serial Monitor" style="rounded=1;arcSize=40;strokeWidth=2" vertex="1" parent="1">
          <mxGeometry x="132" y="1103" width="225" height="67" as="geometry" />
        </mxCell>
        <mxCell id="Wte-DNYQxjZ6OysAD6iD-17" value="Apakah UID diizinkan?" style="rhombus;strokeWidth=2;whiteSpace=wrap;" vertex="1" parent="1">
          <mxGeometry x="141" y="1220" width="206" height="206" as="geometry" />
        </mxCell>
        <mxCell id="Wte-DNYQxjZ6OysAD6iD-18" value="Akses diizinkan: Cetak Akses diizinkan &#xa;dan Selamat Datang" style="rounded=1;arcSize=40;strokeWidth=2" vertex="1" parent="1">
          <mxGeometry x="20" y="1499" width="214" height="98" as="geometry" />
        </mxCell>
        <mxCell id="Wte-DNYQxjZ6OysAD6iD-19" value="Akses ditolak: Cetak Akses ditolak &#xa;dan Coba Lagi" style="rounded=1;arcSize=40;strokeWidth=2" vertex="1" parent="1">
          <mxGeometry x="262" y="1508" width="226" height="90" as="geometry" />
        </mxCell>
        <mxCell id="Wte-DNYQxjZ6OysAD6iD-20" value="Tunggu kartu berikutnya" style="rounded=1;arcSize=40;strokeWidth=2" vertex="1" parent="1">
          <mxGeometry x="141" y="1634" width="205" height="49" as="geometry" />
        </mxCell>
        <mxCell id="Wte-DNYQxjZ6OysAD6iD-21" value="" style="curved=1;startArrow=none;endArrow=block;exitX=0.5;exitY=1;entryX=0.5;entryY=0;rounded=0;fontSize=12;startSize=8;endSize=8;" edge="1" parent="1" source="Wte-DNYQxjZ6OysAD6iD-10" target="Wte-DNYQxjZ6OysAD6iD-11">
          <mxGeometry relative="1" as="geometry">
            <Array as="points" />
          </mxGeometry>
        </mxCell>
        <mxCell id="Wte-DNYQxjZ6OysAD6iD-22" value="" style="curved=1;startArrow=none;endArrow=block;exitX=0.5;exitY=0.99;entryX=0.5;entryY=-0.01;rounded=0;fontSize=12;startSize=8;endSize=8;" edge="1" parent="1" source="Wte-DNYQxjZ6OysAD6iD-11" target="Wte-DNYQxjZ6OysAD6iD-12">
          <mxGeometry relative="1" as="geometry">
            <Array as="points" />
          </mxGeometry>
        </mxCell>
        <mxCell id="Wte-DNYQxjZ6OysAD6iD-23" value="" style="curved=1;startArrow=none;endArrow=block;exitX=0.5;exitY=0.99;entryX=0.5;entryY=0;rounded=0;fontSize=12;startSize=8;endSize=8;" edge="1" parent="1" source="Wte-DNYQxjZ6OysAD6iD-12" target="Wte-DNYQxjZ6OysAD6iD-13">
          <mxGeometry relative="1" as="geometry">
            <Array as="points" />
          </mxGeometry>
        </mxCell>
        <mxCell id="Wte-DNYQxjZ6OysAD6iD-24" value="" style="curved=1;startArrow=none;endArrow=block;exitX=0;exitY=0.97;entryX=0.43;entryY=0;rounded=0;fontSize=12;startSize=8;endSize=8;" edge="1" parent="1" source="Wte-DNYQxjZ6OysAD6iD-13" target="Wte-DNYQxjZ6OysAD6iD-14">
          <mxGeometry relative="1" as="geometry">
            <Array as="points">
              <mxPoint x="140" y="454" />
            </Array>
          </mxGeometry>
        </mxCell>
        <mxCell id="Wte-DNYQxjZ6OysAD6iD-25" value="Tidak" style="curved=1;startArrow=none;endArrow=block;exitX=0.71;exitY=0;entryX=0.5;entryY=1;rounded=0;fontSize=12;startSize=8;endSize=8;" edge="1" parent="1" source="Wte-DNYQxjZ6OysAD6iD-14" target="Wte-DNYQxjZ6OysAD6iD-13">
          <mxGeometry relative="1" as="geometry">
            <Array as="points">
              <mxPoint x="223" y="454" />
            </Array>
          </mxGeometry>
        </mxCell>
        <mxCell id="Wte-DNYQxjZ6OysAD6iD-26" value="Ya" style="curved=1;startArrow=none;endArrow=block;exitX=0.5;exitY=1;entryX=0.24;entryY=0;rounded=0;fontSize=12;startSize=8;endSize=8;" edge="1" parent="1" source="Wte-DNYQxjZ6OysAD6iD-14" target="Wte-DNYQxjZ6OysAD6iD-15">
          <mxGeometry relative="1" as="geometry">
            <Array as="points">
              <mxPoint x="161" y="746" />
            </Array>
          </mxGeometry>
        </mxCell>
        <mxCell id="Wte-DNYQxjZ6OysAD6iD-27" value="Tidak" style="curved=1;startArrow=none;endArrow=block;exitX=0.76;exitY=0;entryX=1.01;entryY=0.87;rounded=0;fontSize=12;startSize=8;endSize=8;" edge="1" parent="1" source="Wte-DNYQxjZ6OysAD6iD-15" target="Wte-DNYQxjZ6OysAD6iD-13">
          <mxGeometry relative="1" as="geometry">
            <Array as="points">
              <mxPoint x="327" y="746" />
              <mxPoint x="327" y="454" />
            </Array>
          </mxGeometry>
        </mxCell>
        <mxCell id="Wte-DNYQxjZ6OysAD6iD-28" value="Ya" style="curved=1;startArrow=none;endArrow=block;exitX=0.5;exitY=1;entryX=0.5;entryY=0.01;rounded=0;fontSize=12;startSize=8;endSize=8;" edge="1" parent="1" source="Wte-DNYQxjZ6OysAD6iD-15" target="Wte-DNYQxjZ6OysAD6iD-16">
          <mxGeometry relative="1" as="geometry">
            <Array as="points" />
          </mxGeometry>
        </mxCell>
        <mxCell id="Wte-DNYQxjZ6OysAD6iD-29" value="" style="curved=1;startArrow=none;endArrow=block;exitX=0.5;exitY=1;entryX=0.5;entryY=0;rounded=0;fontSize=12;startSize=8;endSize=8;" edge="1" parent="1" source="Wte-DNYQxjZ6OysAD6iD-16" target="Wte-DNYQxjZ6OysAD6iD-17">
          <mxGeometry relative="1" as="geometry">
            <Array as="points" />
          </mxGeometry>
        </mxCell>
        <mxCell id="Wte-DNYQxjZ6OysAD6iD-30" value="Ya" style="curved=1;startArrow=none;endArrow=block;exitX=0.04;exitY=1;entryX=0.5;entryY=0.01;rounded=0;fontSize=12;startSize=8;endSize=8;" edge="1" parent="1" source="Wte-DNYQxjZ6OysAD6iD-17" target="Wte-DNYQxjZ6OysAD6iD-18">
          <mxGeometry relative="1" as="geometry">
            <Array as="points">
              <mxPoint x="116" y="1463" />
            </Array>
          </mxGeometry>
        </mxCell>
        <mxCell id="Wte-DNYQxjZ6OysAD6iD-31" value="Tidak" style="curved=1;startArrow=none;endArrow=block;exitX=0.96;exitY=1;entryX=0.5;entryY=0;rounded=0;fontSize=12;startSize=8;endSize=8;" edge="1" parent="1" source="Wte-DNYQxjZ6OysAD6iD-17" target="Wte-DNYQxjZ6OysAD6iD-19">
          <mxGeometry relative="1" as="geometry">
            <Array as="points">
              <mxPoint x="372" y="1463" />
            </Array>
          </mxGeometry>
        </mxCell>
        <mxCell id="Wte-DNYQxjZ6OysAD6iD-32" value="" style="curved=1;startArrow=none;endArrow=block;exitX=0.5;exitY=1.01;entryX=0.19;entryY=-0.01;rounded=0;fontSize=12;startSize=8;endSize=8;" edge="1" parent="1" source="Wte-DNYQxjZ6OysAD6iD-18" target="Wte-DNYQxjZ6OysAD6iD-20">
          <mxGeometry relative="1" as="geometry">
            <Array as="points">
              <mxPoint x="116" y="1609" />
            </Array>
          </mxGeometry>
        </mxCell>
        <mxCell id="Wte-DNYQxjZ6OysAD6iD-33" value="" style="curved=1;startArrow=none;endArrow=block;exitX=0.5;exitY=1;entryX=0.81;entryY=-0.01;rounded=0;fontSize=12;startSize=8;endSize=8;" edge="1" parent="1" source="Wte-DNYQxjZ6OysAD6iD-19" target="Wte-DNYQxjZ6OysAD6iD-20">
          <mxGeometry relative="1" as="geometry">
            <Array as="points">
              <mxPoint x="372" y="1609" />
            </Array>
          </mxGeometry>
        </mxCell>
      </root>
    </mxGraphModel>
  </diagram>
  <diagram id="LLhgnCrewi0yXVcVpKyo" name="Page-9">
    <mxGraphModel dx="880" dy="518" grid="0" gridSize="10" guides="1" tooltips="1" connect="1" arrows="1" fold="1" page="0" pageScale="1" pageWidth="850" pageHeight="1100" math="0" shadow="0">
      <root>
        <mxCell id="0" />
        <mxCell id="1" parent="0" />
        <mxCell id="FFZH1hGPSYzEX2l0ODUL-1" value="Mulai" style="rounded=1;arcSize=40;strokeWidth=2" vertex="1" parent="1">
          <mxGeometry x="240" y="20" width="69" height="49" as="geometry" />
        </mxCell>
        <mxCell id="FFZH1hGPSYzEX2l0ODUL-2" value="Inisialisasi komunikasi Serial" style="rounded=1;arcSize=40;strokeWidth=2" vertex="1" parent="1">
          <mxGeometry x="181" y="119" width="187" height="67" as="geometry" />
        </mxCell>
        <mxCell id="FFZH1hGPSYzEX2l0ODUL-3" value="Mulai komunikasi SPI" style="rounded=1;arcSize=40;strokeWidth=2" vertex="1" parent="1">
          <mxGeometry x="185" y="236" width="179" height="49" as="geometry" />
        </mxCell>
        <mxCell id="FFZH1hGPSYzEX2l0ODUL-4" value="Inisialisasi modul RFID" style="rounded=1;arcSize=40;strokeWidth=2" vertex="1" parent="1">
          <mxGeometry x="180" y="335" width="188" height="49" as="geometry" />
        </mxCell>
        <mxCell id="FFZH1hGPSYzEX2l0ODUL-5" value="Cetak Scan a card..." style="rounded=1;arcSize=40;strokeWidth=2" vertex="1" parent="1">
          <mxGeometry x="186" y="434" width="176" height="49" as="geometry" />
        </mxCell>
        <mxCell id="FFZH1hGPSYzEX2l0ODUL-6" value="Loop" style="rhombus;strokeWidth=2;whiteSpace=wrap;" vertex="1" parent="1">
          <mxGeometry x="233" y="533" width="83" height="83" as="geometry" />
        </mxCell>
        <mxCell id="FFZH1hGPSYzEX2l0ODUL-7" value="Apakah ada kartu baru?" style="rhombus;strokeWidth=2;whiteSpace=wrap;" vertex="1" parent="1">
          <mxGeometry x="20" y="689" width="218" height="218" as="geometry" />
        </mxCell>
        <mxCell id="FFZH1hGPSYzEX2l0ODUL-8" value="Apakah kartu dapat dibaca?" style="rhombus;strokeWidth=2;whiteSpace=wrap;" vertex="1" parent="1">
          <mxGeometry x="88" y="980" width="248" height="248" as="geometry" />
        </mxCell>
        <mxCell id="FFZH1hGPSYzEX2l0ODUL-9" value="Tampilkan UID kartu di Serial Monitor" style="rounded=1;arcSize=40;strokeWidth=2" vertex="1" parent="1">
          <mxGeometry x="115" y="1301" width="194" height="67" as="geometry" />
        </mxCell>
        <mxCell id="FFZH1hGPSYzEX2l0ODUL-10" value="Hentikan komunikasi dengan kartu" style="rounded=1;arcSize=40;strokeWidth=2" vertex="1" parent="1">
          <mxGeometry x="203" y="1418" width="178" height="67" as="geometry" />
        </mxCell>
        <mxCell id="FFZH1hGPSYzEX2l0ODUL-11" value="" style="curved=1;startArrow=none;endArrow=block;exitX=0.5;exitY=1;entryX=0.5;entryY=0;rounded=0;fontSize=12;startSize=8;endSize=8;" edge="1" parent="1" source="FFZH1hGPSYzEX2l0ODUL-1" target="FFZH1hGPSYzEX2l0ODUL-2">
          <mxGeometry relative="1" as="geometry">
            <Array as="points" />
          </mxGeometry>
        </mxCell>
        <mxCell id="FFZH1hGPSYzEX2l0ODUL-12" value="" style="curved=1;startArrow=none;endArrow=block;exitX=0.5;exitY=0.99;entryX=0.5;entryY=-0.01;rounded=0;fontSize=12;startSize=8;endSize=8;" edge="1" parent="1" source="FFZH1hGPSYzEX2l0ODUL-2" target="FFZH1hGPSYzEX2l0ODUL-3">
          <mxGeometry relative="1" as="geometry">
            <Array as="points" />
          </mxGeometry>
        </mxCell>
        <mxCell id="FFZH1hGPSYzEX2l0ODUL-13" value="" style="curved=1;startArrow=none;endArrow=block;exitX=0.5;exitY=0.99;entryX=0.5;entryY=-0.01;rounded=0;fontSize=12;startSize=8;endSize=8;" edge="1" parent="1" source="FFZH1hGPSYzEX2l0ODUL-3" target="FFZH1hGPSYzEX2l0ODUL-4">
          <mxGeometry relative="1" as="geometry">
            <Array as="points" />
          </mxGeometry>
        </mxCell>
        <mxCell id="FFZH1hGPSYzEX2l0ODUL-14" value="" style="curved=1;startArrow=none;endArrow=block;exitX=0.5;exitY=0.99;entryX=0.5;entryY=-0.01;rounded=0;fontSize=12;startSize=8;endSize=8;" edge="1" parent="1" source="FFZH1hGPSYzEX2l0ODUL-4" target="FFZH1hGPSYzEX2l0ODUL-5">
          <mxGeometry relative="1" as="geometry">
            <Array as="points" />
          </mxGeometry>
        </mxCell>
        <mxCell id="FFZH1hGPSYzEX2l0ODUL-15" value="" style="curved=1;startArrow=none;endArrow=block;exitX=0.5;exitY=0.99;entryX=0.5;entryY=0;rounded=0;fontSize=12;startSize=8;endSize=8;" edge="1" parent="1" source="FFZH1hGPSYzEX2l0ODUL-5" target="FFZH1hGPSYzEX2l0ODUL-6">
          <mxGeometry relative="1" as="geometry">
            <Array as="points" />
          </mxGeometry>
        </mxCell>
        <mxCell id="FFZH1hGPSYzEX2l0ODUL-16" value="" style="curved=1;startArrow=none;endArrow=block;exitX=0;exitY=0.73;entryX=0.43;entryY=0;rounded=0;fontSize=12;startSize=8;endSize=8;" edge="1" parent="1" source="FFZH1hGPSYzEX2l0ODUL-6" target="FFZH1hGPSYzEX2l0ODUL-7">
          <mxGeometry relative="1" as="geometry">
            <Array as="points">
              <mxPoint x="108" y="652" />
            </Array>
          </mxGeometry>
        </mxCell>
        <mxCell id="FFZH1hGPSYzEX2l0ODUL-17" value="Tidak" style="curved=1;startArrow=none;endArrow=block;exitX=0.71;exitY=0;entryX=0;entryY=0.97;rounded=0;fontSize=12;startSize=8;endSize=8;" edge="1" parent="1" source="FFZH1hGPSYzEX2l0ODUL-7" target="FFZH1hGPSYzEX2l0ODUL-6">
          <mxGeometry relative="1" as="geometry">
            <Array as="points">
              <mxPoint x="191" y="652" />
            </Array>
          </mxGeometry>
        </mxCell>
        <mxCell id="FFZH1hGPSYzEX2l0ODUL-18" value="Ya" style="curved=1;startArrow=none;endArrow=block;exitX=0.5;exitY=1;entryX=0.24;entryY=0;rounded=0;fontSize=12;startSize=8;endSize=8;" edge="1" parent="1" source="FFZH1hGPSYzEX2l0ODUL-7" target="FFZH1hGPSYzEX2l0ODUL-8">
          <mxGeometry relative="1" as="geometry">
            <Array as="points">
              <mxPoint x="129" y="944" />
            </Array>
          </mxGeometry>
        </mxCell>
        <mxCell id="FFZH1hGPSYzEX2l0ODUL-19" value="Tidak" style="curved=1;startArrow=none;endArrow=block;exitX=0.76;exitY=0;entryX=0.63;entryY=1;rounded=0;fontSize=12;startSize=8;endSize=8;" edge="1" parent="1" source="FFZH1hGPSYzEX2l0ODUL-8" target="FFZH1hGPSYzEX2l0ODUL-6">
          <mxGeometry relative="1" as="geometry">
            <Array as="points">
              <mxPoint x="295" y="944" />
              <mxPoint x="295" y="652" />
            </Array>
          </mxGeometry>
        </mxCell>
        <mxCell id="FFZH1hGPSYzEX2l0ODUL-20" value="Ya" style="curved=1;startArrow=none;endArrow=block;exitX=0.5;exitY=1;entryX=0.5;entryY=0.01;rounded=0;fontSize=12;startSize=8;endSize=8;" edge="1" parent="1" source="FFZH1hGPSYzEX2l0ODUL-8" target="FFZH1hGPSYzEX2l0ODUL-9">
          <mxGeometry relative="1" as="geometry">
            <Array as="points" />
          </mxGeometry>
        </mxCell>
        <mxCell id="FFZH1hGPSYzEX2l0ODUL-21" value="" style="curved=1;startArrow=none;endArrow=block;exitX=0.5;exitY=1;entryX=0.24;entryY=0;rounded=0;fontSize=12;startSize=8;endSize=8;" edge="1" parent="1" source="FFZH1hGPSYzEX2l0ODUL-9" target="FFZH1hGPSYzEX2l0ODUL-10">
          <mxGeometry relative="1" as="geometry">
            <Array as="points">
              <mxPoint x="212" y="1393" />
            </Array>
          </mxGeometry>
        </mxCell>
        <mxCell id="FFZH1hGPSYzEX2l0ODUL-22" value="" style="curved=1;startArrow=none;endArrow=block;exitX=0.83;exitY=0;entryX=1;entryY=0.82;rounded=0;fontSize=12;startSize=8;endSize=8;" edge="1" parent="1" source="FFZH1hGPSYzEX2l0ODUL-10" target="FFZH1hGPSYzEX2l0ODUL-6">
          <mxGeometry relative="1" as="geometry">
            <Array as="points">
              <mxPoint x="396" y="1393" />
              <mxPoint x="396" y="652" />
            </Array>
          </mxGeometry>
        </mxCell>
      </root>
    </mxGraphModel>
  </diagram>
  <diagram id="BBqFwNYSAeC33lqAxFQA" name="Page-10">
    <mxGraphModel dx="880" dy="518" grid="0" gridSize="10" guides="1" tooltips="1" connect="1" arrows="1" fold="1" page="0" pageScale="1" pageWidth="850" pageHeight="1100" math="0" shadow="0">
      <root>
        <mxCell id="0" />
        <mxCell id="1" parent="0" />
        <mxCell id="mwNprNj4Kku_8YDD3zbD-1" value="Mulai" style="rounded=1;arcSize=40;strokeWidth=2" vertex="1" parent="1">
          <mxGeometry x="305" y="20" width="69" height="49" as="geometry" />
        </mxCell>
        <mxCell id="mwNprNj4Kku_8YDD3zbD-2" value="Inisialisasi komunikasi Serial" style="rounded=1;arcSize=40;strokeWidth=2" vertex="1" parent="1">
          <mxGeometry x="246" y="119" width="187" height="67" as="geometry" />
        </mxCell>
        <mxCell id="mwNprNj4Kku_8YDD3zbD-3" value="Inisialisasi sensor DHT" style="rounded=1;arcSize=40;strokeWidth=2" vertex="1" parent="1">
          <mxGeometry x="246" y="236" width="188" height="49" as="geometry" />
        </mxCell>
        <mxCell id="mwNprNj4Kku_8YDD3zbD-4" value="Inisialisasi LCD" style="rounded=1;arcSize=40;strokeWidth=2" vertex="1" parent="1">
          <mxGeometry x="272" y="335" width="135" height="49" as="geometry" />
        </mxCell>
        <mxCell id="mwNprNj4Kku_8YDD3zbD-5" value="Tampilkan Mengukur... di LCD" style="rounded=1;arcSize=40;strokeWidth=2" vertex="1" parent="1">
          <mxGeometry x="234" y="434" width="211" height="67" as="geometry" />
        </mxCell>
        <mxCell id="mwNprNj4Kku_8YDD3zbD-6" value="Loop" style="rhombus;strokeWidth=2;whiteSpace=wrap;" vertex="1" parent="1">
          <mxGeometry x="298" y="550" width="83" height="83" as="geometry" />
        </mxCell>
        <mxCell id="mwNprNj4Kku_8YDD3zbD-7" value="Baca kelembaban dan suhu" style="rounded=1;arcSize=40;strokeWidth=2" vertex="1" parent="1">
          <mxGeometry x="153" y="683" width="224" height="49" as="geometry" />
        </mxCell>
        <mxCell id="mwNprNj4Kku_8YDD3zbD-8" value="Apakah pembacaan berhasil?" style="rhombus;strokeWidth=2;whiteSpace=wrap;" vertex="1" parent="1">
          <mxGeometry x="162" y="782" width="206" height="206" as="geometry" />
        </mxCell>
        <mxCell id="mwNprNj4Kku_8YDD3zbD-9" value="Tampilkan Error membaca sensor DHT! &#xa;di LCD" style="rounded=1;arcSize=40;strokeWidth=2" vertex="1" parent="1">
          <mxGeometry x="20" y="1062" width="220" height="80" as="geometry" />
        </mxCell>
        <mxCell id="mwNprNj4Kku_8YDD3zbD-10" value="Tampilkan kelembaban dan suhu &#xa;di Serial Monitor" style="rounded=1;arcSize=40;strokeWidth=2" vertex="1" parent="1">
          <mxGeometry x="288" y="1062" width="240" height="73" as="geometry" />
        </mxCell>
        <mxCell id="mwNprNj4Kku_8YDD3zbD-11" value="Tampilkan kelembaban dan suhu di LCD" style="rounded=1;arcSize=40;strokeWidth=2" vertex="1" parent="1">
          <mxGeometry x="288" y="1178" width="226" height="67" as="geometry" />
        </mxCell>
        <mxCell id="mwNprNj4Kku_8YDD3zbD-12" value="Tunggu 2 detik" style="rounded=1;arcSize=40;strokeWidth=2" vertex="1" parent="1">
          <mxGeometry x="408" y="1295" width="136" height="49" as="geometry" />
        </mxCell>
        <mxCell id="mwNprNj4Kku_8YDD3zbD-13" value="" style="curved=1;startArrow=none;endArrow=block;exitX=0.5;exitY=1;entryX=0.5;entryY=0;rounded=0;fontSize=12;startSize=8;endSize=8;" edge="1" parent="1" source="mwNprNj4Kku_8YDD3zbD-1" target="mwNprNj4Kku_8YDD3zbD-2">
          <mxGeometry relative="1" as="geometry">
            <Array as="points" />
          </mxGeometry>
        </mxCell>
        <mxCell id="mwNprNj4Kku_8YDD3zbD-14" value="" style="curved=1;startArrow=none;endArrow=block;exitX=0.5;exitY=0.99;entryX=0.5;entryY=-0.01;rounded=0;fontSize=12;startSize=8;endSize=8;" edge="1" parent="1" source="mwNprNj4Kku_8YDD3zbD-2" target="mwNprNj4Kku_8YDD3zbD-3">
          <mxGeometry relative="1" as="geometry">
            <Array as="points" />
          </mxGeometry>
        </mxCell>
        <mxCell id="mwNprNj4Kku_8YDD3zbD-15" value="" style="curved=1;startArrow=none;endArrow=block;exitX=0.5;exitY=0.99;entryX=0.5;entryY=-0.01;rounded=0;fontSize=12;startSize=8;endSize=8;" edge="1" parent="1" source="mwNprNj4Kku_8YDD3zbD-3" target="mwNprNj4Kku_8YDD3zbD-4">
          <mxGeometry relative="1" as="geometry">
            <Array as="points" />
          </mxGeometry>
        </mxCell>
        <mxCell id="mwNprNj4Kku_8YDD3zbD-16" value="" style="curved=1;startArrow=none;endArrow=block;exitX=0.5;exitY=0.99;entryX=0.5;entryY=-0.01;rounded=0;fontSize=12;startSize=8;endSize=8;" edge="1" parent="1" source="mwNprNj4Kku_8YDD3zbD-4" target="mwNprNj4Kku_8YDD3zbD-5">
          <mxGeometry relative="1" as="geometry">
            <Array as="points" />
          </mxGeometry>
        </mxCell>
        <mxCell id="mwNprNj4Kku_8YDD3zbD-17" value="" style="curved=1;startArrow=none;endArrow=block;exitX=0.5;exitY=0.99;entryX=0.5;entryY=0;rounded=0;fontSize=12;startSize=8;endSize=8;" edge="1" parent="1" source="mwNprNj4Kku_8YDD3zbD-5" target="mwNprNj4Kku_8YDD3zbD-6">
          <mxGeometry relative="1" as="geometry">
            <Array as="points" />
          </mxGeometry>
        </mxCell>
        <mxCell id="mwNprNj4Kku_8YDD3zbD-18" value="" style="curved=1;startArrow=none;endArrow=block;exitX=0;exitY=0.96;entryX=0.5;entryY=0.01;rounded=0;fontSize=12;startSize=8;endSize=8;" edge="1" parent="1" source="mwNprNj4Kku_8YDD3zbD-6" target="mwNprNj4Kku_8YDD3zbD-7">
          <mxGeometry relative="1" as="geometry">
            <Array as="points">
              <mxPoint x="265" y="658" />
            </Array>
          </mxGeometry>
        </mxCell>
        <mxCell id="mwNprNj4Kku_8YDD3zbD-19" value="" style="curved=1;startArrow=none;endArrow=block;exitX=0.5;exitY=1.01;entryX=0.5;entryY=0;rounded=0;fontSize=12;startSize=8;endSize=8;" edge="1" parent="1" source="mwNprNj4Kku_8YDD3zbD-7" target="mwNprNj4Kku_8YDD3zbD-8">
          <mxGeometry relative="1" as="geometry">
            <Array as="points" />
          </mxGeometry>
        </mxCell>
        <mxCell id="mwNprNj4Kku_8YDD3zbD-20" value="Tidak" style="curved=1;startArrow=none;endArrow=block;exitX=0.01;exitY=1;entryX=0.5;entryY=0;rounded=0;fontSize=12;startSize=8;endSize=8;" edge="1" parent="1" source="mwNprNj4Kku_8YDD3zbD-8" target="mwNprNj4Kku_8YDD3zbD-9">
          <mxGeometry relative="1" as="geometry">
            <Array as="points">
              <mxPoint x="129" y="1025" />
            </Array>
          </mxGeometry>
        </mxCell>
        <mxCell id="mwNprNj4Kku_8YDD3zbD-21" value="Ya" style="curved=1;startArrow=none;endArrow=block;exitX=0.99;exitY=1;entryX=0.5;entryY=0;rounded=0;fontSize=12;startSize=8;endSize=8;" edge="1" parent="1" source="mwNprNj4Kku_8YDD3zbD-8" target="mwNprNj4Kku_8YDD3zbD-10">
          <mxGeometry relative="1" as="geometry">
            <Array as="points">
              <mxPoint x="402" y="1025" />
            </Array>
          </mxGeometry>
        </mxCell>
        <mxCell id="mwNprNj4Kku_8YDD3zbD-22" value="" style="curved=1;startArrow=none;endArrow=block;exitX=0.5;exitY=0.99;entryX=0.5;entryY=0.01;rounded=0;fontSize=12;startSize=8;endSize=8;" edge="1" parent="1" source="mwNprNj4Kku_8YDD3zbD-10" target="mwNprNj4Kku_8YDD3zbD-11">
          <mxGeometry relative="1" as="geometry">
            <Array as="points" />
          </mxGeometry>
        </mxCell>
        <mxCell id="mwNprNj4Kku_8YDD3zbD-23" value="" style="curved=1;startArrow=none;endArrow=block;exitX=0.5;exitY=1;entryX=0.23;entryY=0;rounded=0;fontSize=12;startSize=8;endSize=8;" edge="1" parent="1" source="mwNprNj4Kku_8YDD3zbD-11" target="mwNprNj4Kku_8YDD3zbD-12">
          <mxGeometry relative="1" as="geometry">
            <Array as="points">
              <mxPoint x="402" y="1270" />
            </Array>
          </mxGeometry>
        </mxCell>
        <mxCell id="mwNprNj4Kku_8YDD3zbD-24" value="" style="curved=1;startArrow=none;endArrow=block;exitX=0.77;exitY=0;entryX=1;entryY=0.66;rounded=0;fontSize=12;startSize=8;endSize=8;" edge="1" parent="1" source="mwNprNj4Kku_8YDD3zbD-12" target="mwNprNj4Kku_8YDD3zbD-6">
          <mxGeometry relative="1" as="geometry">
            <Array as="points">
              <mxPoint x="550" y="1270" />
              <mxPoint x="550" y="658" />
            </Array>
          </mxGeometry>
        </mxCell>
      </root>
    </mxGraphModel>
  </diagram>
  <diagram id="krTCIoff1hV7RiPIu78F" name="Page-12">
    <mxGraphModel dx="880" dy="518" grid="0" gridSize="10" guides="1" tooltips="1" connect="1" arrows="1" fold="1" page="0" pageScale="1" pageWidth="850" pageHeight="1100" math="0" shadow="0">
      <root>
        <mxCell id="0" />
        <mxCell id="1" parent="0" />
        <mxCell id="BvQX2QWZXp_0KsJJexDJ-1" value="Mulai" style="rounded=1;arcSize=40;strokeWidth=2" vertex="1" parent="1">
          <mxGeometry x="305" y="20" width="69" height="49" as="geometry" />
        </mxCell>
        <mxCell id="BvQX2QWZXp_0KsJJexDJ-2" value="Inisialisasi komunikasi Serial" style="rounded=1;arcSize=40;strokeWidth=2" vertex="1" parent="1">
          <mxGeometry x="246" y="119" width="187" height="67" as="geometry" />
        </mxCell>
        <mxCell id="BvQX2QWZXp_0KsJJexDJ-3" value="Inisialisasi sensor DHT" style="rounded=1;arcSize=40;strokeWidth=2" vertex="1" parent="1">
          <mxGeometry x="246" y="236" width="188" height="49" as="geometry" />
        </mxCell>
        <mxCell id="BvQX2QWZXp_0KsJJexDJ-4" value="Inisialisasi LCD" style="rounded=1;arcSize=40;strokeWidth=2" vertex="1" parent="1">
          <mxGeometry x="272" y="335" width="135" height="49" as="geometry" />
        </mxCell>
        <mxCell id="BvQX2QWZXp_0KsJJexDJ-5" value="Nyalakan backlight LCD" style="rounded=1;arcSize=40;strokeWidth=2" vertex="1" parent="1">
          <mxGeometry x="240" y="434" width="198" height="49" as="geometry" />
        </mxCell>
        <mxCell id="BvQX2QWZXp_0KsJJexDJ-6" value="Inisialisasi LED dan matikan LED awalnya" style="rounded=1;arcSize=40;strokeWidth=2" vertex="1" parent="1">
          <mxGeometry x="226" y="533" width="228" height="67" as="geometry" />
        </mxCell>
        <mxCell id="BvQX2QWZXp_0KsJJexDJ-7" value="Tampilkan Mengukur... di LCD" style="rounded=1;arcSize=40;strokeWidth=2" vertex="1" parent="1">
          <mxGeometry x="234" y="649" width="211" height="67" as="geometry" />
        </mxCell>
        <mxCell id="BvQX2QWZXp_0KsJJexDJ-8" value="Loop" style="rhombus;strokeWidth=2;whiteSpace=wrap;" vertex="1" parent="1">
          <mxGeometry x="298" y="766" width="83" height="83" as="geometry" />
        </mxCell>
        <mxCell id="BvQX2QWZXp_0KsJJexDJ-9" value="Baca kelembaban dan suhu dari sensor" style="rounded=1;arcSize=40;strokeWidth=2" vertex="1" parent="1">
          <mxGeometry x="153" y="899" width="224" height="67" as="geometry" />
        </mxCell>
        <mxCell id="BvQX2QWZXp_0KsJJexDJ-10" value="Apakah pembacaan berhasil?" style="rhombus;strokeWidth=2;whiteSpace=wrap;" vertex="1" parent="1">
          <mxGeometry x="162" y="1016" width="206" height="186" as="geometry" />
        </mxCell>
        <mxCell id="BvQX2QWZXp_0KsJJexDJ-11" value="Tampilkan Error membaca sensor DHT! &#xa;di LCD" style="rounded=1;arcSize=40;strokeWidth=2" vertex="1" parent="1">
          <mxGeometry x="20" y="1295" width="224" height="83" as="geometry" />
        </mxCell>
        <mxCell id="BvQX2QWZXp_0KsJJexDJ-12" value="Tampilkan kelembaban dan suhu &#xa;di Serial Monitor" style="rounded=1;arcSize=40;strokeWidth=2" vertex="1" parent="1">
          <mxGeometry x="288" y="1295" width="226" height="73" as="geometry" />
        </mxCell>
        <mxCell id="BvQX2QWZXp_0KsJJexDJ-13" value="Tampilkan kelembaban dan suhu di LCD" style="rounded=1;arcSize=40;strokeWidth=2" vertex="1" parent="1">
          <mxGeometry x="288" y="1412" width="226" height="67" as="geometry" />
        </mxCell>
        <mxCell id="BvQX2QWZXp_0KsJJexDJ-14" value="Apakah suhu &gt;= 25 derajat?" style="rhombus;strokeWidth=2;whiteSpace=wrap;" vertex="1" parent="1">
          <mxGeometry x="290" y="1528" width="223" height="223" as="geometry" />
        </mxCell>
        <mxCell id="BvQX2QWZXp_0KsJJexDJ-15" value="Nyalakan LED" style="rounded=1;arcSize=40;strokeWidth=2" vertex="1" parent="1">
          <mxGeometry x="252" y="1825" width="126" height="49" as="geometry" />
        </mxCell>
        <mxCell id="BvQX2QWZXp_0KsJJexDJ-16" value="Matikan LED" style="rounded=1;arcSize=40;strokeWidth=2" vertex="1" parent="1">
          <mxGeometry x="429" y="1825" width="118" height="49" as="geometry" />
        </mxCell>
        <mxCell id="BvQX2QWZXp_0KsJJexDJ-17" value="Tunggu 2 detik" style="rounded=1;arcSize=40;strokeWidth=2" vertex="1" parent="1">
          <mxGeometry x="408" y="1924" width="136" height="49" as="geometry" />
        </mxCell>
        <mxCell id="BvQX2QWZXp_0KsJJexDJ-18" value="" style="curved=1;startArrow=none;endArrow=block;exitX=0.5;exitY=1;entryX=0.5;entryY=0;rounded=0;fontSize=12;startSize=8;endSize=8;" edge="1" parent="1" source="BvQX2QWZXp_0KsJJexDJ-1" target="BvQX2QWZXp_0KsJJexDJ-2">
          <mxGeometry relative="1" as="geometry">
            <Array as="points" />
          </mxGeometry>
        </mxCell>
        <mxCell id="BvQX2QWZXp_0KsJJexDJ-19" value="" style="curved=1;startArrow=none;endArrow=block;exitX=0.5;exitY=0.99;entryX=0.5;entryY=-0.01;rounded=0;fontSize=12;startSize=8;endSize=8;" edge="1" parent="1" source="BvQX2QWZXp_0KsJJexDJ-2" target="BvQX2QWZXp_0KsJJexDJ-3">
          <mxGeometry relative="1" as="geometry">
            <Array as="points" />
          </mxGeometry>
        </mxCell>
        <mxCell id="BvQX2QWZXp_0KsJJexDJ-20" value="" style="curved=1;startArrow=none;endArrow=block;exitX=0.5;exitY=0.99;entryX=0.5;entryY=-0.01;rounded=0;fontSize=12;startSize=8;endSize=8;" edge="1" parent="1" source="BvQX2QWZXp_0KsJJexDJ-3" target="BvQX2QWZXp_0KsJJexDJ-4">
          <mxGeometry relative="1" as="geometry">
            <Array as="points" />
          </mxGeometry>
        </mxCell>
        <mxCell id="BvQX2QWZXp_0KsJJexDJ-21" value="" style="curved=1;startArrow=none;endArrow=block;exitX=0.5;exitY=0.99;entryX=0.5;entryY=-0.01;rounded=0;fontSize=12;startSize=8;endSize=8;" edge="1" parent="1" source="BvQX2QWZXp_0KsJJexDJ-4" target="BvQX2QWZXp_0KsJJexDJ-5">
          <mxGeometry relative="1" as="geometry">
            <Array as="points" />
          </mxGeometry>
        </mxCell>
        <mxCell id="BvQX2QWZXp_0KsJJexDJ-22" value="" style="curved=1;startArrow=none;endArrow=block;exitX=0.5;exitY=0.99;entryX=0.5;entryY=-0.01;rounded=0;fontSize=12;startSize=8;endSize=8;" edge="1" parent="1" source="BvQX2QWZXp_0KsJJexDJ-5" target="BvQX2QWZXp_0KsJJexDJ-6">
          <mxGeometry relative="1" as="geometry">
            <Array as="points" />
          </mxGeometry>
        </mxCell>
        <mxCell id="BvQX2QWZXp_0KsJJexDJ-23" value="" style="curved=1;startArrow=none;endArrow=block;exitX=0.5;exitY=0.99;entryX=0.5;entryY=0;rounded=0;fontSize=12;startSize=8;endSize=8;" edge="1" parent="1" source="BvQX2QWZXp_0KsJJexDJ-6" target="BvQX2QWZXp_0KsJJexDJ-7">
          <mxGeometry relative="1" as="geometry">
            <Array as="points" />
          </mxGeometry>
        </mxCell>
        <mxCell id="BvQX2QWZXp_0KsJJexDJ-24" value="" style="curved=1;startArrow=none;endArrow=block;exitX=0.5;exitY=1;entryX=0.5;entryY=0;rounded=0;fontSize=12;startSize=8;endSize=8;" edge="1" parent="1" source="BvQX2QWZXp_0KsJJexDJ-7" target="BvQX2QWZXp_0KsJJexDJ-8">
          <mxGeometry relative="1" as="geometry">
            <Array as="points" />
          </mxGeometry>
        </mxCell>
        <mxCell id="BvQX2QWZXp_0KsJJexDJ-25" value="" style="curved=1;startArrow=none;endArrow=block;exitX=0;exitY=0.95;entryX=0.5;entryY=0;rounded=0;fontSize=12;startSize=8;endSize=8;" edge="1" parent="1" source="BvQX2QWZXp_0KsJJexDJ-8" target="BvQX2QWZXp_0KsJJexDJ-9">
          <mxGeometry relative="1" as="geometry">
            <Array as="points">
              <mxPoint x="265" y="874" />
            </Array>
          </mxGeometry>
        </mxCell>
        <mxCell id="BvQX2QWZXp_0KsJJexDJ-26" value="" style="curved=1;startArrow=none;endArrow=block;exitX=0.5;exitY=1;entryX=0.5;entryY=0;rounded=0;fontSize=12;startSize=8;endSize=8;" edge="1" parent="1" source="BvQX2QWZXp_0KsJJexDJ-9" target="BvQX2QWZXp_0KsJJexDJ-10">
          <mxGeometry relative="1" as="geometry">
            <Array as="points" />
          </mxGeometry>
        </mxCell>
        <mxCell id="BvQX2QWZXp_0KsJJexDJ-27" value="Tidak" style="curved=1;startArrow=none;endArrow=block;exitX=0.01;exitY=1;entryX=0.5;entryY=0;rounded=0;fontSize=12;startSize=8;endSize=8;" edge="1" parent="1" source="BvQX2QWZXp_0KsJJexDJ-10" target="BvQX2QWZXp_0KsJJexDJ-11">
          <mxGeometry relative="1" as="geometry">
            <Array as="points">
              <mxPoint x="129" y="1259" />
            </Array>
          </mxGeometry>
        </mxCell>
        <mxCell id="BvQX2QWZXp_0KsJJexDJ-28" value="Ya" style="curved=1;startArrow=none;endArrow=block;exitX=0.99;exitY=1;entryX=0.5;entryY=0;rounded=0;fontSize=12;startSize=8;endSize=8;" edge="1" parent="1" source="BvQX2QWZXp_0KsJJexDJ-10" target="BvQX2QWZXp_0KsJJexDJ-12">
          <mxGeometry relative="1" as="geometry">
            <Array as="points">
              <mxPoint x="402" y="1259" />
            </Array>
          </mxGeometry>
        </mxCell>
        <mxCell id="BvQX2QWZXp_0KsJJexDJ-29" value="" style="curved=1;startArrow=none;endArrow=block;exitX=0.5;exitY=0.99;entryX=0.5;entryY=-0.01;rounded=0;fontSize=12;startSize=8;endSize=8;" edge="1" parent="1" source="BvQX2QWZXp_0KsJJexDJ-12" target="BvQX2QWZXp_0KsJJexDJ-13">
          <mxGeometry relative="1" as="geometry">
            <Array as="points" />
          </mxGeometry>
        </mxCell>
        <mxCell id="BvQX2QWZXp_0KsJJexDJ-30" value="" style="curved=1;startArrow=none;endArrow=block;exitX=0.5;exitY=0.99;entryX=0.5;entryY=0;rounded=0;fontSize=12;startSize=8;endSize=8;" edge="1" parent="1" source="BvQX2QWZXp_0KsJJexDJ-13" target="BvQX2QWZXp_0KsJJexDJ-14">
          <mxGeometry relative="1" as="geometry">
            <Array as="points" />
          </mxGeometry>
        </mxCell>
        <mxCell id="BvQX2QWZXp_0KsJJexDJ-31" value="Ya" style="curved=1;startArrow=none;endArrow=block;exitX=0.21;exitY=1;entryX=0.5;entryY=-0.01;rounded=0;fontSize=12;startSize=8;endSize=8;" edge="1" parent="1" source="BvQX2QWZXp_0KsJJexDJ-14" target="BvQX2QWZXp_0KsJJexDJ-15">
          <mxGeometry relative="1" as="geometry">
            <Array as="points">
              <mxPoint x="315" y="1788" />
            </Array>
          </mxGeometry>
        </mxCell>
        <mxCell id="BvQX2QWZXp_0KsJJexDJ-32" value="Tidak" style="curved=1;startArrow=none;endArrow=block;exitX=0.79;exitY=1;entryX=0.5;entryY=-0.01;rounded=0;fontSize=12;startSize=8;endSize=8;" edge="1" parent="1" source="BvQX2QWZXp_0KsJJexDJ-14" target="BvQX2QWZXp_0KsJJexDJ-16">
          <mxGeometry relative="1" as="geometry">
            <Array as="points">
              <mxPoint x="488" y="1788" />
            </Array>
          </mxGeometry>
        </mxCell>
        <mxCell id="BvQX2QWZXp_0KsJJexDJ-33" value="" style="curved=1;startArrow=none;endArrow=block;exitX=0.5;exitY=0.99;entryX=0;entryY=0.07;rounded=0;fontSize=12;startSize=8;endSize=8;" edge="1" parent="1" source="BvQX2QWZXp_0KsJJexDJ-15" target="BvQX2QWZXp_0KsJJexDJ-17">
          <mxGeometry relative="1" as="geometry">
            <Array as="points">
              <mxPoint x="315" y="1899" />
            </Array>
          </mxGeometry>
        </mxCell>
        <mxCell id="BvQX2QWZXp_0KsJJexDJ-34" value="" style="curved=1;startArrow=none;endArrow=block;exitX=0.5;exitY=0.99;entryX=0.54;entryY=-0.01;rounded=0;fontSize=12;startSize=8;endSize=8;" edge="1" parent="1" source="BvQX2QWZXp_0KsJJexDJ-16" target="BvQX2QWZXp_0KsJJexDJ-17">
          <mxGeometry relative="1" as="geometry">
            <Array as="points">
              <mxPoint x="488" y="1899" />
            </Array>
          </mxGeometry>
        </mxCell>
        <mxCell id="BvQX2QWZXp_0KsJJexDJ-35" value="" style="curved=1;startArrow=none;endArrow=block;exitX=0.98;exitY=-0.01;entryX=1;entryY=0.62;rounded=0;fontSize=12;startSize=8;endSize=8;" edge="1" parent="1" source="BvQX2QWZXp_0KsJJexDJ-17" target="BvQX2QWZXp_0KsJJexDJ-8">
          <mxGeometry relative="1" as="geometry">
            <Array as="points">
              <mxPoint x="609" y="1899" />
              <mxPoint x="609" y="874" />
            </Array>
          </mxGeometry>
        </mxCell>
      </root>
    </mxGraphModel>
  </diagram>
  <diagram id="z-SFTME4MkRiQJON8w-Y" name="Page-13">
    <mxGraphModel dx="880" dy="518" grid="0" gridSize="10" guides="1" tooltips="1" connect="1" arrows="1" fold="1" page="0" pageScale="1" pageWidth="850" pageHeight="1100" math="0" shadow="0">
      <root>
        <mxCell id="0" />
        <mxCell id="1" parent="0" />
        <mxCell id="C5TzkBe9I-Gxhq24bRpf-1" value="Mulai" style="rounded=1;arcSize=40;strokeWidth=2" vertex="1" parent="1">
          <mxGeometry x="625" y="20" width="69" height="49" as="geometry" />
        </mxCell>
        <mxCell id="C5TzkBe9I-Gxhq24bRpf-2" value="Inisialisasi komunikasi Serial, SPI, dan RFID" style="rounded=1;arcSize=40;strokeWidth=2" vertex="1" parent="1">
          <mxGeometry x="566" y="119" width="187" height="67" as="geometry" />
        </mxCell>
        <mxCell id="C5TzkBe9I-Gxhq24bRpf-3" value="Inisialisasi LCD dan LED" style="rounded=1;arcSize=40;strokeWidth=2" vertex="1" parent="1">
          <mxGeometry x="561" y="236" width="197" height="49" as="geometry" />
        </mxCell>
        <mxCell id="C5TzkBe9I-Gxhq24bRpf-4" value="Tampilkan Scan your card di LCD" style="rounded=1;arcSize=40;strokeWidth=2" vertex="1" parent="1">
          <mxGeometry x="552" y="335" width="214" height="67" as="geometry" />
        </mxCell>
        <mxCell id="C5TzkBe9I-Gxhq24bRpf-5" value="Loop" style="rhombus;strokeWidth=2;whiteSpace=wrap;" vertex="1" parent="1">
          <mxGeometry x="183" y="451" width="83" height="83" as="geometry" />
        </mxCell>
        <mxCell id="C5TzkBe9I-Gxhq24bRpf-6" value="Kembali ke awal loop" style="rounded=1;arcSize=40;strokeWidth=2" vertex="1" parent="1">
          <mxGeometry x="20" y="625" width="183" height="49" as="geometry" />
        </mxCell>
        <mxCell id="C5TzkBe9I-Gxhq24bRpf-7" value="Baca UID dari kartu" style="rounded=1;arcSize=40;strokeWidth=2" vertex="1" parent="1">
          <mxGeometry x="253" y="625" width="169" height="49" as="geometry" />
        </mxCell>
        <mxCell id="C5TzkBe9I-Gxhq24bRpf-8" value="Apakah UID cocok dengan UID yang diizinkan?" style="rhombus;strokeWidth=2;whiteSpace=wrap;" vertex="1" parent="1">
          <mxGeometry x="212" y="724" width="252" height="252" as="geometry" />
        </mxCell>
        <mxCell id="C5TzkBe9I-Gxhq24bRpf-9" value="Allow Access: Tampilkan Access: &#xa;ALLOW di LCD, Nyalakan LED" style="rounded=1;arcSize=40;strokeWidth=2" vertex="1" parent="1">
          <mxGeometry x="235" y="1132" width="204" height="84" as="geometry" />
        </mxCell>
        <mxCell id="C5TzkBe9I-Gxhq24bRpf-10" value="Tunggu 3 detik dan Matikan LED" style="rounded=1;arcSize=40;strokeWidth=2" vertex="1" parent="1">
          <mxGeometry x="304" y="1382" width="227" height="67" as="geometry" />
        </mxCell>
        <mxCell id="C5TzkBe9I-Gxhq24bRpf-11" value="Apakah UID cocok dengan UID yang ditolak?" style="rhombus;strokeWidth=2;whiteSpace=wrap;" vertex="1" parent="1">
          <mxGeometry x="533" y="1049" width="252" height="252" as="geometry" />
        </mxCell>
        <mxCell id="C5TzkBe9I-Gxhq24bRpf-12" value="Deny Access: Tampilkan Access: DENY di LCD, &#xa;Blink LED selama 3 detik" style="rounded=1;arcSize=40;strokeWidth=2" vertex="1" parent="1">
          <mxGeometry x="628" y="1373" width="265" height="120" as="geometry" />
        </mxCell>
        <mxCell id="C5TzkBe9I-Gxhq24bRpf-13" value="Deny Access: Tampilkan Access: DENY di LCD, &#xa;Blink LED selama 3 detik" style="rounded=1;arcSize=40;strokeWidth=2" vertex="1" parent="1">
          <mxGeometry x="942" y="1397" width="262" height="120" as="geometry" />
        </mxCell>
        <mxCell id="C5TzkBe9I-Gxhq24bRpf-14" value="" style="curved=1;startArrow=none;endArrow=block;exitX=0.49;exitY=1;entryX=0.5;entryY=0;rounded=0;fontSize=12;startSize=8;endSize=8;" edge="1" parent="1" source="C5TzkBe9I-Gxhq24bRpf-1" target="C5TzkBe9I-Gxhq24bRpf-2">
          <mxGeometry relative="1" as="geometry">
            <Array as="points" />
          </mxGeometry>
        </mxCell>
        <mxCell id="C5TzkBe9I-Gxhq24bRpf-15" value="" style="curved=1;startArrow=none;endArrow=block;exitX=0.5;exitY=0.99;entryX=0.5;entryY=-0.01;rounded=0;fontSize=12;startSize=8;endSize=8;" edge="1" parent="1" source="C5TzkBe9I-Gxhq24bRpf-2" target="C5TzkBe9I-Gxhq24bRpf-3">
          <mxGeometry relative="1" as="geometry">
            <Array as="points" />
          </mxGeometry>
        </mxCell>
        <mxCell id="C5TzkBe9I-Gxhq24bRpf-16" value="" style="curved=1;startArrow=none;endArrow=block;exitX=0.5;exitY=0.99;entryX=0.5;entryY=-0.01;rounded=0;fontSize=12;startSize=8;endSize=8;" edge="1" parent="1" source="C5TzkBe9I-Gxhq24bRpf-3" target="C5TzkBe9I-Gxhq24bRpf-4">
          <mxGeometry relative="1" as="geometry">
            <Array as="points" />
          </mxGeometry>
        </mxCell>
        <mxCell id="C5TzkBe9I-Gxhq24bRpf-17" value="" style="curved=1;startArrow=none;endArrow=block;exitX=0;exitY=0.7;entryX=0.5;entryY=0;rounded=0;fontSize=12;startSize=8;endSize=8;" edge="1" parent="1" source="C5TzkBe9I-Gxhq24bRpf-4" target="C5TzkBe9I-Gxhq24bRpf-5">
          <mxGeometry relative="1" as="geometry">
            <Array as="points">
              <mxPoint x="224" y="426" />
            </Array>
          </mxGeometry>
        </mxCell>
        <mxCell id="C5TzkBe9I-Gxhq24bRpf-18" value="Jika tidak ada kartu terdeteksi" style="curved=1;startArrow=none;endArrow=block;exitX=0;exitY=0.89;entryX=0.5;entryY=0;rounded=0;fontSize=12;startSize=8;endSize=8;" edge="1" parent="1" source="C5TzkBe9I-Gxhq24bRpf-5" target="C5TzkBe9I-Gxhq24bRpf-6">
          <mxGeometry relative="1" as="geometry">
            <Array as="points">
              <mxPoint x="111" y="580" />
            </Array>
          </mxGeometry>
        </mxCell>
        <mxCell id="C5TzkBe9I-Gxhq24bRpf-19" value="Jika kartu terbaca" style="curved=1;startArrow=none;endArrow=block;exitX=1;exitY=0.89;entryX=0.5;entryY=0;rounded=0;fontSize=12;startSize=8;endSize=8;" edge="1" parent="1" source="C5TzkBe9I-Gxhq24bRpf-5" target="C5TzkBe9I-Gxhq24bRpf-7">
          <mxGeometry relative="1" as="geometry">
            <Array as="points">
              <mxPoint x="337" y="580" />
            </Array>
          </mxGeometry>
        </mxCell>
        <mxCell id="C5TzkBe9I-Gxhq24bRpf-20" value="" style="curved=1;startArrow=none;endArrow=block;exitX=0.5;exitY=1;entryX=0.5;entryY=0;rounded=0;fontSize=12;startSize=8;endSize=8;" edge="1" parent="1" source="C5TzkBe9I-Gxhq24bRpf-7" target="C5TzkBe9I-Gxhq24bRpf-8">
          <mxGeometry relative="1" as="geometry">
            <Array as="points" />
          </mxGeometry>
        </mxCell>
        <mxCell id="C5TzkBe9I-Gxhq24bRpf-21" value="Ya" style="curved=1;startArrow=none;endArrow=block;exitX=0.5;exitY=1;entryX=0.5;entryY=0;rounded=0;fontSize=12;startSize=8;endSize=8;" edge="1" parent="1" source="C5TzkBe9I-Gxhq24bRpf-8" target="C5TzkBe9I-Gxhq24bRpf-9">
          <mxGeometry relative="1" as="geometry">
            <Array as="points" />
          </mxGeometry>
        </mxCell>
        <mxCell id="C5TzkBe9I-Gxhq24bRpf-22" value="" style="curved=1;startArrow=none;endArrow=block;exitX=0.5;exitY=1.01;entryX=0.35;entryY=0;rounded=0;fontSize=12;startSize=8;endSize=8;" edge="1" parent="1" source="C5TzkBe9I-Gxhq24bRpf-9" target="C5TzkBe9I-Gxhq24bRpf-10">
          <mxGeometry relative="1" as="geometry">
            <Array as="points">
              <mxPoint x="337" y="1337" />
            </Array>
          </mxGeometry>
        </mxCell>
        <mxCell id="C5TzkBe9I-Gxhq24bRpf-23" value="" style="curved=1;startArrow=none;endArrow=block;exitX=0.65;exitY=0;entryX=0.07;entryY=0.99;rounded=0;fontSize=12;startSize=8;endSize=8;" edge="1" parent="1" source="C5TzkBe9I-Gxhq24bRpf-10" target="C5TzkBe9I-Gxhq24bRpf-4">
          <mxGeometry relative="1" as="geometry">
            <Array as="points">
              <mxPoint x="498" y="1337" />
              <mxPoint x="498" y="426" />
            </Array>
          </mxGeometry>
        </mxCell>
        <mxCell id="C5TzkBe9I-Gxhq24bRpf-24" value="Tidak" style="curved=1;startArrow=none;endArrow=block;exitX=1;exitY=0.75;entryX=0.5;entryY=0;rounded=0;fontSize=12;startSize=8;endSize=8;" edge="1" parent="1" source="C5TzkBe9I-Gxhq24bRpf-8" target="C5TzkBe9I-Gxhq24bRpf-11">
          <mxGeometry relative="1" as="geometry">
            <Array as="points">
              <mxPoint x="659" y="1012" />
            </Array>
          </mxGeometry>
        </mxCell>
        <mxCell id="C5TzkBe9I-Gxhq24bRpf-25" value="Ya" style="curved=1;startArrow=none;endArrow=block;exitX=0.5;exitY=1;entryX=0.31;entryY=0;rounded=0;fontSize=12;startSize=8;endSize=8;" edge="1" parent="1" source="C5TzkBe9I-Gxhq24bRpf-11" target="C5TzkBe9I-Gxhq24bRpf-12">
          <mxGeometry relative="1" as="geometry">
            <Array as="points">
              <mxPoint x="659" y="1337" />
            </Array>
          </mxGeometry>
        </mxCell>
        <mxCell id="C5TzkBe9I-Gxhq24bRpf-26" value="" style="curved=1;startArrow=none;endArrow=block;exitX=0.78;exitY=0;entryX=1;entryY=0.97;rounded=0;fontSize=12;startSize=8;endSize=8;" edge="1" parent="1" source="C5TzkBe9I-Gxhq24bRpf-12" target="C5TzkBe9I-Gxhq24bRpf-4">
          <mxGeometry relative="1" as="geometry">
            <Array as="points">
              <mxPoint x="855" y="1337" />
              <mxPoint x="855" y="426" />
            </Array>
          </mxGeometry>
        </mxCell>
        <mxCell id="C5TzkBe9I-Gxhq24bRpf-27" value="Tidak" style="curved=1;startArrow=none;endArrow=block;exitX=1;exitY=0.84;entryX=0.22;entryY=0;rounded=0;fontSize=12;startSize=8;endSize=8;" edge="1" parent="1" source="C5TzkBe9I-Gxhq24bRpf-11" target="C5TzkBe9I-Gxhq24bRpf-13">
          <mxGeometry relative="1" as="geometry">
            <Array as="points">
              <mxPoint x="897" y="1337" />
            </Array>
          </mxGeometry>
        </mxCell>
        <mxCell id="C5TzkBe9I-Gxhq24bRpf-28" value="" style="curved=1;startArrow=none;endArrow=block;exitX=0.55;exitY=0;entryX=1;entryY=0.74;rounded=0;fontSize=12;startSize=8;endSize=8;" edge="1" parent="1" source="C5TzkBe9I-Gxhq24bRpf-13" target="C5TzkBe9I-Gxhq24bRpf-4">
          <mxGeometry relative="1" as="geometry">
            <Array as="points">
              <mxPoint x="1034" y="1337" />
              <mxPoint x="1034" y="426" />
            </Array>
          </mxGeometry>
        </mxCell>
      </root>
    </mxGraphModel>
  </diagram>
  <diagram id="lg1PIFtlVHrsOIhVVwUR" name="Page-14">
    <mxGraphModel dx="880" dy="518" grid="0" gridSize="10" guides="1" tooltips="1" connect="1" arrows="1" fold="1" page="0" pageScale="1" pageWidth="850" pageHeight="1100" math="0" shadow="0">
      <root>
        <mxCell id="0" />
        <mxCell id="1" parent="0" />
        <mxCell id="DcAXCDFDpUTYfhAA14c9-1" value="Mulai" style="rounded=1;arcSize=40;strokeWidth=2" vertex="1" parent="1">
          <mxGeometry x="625" y="20" width="69" height="49" as="geometry" />
        </mxCell>
        <mxCell id="DcAXCDFDpUTYfhAA14c9-2" value="Inisialisasi Serial, SPI, dan RFID" style="rounded=1;arcSize=40;strokeWidth=2" vertex="1" parent="1">
          <mxGeometry x="551" y="119" width="216" height="67" as="geometry" />
        </mxCell>
        <mxCell id="DcAXCDFDpUTYfhAA14c9-3" value="Inisialisasi LCD dan LED" style="rounded=1;arcSize=40;strokeWidth=2" vertex="1" parent="1">
          <mxGeometry x="561" y="236" width="197" height="49" as="geometry" />
        </mxCell>
        <mxCell id="DcAXCDFDpUTYfhAA14c9-4" value="Tampilkan Scan your card di LCD" style="rounded=1;arcSize=40;strokeWidth=2" vertex="1" parent="1">
          <mxGeometry x="552" y="335" width="214" height="67" as="geometry" />
        </mxCell>
        <mxCell id="DcAXCDFDpUTYfhAA14c9-5" value="Loop" style="rhombus;strokeWidth=2;whiteSpace=wrap;" vertex="1" parent="1">
          <mxGeometry x="183" y="451" width="83" height="83" as="geometry" />
        </mxCell>
        <mxCell id="DcAXCDFDpUTYfhAA14c9-6" value="Kembali ke awal loop" style="rounded=1;arcSize=40;strokeWidth=2" vertex="1" parent="1">
          <mxGeometry x="20" y="625" width="183" height="49" as="geometry" />
        </mxCell>
        <mxCell id="DcAXCDFDpUTYfhAA14c9-7" value="Baca UID dari kartu" style="rounded=1;arcSize=40;strokeWidth=2" vertex="1" parent="1">
          <mxGeometry x="253" y="625" width="169" height="49" as="geometry" />
        </mxCell>
        <mxCell id="DcAXCDFDpUTYfhAA14c9-8" value="Tampilkan UID di Serial Monitor" style="rounded=1;arcSize=40;strokeWidth=2" vertex="1" parent="1">
          <mxGeometry x="239" y="724" width="197" height="67" as="geometry" />
        </mxCell>
        <mxCell id="DcAXCDFDpUTYfhAA14c9-9" value="Apakah UID cocok dengan UID yang diizinkan?" style="rhombus;strokeWidth=2;whiteSpace=wrap;" vertex="1" parent="1">
          <mxGeometry x="212" y="841" width="252" height="252" as="geometry" />
        </mxCell>
        <mxCell id="DcAXCDFDpUTYfhAA14c9-10" value="Allow Access: Tampilkan Access: &#xa;ALLOW di LCD, Nyalakan LED" style="rounded=1;arcSize=40;strokeWidth=2" vertex="1" parent="1">
          <mxGeometry x="235" y="1249" width="204" height="84" as="geometry" />
        </mxCell>
        <mxCell id="DcAXCDFDpUTYfhAA14c9-11" value="Tunggu 3 detik dan Matikan LED" style="rounded=1;arcSize=40;strokeWidth=2" vertex="1" parent="1">
          <mxGeometry x="304" y="1499" width="227" height="67" as="geometry" />
        </mxCell>
        <mxCell id="DcAXCDFDpUTYfhAA14c9-12" value="Apakah UID cocok dengan UID yang ditolak?" style="rhombus;strokeWidth=2;whiteSpace=wrap;" vertex="1" parent="1">
          <mxGeometry x="533" y="1165" width="252" height="252" as="geometry" />
        </mxCell>
        <mxCell id="DcAXCDFDpUTYfhAA14c9-13" value="Deny Access: Tampilkan Access: &#xa;DENY di LCD, Blink LED selama 3 detik" style="rounded=1;arcSize=40;strokeWidth=2" vertex="1" parent="1">
          <mxGeometry x="628" y="1490" width="223" height="84" as="geometry" />
        </mxCell>
        <mxCell id="DcAXCDFDpUTYfhAA14c9-14" value="Deny Access: Tampilkan Access: &#xa;DENY di LCD, Blink LED selama 3 detik" style="rounded=1;arcSize=40;strokeWidth=2" vertex="1" parent="1">
          <mxGeometry x="901" y="1490" width="223" height="84" as="geometry" />
        </mxCell>
        <mxCell id="DcAXCDFDpUTYfhAA14c9-15" value="" style="curved=1;startArrow=none;endArrow=block;exitX=0.49;exitY=1;entryX=0.5;entryY=0;rounded=0;fontSize=12;startSize=8;endSize=8;" edge="1" parent="1" source="DcAXCDFDpUTYfhAA14c9-1" target="DcAXCDFDpUTYfhAA14c9-2">
          <mxGeometry relative="1" as="geometry">
            <Array as="points" />
          </mxGeometry>
        </mxCell>
        <mxCell id="DcAXCDFDpUTYfhAA14c9-16" value="" style="curved=1;startArrow=none;endArrow=block;exitX=0.5;exitY=0.99;entryX=0.5;entryY=-0.01;rounded=0;fontSize=12;startSize=8;endSize=8;" edge="1" parent="1" source="DcAXCDFDpUTYfhAA14c9-2" target="DcAXCDFDpUTYfhAA14c9-3">
          <mxGeometry relative="1" as="geometry">
            <Array as="points" />
          </mxGeometry>
        </mxCell>
        <mxCell id="DcAXCDFDpUTYfhAA14c9-17" value="" style="curved=1;startArrow=none;endArrow=block;exitX=0.5;exitY=0.99;entryX=0.5;entryY=-0.01;rounded=0;fontSize=12;startSize=8;endSize=8;" edge="1" parent="1" source="DcAXCDFDpUTYfhAA14c9-3" target="DcAXCDFDpUTYfhAA14c9-4">
          <mxGeometry relative="1" as="geometry">
            <Array as="points" />
          </mxGeometry>
        </mxCell>
        <mxCell id="DcAXCDFDpUTYfhAA14c9-18" value="" style="curved=1;startArrow=none;endArrow=block;exitX=0;exitY=0.7;entryX=0.5;entryY=0;rounded=0;fontSize=12;startSize=8;endSize=8;" edge="1" parent="1" source="DcAXCDFDpUTYfhAA14c9-4" target="DcAXCDFDpUTYfhAA14c9-5">
          <mxGeometry relative="1" as="geometry">
            <Array as="points">
              <mxPoint x="224" y="426" />
            </Array>
          </mxGeometry>
        </mxCell>
        <mxCell id="DcAXCDFDpUTYfhAA14c9-19" value="Jika tidak ada kartu terdeteksi" style="curved=1;startArrow=none;endArrow=block;exitX=0;exitY=0.89;entryX=0.5;entryY=0;rounded=0;fontSize=12;startSize=8;endSize=8;" edge="1" parent="1" source="DcAXCDFDpUTYfhAA14c9-5" target="DcAXCDFDpUTYfhAA14c9-6">
          <mxGeometry relative="1" as="geometry">
            <Array as="points">
              <mxPoint x="111" y="580" />
            </Array>
          </mxGeometry>
        </mxCell>
        <mxCell id="DcAXCDFDpUTYfhAA14c9-20" value="Jika kartu terbaca" style="curved=1;startArrow=none;endArrow=block;exitX=1;exitY=0.89;entryX=0.5;entryY=0;rounded=0;fontSize=12;startSize=8;endSize=8;" edge="1" parent="1" source="DcAXCDFDpUTYfhAA14c9-5" target="DcAXCDFDpUTYfhAA14c9-7">
          <mxGeometry relative="1" as="geometry">
            <Array as="points">
              <mxPoint x="337" y="580" />
            </Array>
          </mxGeometry>
        </mxCell>
        <mxCell id="DcAXCDFDpUTYfhAA14c9-21" value="" style="curved=1;startArrow=none;endArrow=block;exitX=0.5;exitY=1;entryX=0.5;entryY=0;rounded=0;fontSize=12;startSize=8;endSize=8;" edge="1" parent="1" source="DcAXCDFDpUTYfhAA14c9-7" target="DcAXCDFDpUTYfhAA14c9-8">
          <mxGeometry relative="1" as="geometry">
            <Array as="points" />
          </mxGeometry>
        </mxCell>
        <mxCell id="DcAXCDFDpUTYfhAA14c9-22" value="" style="curved=1;startArrow=none;endArrow=block;exitX=0.5;exitY=1;entryX=0.5;entryY=0;rounded=0;fontSize=12;startSize=8;endSize=8;" edge="1" parent="1" source="DcAXCDFDpUTYfhAA14c9-8" target="DcAXCDFDpUTYfhAA14c9-9">
          <mxGeometry relative="1" as="geometry">
            <Array as="points" />
          </mxGeometry>
        </mxCell>
        <mxCell id="DcAXCDFDpUTYfhAA14c9-23" value="Ya" style="curved=1;startArrow=none;endArrow=block;exitX=0.5;exitY=1;entryX=0.5;entryY=0;rounded=0;fontSize=12;startSize=8;endSize=8;" edge="1" parent="1" source="DcAXCDFDpUTYfhAA14c9-9" target="DcAXCDFDpUTYfhAA14c9-10">
          <mxGeometry relative="1" as="geometry">
            <Array as="points" />
          </mxGeometry>
        </mxCell>
        <mxCell id="DcAXCDFDpUTYfhAA14c9-24" value="" style="curved=1;startArrow=none;endArrow=block;exitX=0.5;exitY=1;entryX=0.35;entryY=0;rounded=0;fontSize=12;startSize=8;endSize=8;" edge="1" parent="1" source="DcAXCDFDpUTYfhAA14c9-10" target="DcAXCDFDpUTYfhAA14c9-11">
          <mxGeometry relative="1" as="geometry">
            <Array as="points">
              <mxPoint x="337" y="1453" />
            </Array>
          </mxGeometry>
        </mxCell>
        <mxCell id="DcAXCDFDpUTYfhAA14c9-25" value="" style="curved=1;startArrow=none;endArrow=block;exitX=0.65;exitY=0;entryX=0.07;entryY=0.99;rounded=0;fontSize=12;startSize=8;endSize=8;" edge="1" parent="1" source="DcAXCDFDpUTYfhAA14c9-11" target="DcAXCDFDpUTYfhAA14c9-4">
          <mxGeometry relative="1" as="geometry">
            <Array as="points">
              <mxPoint x="498" y="1453" />
              <mxPoint x="498" y="426" />
            </Array>
          </mxGeometry>
        </mxCell>
        <mxCell id="DcAXCDFDpUTYfhAA14c9-26" value="Tidak" style="curved=1;startArrow=none;endArrow=block;exitX=1;exitY=0.75;entryX=0.5;entryY=0;rounded=0;fontSize=12;startSize=8;endSize=8;" edge="1" parent="1" source="DcAXCDFDpUTYfhAA14c9-9" target="DcAXCDFDpUTYfhAA14c9-12">
          <mxGeometry relative="1" as="geometry">
            <Array as="points">
              <mxPoint x="659" y="1129" />
            </Array>
          </mxGeometry>
        </mxCell>
        <mxCell id="DcAXCDFDpUTYfhAA14c9-27" value="Ya" style="curved=1;startArrow=none;endArrow=block;exitX=0.5;exitY=1;entryX=0.31;entryY=0;rounded=0;fontSize=12;startSize=8;endSize=8;" edge="1" parent="1" source="DcAXCDFDpUTYfhAA14c9-12" target="DcAXCDFDpUTYfhAA14c9-13">
          <mxGeometry relative="1" as="geometry">
            <Array as="points">
              <mxPoint x="659" y="1453" />
            </Array>
          </mxGeometry>
        </mxCell>
        <mxCell id="DcAXCDFDpUTYfhAA14c9-28" value="" style="curved=1;startArrow=none;endArrow=block;exitX=0.78;exitY=0;entryX=1;entryY=0.97;rounded=0;fontSize=12;startSize=8;endSize=8;" edge="1" parent="1" source="DcAXCDFDpUTYfhAA14c9-13" target="DcAXCDFDpUTYfhAA14c9-4">
          <mxGeometry relative="1" as="geometry">
            <Array as="points">
              <mxPoint x="855" y="1453" />
              <mxPoint x="855" y="426" />
            </Array>
          </mxGeometry>
        </mxCell>
        <mxCell id="DcAXCDFDpUTYfhAA14c9-29" value="Tidak" style="curved=1;startArrow=none;endArrow=block;exitX=1;exitY=0.84;entryX=0.22;entryY=0;rounded=0;fontSize=12;startSize=8;endSize=8;" edge="1" parent="1" source="DcAXCDFDpUTYfhAA14c9-12" target="DcAXCDFDpUTYfhAA14c9-14">
          <mxGeometry relative="1" as="geometry">
            <Array as="points">
              <mxPoint x="897" y="1453" />
            </Array>
          </mxGeometry>
        </mxCell>
        <mxCell id="DcAXCDFDpUTYfhAA14c9-30" value="" style="curved=1;startArrow=none;endArrow=block;exitX=0.55;exitY=0;entryX=1;entryY=0.74;rounded=0;fontSize=12;startSize=8;endSize=8;" edge="1" parent="1" source="DcAXCDFDpUTYfhAA14c9-14" target="DcAXCDFDpUTYfhAA14c9-4">
          <mxGeometry relative="1" as="geometry">
            <Array as="points">
              <mxPoint x="1034" y="1453" />
              <mxPoint x="1034" y="426" />
            </Array>
          </mxGeometry>
        </mxCell>
      </root>
    </mxGraphModel>
  </diagram>
  <diagram id="0ByARN5YtY8OpzvI_RbW" name="Page-15">
    <mxGraphModel dx="880" dy="468" grid="1" gridSize="10" guides="1" tooltips="1" connect="1" arrows="1" fold="1" page="1" pageScale="1" pageWidth="850" pageHeight="1100" math="0" shadow="0">
      <root>
        <mxCell id="0" />
        <mxCell id="1" parent="0" />
        <mxCell id="DYXAvwkyTc3LsryRMX8y-1" value="Mulai Program" style="whiteSpace=wrap;strokeWidth=2;" vertex="1" parent="1">
          <mxGeometry x="139" y="20" width="163" height="49" as="geometry" />
        </mxCell>
        <mxCell id="DYXAvwkyTc3LsryRMX8y-2" value="Inisialisasi Serial" style="whiteSpace=wrap;strokeWidth=2;" vertex="1" parent="1">
          <mxGeometry x="132" y="119" width="178" height="49" as="geometry" />
        </mxCell>
        <mxCell id="DYXAvwkyTc3LsryRMX8y-3" value="Hubungkan ke WiFi" style="whiteSpace=wrap;strokeWidth=2;" vertex="1" parent="1">
          <mxGeometry x="123" y="218" width="196" height="49" as="geometry" />
        </mxCell>
        <mxCell id="DYXAvwkyTc3LsryRMX8y-4" value="WiFi Terhubung?" style="rhombus;strokeWidth=2;whiteSpace=wrap;" vertex="1" parent="1">
          <mxGeometry x="138" y="317" width="166" height="166" as="geometry" />
        </mxCell>
        <mxCell id="DYXAvwkyTc3LsryRMX8y-5" value="Menunggu Koneksi" style="whiteSpace=wrap;strokeWidth=2;" vertex="1" parent="1">
          <mxGeometry x="20" y="556" width="191" height="49" as="geometry" />
        </mxCell>
        <mxCell id="DYXAvwkyTc3LsryRMX8y-6" value="Mulai Server HTTP" style="whiteSpace=wrap;strokeWidth=2;" vertex="1" parent="1">
          <mxGeometry x="261" y="556" width="192" height="49" as="geometry" />
        </mxCell>
        <mxCell id="DYXAvwkyTc3LsryRMX8y-7" value="Loop Utama" style="whiteSpace=wrap;strokeWidth=2;" vertex="1" parent="1">
          <mxGeometry x="284" y="655" width="146" height="49" as="geometry" />
        </mxCell>
        <mxCell id="DYXAvwkyTc3LsryRMX8y-8" value="Ada Klien?" style="rhombus;strokeWidth=2;whiteSpace=wrap;" vertex="1" parent="1">
          <mxGeometry x="197" y="777" width="124" height="124" as="geometry" />
        </mxCell>
        <mxCell id="DYXAvwkyTc3LsryRMX8y-9" value="Kirim Halaman HTML" style="whiteSpace=wrap;strokeWidth=2;" vertex="1" parent="1">
          <mxGeometry x="154" y="973" width="210" height="49" as="geometry" />
        </mxCell>
        <mxCell id="DYXAvwkyTc3LsryRMX8y-10" value="Putuskan Koneksi Klien" style="whiteSpace=wrap;strokeWidth=2;" vertex="1" parent="1">
          <mxGeometry x="266" y="1072" width="224" height="49" as="geometry" />
        </mxCell>
        <mxCell id="DYXAvwkyTc3LsryRMX8y-11" value="" style="curved=1;startArrow=none;endArrow=block;exitX=0.5;exitY=1;entryX=0.5;entryY=0;rounded=0;" edge="1" parent="1" source="DYXAvwkyTc3LsryRMX8y-1" target="DYXAvwkyTc3LsryRMX8y-2">
          <mxGeometry relative="1" as="geometry">
            <Array as="points" />
          </mxGeometry>
        </mxCell>
        <mxCell id="DYXAvwkyTc3LsryRMX8y-12" value="" style="curved=1;startArrow=none;endArrow=block;exitX=0.5;exitY=1;entryX=0.5;entryY=0;rounded=0;" edge="1" parent="1" source="DYXAvwkyTc3LsryRMX8y-2" target="DYXAvwkyTc3LsryRMX8y-3">
          <mxGeometry relative="1" as="geometry">
            <Array as="points" />
          </mxGeometry>
        </mxCell>
        <mxCell id="DYXAvwkyTc3LsryRMX8y-13" value="" style="curved=1;startArrow=none;endArrow=block;exitX=0.5;exitY=1;entryX=0.5;entryY=0;rounded=0;" edge="1" parent="1" source="DYXAvwkyTc3LsryRMX8y-3" target="DYXAvwkyTc3LsryRMX8y-4">
          <mxGeometry relative="1" as="geometry">
            <Array as="points" />
          </mxGeometry>
        </mxCell>
        <mxCell id="DYXAvwkyTc3LsryRMX8y-14" value="Tidak" style="curved=1;startArrow=none;endArrow=block;exitX=0.06;exitY=1;entryX=0.5;entryY=-0.01;rounded=0;" edge="1" parent="1" source="DYXAvwkyTc3LsryRMX8y-4" target="DYXAvwkyTc3LsryRMX8y-5">
          <mxGeometry relative="1" as="geometry">
            <Array as="points">
              <mxPoint x="115" y="519" />
            </Array>
          </mxGeometry>
        </mxCell>
        <mxCell id="DYXAvwkyTc3LsryRMX8y-15" value="" style="curved=1;startArrow=none;endArrow=block;exitX=0.77;exitY=-0.01;entryX=0.59;entryY=1;rounded=0;" edge="1" parent="1" source="DYXAvwkyTc3LsryRMX8y-5" target="DYXAvwkyTc3LsryRMX8y-4">
          <mxGeometry relative="1" as="geometry">
            <Array as="points">
              <mxPoint x="242" y="519" />
            </Array>
          </mxGeometry>
        </mxCell>
        <mxCell id="DYXAvwkyTc3LsryRMX8y-16" value="Ya" style="curved=1;startArrow=none;endArrow=block;exitX=1;exitY=0.94;entryX=0.5;entryY=-0.01;rounded=0;" edge="1" parent="1" source="DYXAvwkyTc3LsryRMX8y-4" target="DYXAvwkyTc3LsryRMX8y-6">
          <mxGeometry relative="1" as="geometry">
            <Array as="points">
              <mxPoint x="357" y="519" />
            </Array>
          </mxGeometry>
        </mxCell>
        <mxCell id="DYXAvwkyTc3LsryRMX8y-17" value="" style="curved=1;startArrow=none;endArrow=block;exitX=0.5;exitY=0.99;entryX=0.5;entryY=-0.01;rounded=0;" edge="1" parent="1" source="DYXAvwkyTc3LsryRMX8y-6" target="DYXAvwkyTc3LsryRMX8y-7">
          <mxGeometry relative="1" as="geometry">
            <Array as="points" />
          </mxGeometry>
        </mxCell>
        <mxCell id="DYXAvwkyTc3LsryRMX8y-18" value="" style="curved=1;startArrow=none;endArrow=block;exitX=0.17;exitY=0.99;entryX=0.39;entryY=0;rounded=0;" edge="1" parent="1" source="DYXAvwkyTc3LsryRMX8y-7" target="DYXAvwkyTc3LsryRMX8y-8">
          <mxGeometry relative="1" as="geometry">
            <Array as="points">
              <mxPoint x="238" y="740" />
            </Array>
          </mxGeometry>
        </mxCell>
        <mxCell id="DYXAvwkyTc3LsryRMX8y-19" value="Tidak" style="curved=1;startArrow=none;endArrow=block;exitX=0.75;exitY=0;entryX=0.36;entryY=0.99;rounded=0;" edge="1" parent="1" source="DYXAvwkyTc3LsryRMX8y-8" target="DYXAvwkyTc3LsryRMX8y-7">
          <mxGeometry relative="1" as="geometry">
            <Array as="points">
              <mxPoint x="308" y="740" />
            </Array>
          </mxGeometry>
        </mxCell>
        <mxCell id="DYXAvwkyTc3LsryRMX8y-20" value="Ya" style="curved=1;startArrow=none;endArrow=block;exitX=0.5;exitY=0.99;entryX=0.5;entryY=0;rounded=0;" edge="1" parent="1" source="DYXAvwkyTc3LsryRMX8y-8" target="DYXAvwkyTc3LsryRMX8y-9">
          <mxGeometry relative="1" as="geometry">
            <Array as="points" />
          </mxGeometry>
        </mxCell>
        <mxCell id="DYXAvwkyTc3LsryRMX8y-21" value="" style="curved=1;startArrow=none;endArrow=block;exitX=0.5;exitY=1;entryX=0.24;entryY=0;rounded=0;" edge="1" parent="1" source="DYXAvwkyTc3LsryRMX8y-9" target="DYXAvwkyTc3LsryRMX8y-10">
          <mxGeometry relative="1" as="geometry">
            <Array as="points">
              <mxPoint x="259" y="1047" />
            </Array>
          </mxGeometry>
        </mxCell>
        <mxCell id="DYXAvwkyTc3LsryRMX8y-22" value="" style="curved=1;startArrow=none;endArrow=block;exitX=0.55;exitY=0;entryX=0.61;entryY=0.99;rounded=0;" edge="1" parent="1" source="DYXAvwkyTc3LsryRMX8y-10" target="DYXAvwkyTc3LsryRMX8y-7">
          <mxGeometry relative="1" as="geometry">
            <Array as="points">
              <mxPoint x="399" y="1047" />
              <mxPoint x="399" y="740" />
            </Array>
          </mxGeometry>
        </mxCell>
      </root>
    </mxGraphModel>
  </diagram>
  <diagram id="vht52ENI5hP9emdtnEzf" name="Page-16">
    <mxGraphModel dx="1730" dy="1568" grid="1" gridSize="10" guides="1" tooltips="1" connect="1" arrows="1" fold="1" page="1" pageScale="1" pageWidth="850" pageHeight="1100" math="0" shadow="0">
      <root>
        <mxCell id="0" />
        <mxCell id="1" parent="0" />
        <mxCell id="oDZCgxr22LB6qeapUHRo-1" value="Mulai Program" style="whiteSpace=wrap;strokeWidth=2;" vertex="1" parent="1">
          <mxGeometry x="85" y="-10" width="163" height="49" as="geometry" />
        </mxCell>
        <mxCell id="oDZCgxr22LB6qeapUHRo-2" value="Inisialisasi Serial 9600 baud" style="whiteSpace=wrap;strokeWidth=2;" vertex="1" parent="1">
          <mxGeometry x="39" y="89" width="256" height="49" as="geometry" />
        </mxCell>
        <mxCell id="oDZCgxr22LB6qeapUHRo-3" value="Atur Mode WiFi ke WIFI_STA" style="whiteSpace=wrap;strokeWidth=2;" vertex="1" parent="1">
          <mxGeometry x="36" y="188" width="261" height="49" as="geometry" />
        </mxCell>
        <mxCell id="oDZCgxr22LB6qeapUHRo-4" value="Inisialisasi ESP-NOW Berhasil" style="rhombus;strokeWidth=2;whiteSpace=wrap;" vertex="1" parent="1">
          <mxGeometry x="62" y="287" width="210" height="210" as="geometry" />
        </mxCell>
        <mxCell id="oDZCgxr22LB6qeapUHRo-5" value="Cetak Gagal menginisialisasi ESP-NOW" style="whiteSpace=wrap;strokeWidth=2;" vertex="1" parent="1">
          <mxGeometry x="-30" y="570" width="242" height="67" as="geometry" />
        </mxCell>
        <mxCell id="oDZCgxr22LB6qeapUHRo-6" value="Selesai" style="whiteSpace=wrap;strokeWidth=2;" vertex="1" parent="1">
          <mxGeometry x="36" y="686" width="109" height="49" as="geometry" />
        </mxCell>
        <mxCell id="oDZCgxr22LB6qeapUHRo-7" value="Registrasi Callback Penerimaan Data" style="whiteSpace=wrap;strokeWidth=2;" vertex="1" parent="1">
          <mxGeometry x="262" y="570" width="195" height="67" as="geometry" />
        </mxCell>
        <mxCell id="oDZCgxr22LB6qeapUHRo-8" value="Menunggu Data" style="whiteSpace=wrap;strokeWidth=2;" vertex="1" parent="1">
          <mxGeometry x="274" y="686" width="170" height="49" as="geometry" />
        </mxCell>
        <mxCell id="oDZCgxr22LB6qeapUHRo-9" value="Data Diterima" style="rhombus;strokeWidth=2;whiteSpace=wrap;" vertex="1" parent="1">
          <mxGeometry x="167" y="808" width="149" height="149" as="geometry" />
        </mxCell>
        <mxCell id="oDZCgxr22LB6qeapUHRo-10" value="Panggil Fungsi onDataRecv" style="whiteSpace=wrap;strokeWidth=2;" vertex="1" parent="1">
          <mxGeometry x="117" y="1031" width="250" height="49" as="geometry" />
        </mxCell>
        <mxCell id="oDZCgxr22LB6qeapUHRo-11" value="Tampilkan Alamat MAC" style="whiteSpace=wrap;strokeWidth=2;" vertex="1" parent="1">
          <mxGeometry x="130" y="1130" width="224" height="49" as="geometry" />
        </mxCell>
        <mxCell id="oDZCgxr22LB6qeapUHRo-12" value="Salin Data ke Buffer" style="whiteSpace=wrap;strokeWidth=2;" vertex="1" parent="1">
          <mxGeometry x="140" y="1229" width="204" height="49" as="geometry" />
        </mxCell>
        <mxCell id="oDZCgxr22LB6qeapUHRo-13" value="Tampilkan Pesan" style="whiteSpace=wrap;strokeWidth=2;" vertex="1" parent="1">
          <mxGeometry x="291" y="1328" width="179" height="49" as="geometry" />
        </mxCell>
        <mxCell id="oDZCgxr22LB6qeapUHRo-14" value="" style="curved=1;startArrow=none;endArrow=block;exitX=0.5;exitY=1;entryX=0.5;entryY=0;rounded=0;" edge="1" parent="1" source="oDZCgxr22LB6qeapUHRo-1" target="oDZCgxr22LB6qeapUHRo-2">
          <mxGeometry relative="1" as="geometry">
            <Array as="points" />
          </mxGeometry>
        </mxCell>
        <mxCell id="oDZCgxr22LB6qeapUHRo-15" value="" style="curved=1;startArrow=none;endArrow=block;exitX=0.5;exitY=1;entryX=0.5;entryY=0;rounded=0;" edge="1" parent="1" source="oDZCgxr22LB6qeapUHRo-2" target="oDZCgxr22LB6qeapUHRo-3">
          <mxGeometry relative="1" as="geometry">
            <Array as="points" />
          </mxGeometry>
        </mxCell>
        <mxCell id="oDZCgxr22LB6qeapUHRo-16" value="" style="curved=1;startArrow=none;endArrow=block;exitX=0.5;exitY=1;entryX=0.5;entryY=0;rounded=0;" edge="1" parent="1" source="oDZCgxr22LB6qeapUHRo-3" target="oDZCgxr22LB6qeapUHRo-4">
          <mxGeometry relative="1" as="geometry">
            <Array as="points" />
          </mxGeometry>
        </mxCell>
        <mxCell id="oDZCgxr22LB6qeapUHRo-17" value="Tidak" style="curved=1;startArrow=none;endArrow=block;exitX=0.23;exitY=1;entryX=0.5;entryY=0;rounded=0;" edge="1" parent="1" source="oDZCgxr22LB6qeapUHRo-4" target="oDZCgxr22LB6qeapUHRo-5">
          <mxGeometry relative="1" as="geometry">
            <Array as="points">
              <mxPoint x="91" y="533" />
            </Array>
          </mxGeometry>
        </mxCell>
        <mxCell id="oDZCgxr22LB6qeapUHRo-18" value="" style="curved=1;startArrow=none;endArrow=block;exitX=0.5;exitY=0.99;entryX=0.51;entryY=0.01;rounded=0;" edge="1" parent="1" source="oDZCgxr22LB6qeapUHRo-5" target="oDZCgxr22LB6qeapUHRo-6">
          <mxGeometry relative="1" as="geometry">
            <Array as="points" />
          </mxGeometry>
        </mxCell>
        <mxCell id="oDZCgxr22LB6qeapUHRo-19" value="Ya" style="curved=1;startArrow=none;endArrow=block;exitX=1;exitY=0.87;entryX=0.5;entryY=0;rounded=0;" edge="1" parent="1" source="oDZCgxr22LB6qeapUHRo-4" target="oDZCgxr22LB6qeapUHRo-7">
          <mxGeometry relative="1" as="geometry">
            <Array as="points">
              <mxPoint x="360" y="533" />
            </Array>
          </mxGeometry>
        </mxCell>
        <mxCell id="oDZCgxr22LB6qeapUHRo-20" value="" style="curved=1;startArrow=none;endArrow=block;exitX=0.5;exitY=0.99;entryX=0.5;entryY=0.01;rounded=0;" edge="1" parent="1" source="oDZCgxr22LB6qeapUHRo-7" target="oDZCgxr22LB6qeapUHRo-8">
          <mxGeometry relative="1" as="geometry">
            <Array as="points" />
          </mxGeometry>
        </mxCell>
        <mxCell id="oDZCgxr22LB6qeapUHRo-21" value="" style="curved=1;startArrow=none;endArrow=block;exitX=0.18;exitY=1.01;entryX=0.41;entryY=0;rounded=0;" edge="1" parent="1" source="oDZCgxr22LB6qeapUHRo-8" target="oDZCgxr22LB6qeapUHRo-9">
          <mxGeometry relative="1" as="geometry">
            <Array as="points">
              <mxPoint x="221" y="772" />
            </Array>
          </mxGeometry>
        </mxCell>
        <mxCell id="oDZCgxr22LB6qeapUHRo-22" value="Tidak" style="curved=1;startArrow=none;endArrow=block;exitX=0.77;exitY=0;entryX=0.36;entryY=1.01;rounded=0;" edge="1" parent="1" source="oDZCgxr22LB6qeapUHRo-9" target="oDZCgxr22LB6qeapUHRo-8">
          <mxGeometry relative="1" as="geometry">
            <Array as="points">
              <mxPoint x="301" y="772" />
            </Array>
          </mxGeometry>
        </mxCell>
        <mxCell id="oDZCgxr22LB6qeapUHRo-23" value="Ya" style="curved=1;startArrow=none;endArrow=block;exitX=0.5;exitY=1.01;entryX=0.5;entryY=0;rounded=0;" edge="1" parent="1" source="oDZCgxr22LB6qeapUHRo-9" target="oDZCgxr22LB6qeapUHRo-10">
          <mxGeometry relative="1" as="geometry">
            <Array as="points" />
          </mxGeometry>
        </mxCell>
        <mxCell id="oDZCgxr22LB6qeapUHRo-24" value="" style="curved=1;startArrow=none;endArrow=block;exitX=0.5;exitY=1;entryX=0.5;entryY=0;rounded=0;" edge="1" parent="1" source="oDZCgxr22LB6qeapUHRo-10" target="oDZCgxr22LB6qeapUHRo-11">
          <mxGeometry relative="1" as="geometry">
            <Array as="points" />
          </mxGeometry>
        </mxCell>
        <mxCell id="oDZCgxr22LB6qeapUHRo-25" value="" style="curved=1;startArrow=none;endArrow=block;exitX=0.5;exitY=1;entryX=0.5;entryY=0;rounded=0;" edge="1" parent="1" source="oDZCgxr22LB6qeapUHRo-11" target="oDZCgxr22LB6qeapUHRo-12">
          <mxGeometry relative="1" as="geometry">
            <Array as="points" />
          </mxGeometry>
        </mxCell>
        <mxCell id="oDZCgxr22LB6qeapUHRo-26" value="" style="curved=1;startArrow=none;endArrow=block;exitX=0.5;exitY=1;entryX=0.12;entryY=0;rounded=0;" edge="1" parent="1" source="oDZCgxr22LB6qeapUHRo-12" target="oDZCgxr22LB6qeapUHRo-13">
          <mxGeometry relative="1" as="geometry">
            <Array as="points">
              <mxPoint x="242" y="1303" />
            </Array>
          </mxGeometry>
        </mxCell>
        <mxCell id="oDZCgxr22LB6qeapUHRo-27" value="" style="curved=1;startArrow=none;endArrow=block;exitX=0.56;exitY=0;entryX=0.6;entryY=1.01;rounded=0;" edge="1" parent="1" source="oDZCgxr22LB6qeapUHRo-13" target="oDZCgxr22LB6qeapUHRo-8">
          <mxGeometry relative="1" as="geometry">
            <Array as="points">
              <mxPoint x="402" y="1303" />
              <mxPoint x="402" y="772" />
            </Array>
          </mxGeometry>
        </mxCell>
      </root>
    </mxGraphModel>
  </diagram>
  <diagram id="6nWkzCI_yxrWw2bSCODS" name="Page-17">
    <mxGraphModel dx="880" dy="468" grid="1" gridSize="10" guides="1" tooltips="1" connect="1" arrows="1" fold="1" page="1" pageScale="1" pageWidth="850" pageHeight="1100" math="0" shadow="0">
      <root>
        <mxCell id="0" />
        <mxCell id="1" parent="0" />
        <mxCell id="V7JE5qlOz5n8b-S0Wpdm-1" value="Mulai Program" style="whiteSpace=wrap;strokeWidth=2;" vertex="1" parent="1">
          <mxGeometry x="194" y="20" width="163" height="49" as="geometry" />
        </mxCell>
        <mxCell id="V7JE5qlOz5n8b-S0Wpdm-2" value="Inisialisasi Serial 9600 baud" style="whiteSpace=wrap;strokeWidth=2;" vertex="1" parent="1">
          <mxGeometry x="147" y="119" width="256" height="49" as="geometry" />
        </mxCell>
        <mxCell id="V7JE5qlOz5n8b-S0Wpdm-3" value="Atur Mode WiFi ke WIFI_STA" style="whiteSpace=wrap;strokeWidth=2;" vertex="1" parent="1">
          <mxGeometry x="145" y="218" width="261" height="49" as="geometry" />
        </mxCell>
        <mxCell id="V7JE5qlOz5n8b-S0Wpdm-4" value="Inisialisasi ESP-NOW Berhasil" style="rhombus;strokeWidth=2;whiteSpace=wrap;" vertex="1" parent="1">
          <mxGeometry x="170" y="317" width="210" height="210" as="geometry" />
        </mxCell>
        <mxCell id="V7JE5qlOz5n8b-S0Wpdm-5" value="Cetak Gagal menginisialisasi ESP-NOW" style="whiteSpace=wrap;strokeWidth=2;" vertex="1" parent="1">
          <mxGeometry x="20" y="600" width="242" height="67" as="geometry" />
        </mxCell>
        <mxCell id="V7JE5qlOz5n8b-S0Wpdm-6" value="Selesai" style="whiteSpace=wrap;strokeWidth=2;" vertex="1" parent="1">
          <mxGeometry x="86" y="725" width="109" height="49" as="geometry" />
        </mxCell>
        <mxCell id="V7JE5qlOz5n8b-S0Wpdm-7" value="Registrasi Callback Pengiriman" style="whiteSpace=wrap;strokeWidth=2;" vertex="1" parent="1">
          <mxGeometry x="312" y="600" width="195" height="67" as="geometry" />
        </mxCell>
        <mxCell id="V7JE5qlOz5n8b-S0Wpdm-8" value="Tambahkan Perangkat Penerima" style="whiteSpace=wrap;strokeWidth=2;" vertex="1" parent="1">
          <mxGeometry x="301" y="716" width="218" height="67" as="geometry" />
        </mxCell>
        <mxCell id="V7JE5qlOz5n8b-S0Wpdm-9" value="Loop Utama" style="whiteSpace=wrap;strokeWidth=2;" vertex="1" parent="1">
          <mxGeometry x="336" y="833" width="146" height="49" as="geometry" />
        </mxCell>
        <mxCell id="V7JE5qlOz5n8b-S0Wpdm-10" value="Konversi Pesan ke Byte Array" style="whiteSpace=wrap;strokeWidth=2;" vertex="1" parent="1">
          <mxGeometry x="223" y="932" width="224" height="67" as="geometry" />
        </mxCell>
        <mxCell id="V7JE5qlOz5n8b-S0Wpdm-11" value="Kirim Data dengan ESP-NOW" style="whiteSpace=wrap;strokeWidth=2;" vertex="1" parent="1">
          <mxGeometry x="239" y="1049" width="192" height="67" as="geometry" />
        </mxCell>
        <mxCell id="V7JE5qlOz5n8b-S0Wpdm-12" value="Data Terkirim" style="rhombus;strokeWidth=2;whiteSpace=wrap;" vertex="1" parent="1">
          <mxGeometry x="262" y="1165" width="145" height="145" as="geometry" />
        </mxCell>
        <mxCell id="V7JE5qlOz5n8b-S0Wpdm-13" value="Tampilkan Status Berhasil" style="whiteSpace=wrap;strokeWidth=2;" vertex="1" parent="1">
          <mxGeometry x="70" y="1384" width="244" height="49" as="geometry" />
        </mxCell>
        <mxCell id="V7JE5qlOz5n8b-S0Wpdm-14" value="Tampilkan Status Gagal" style="whiteSpace=wrap;strokeWidth=2;" vertex="1" parent="1">
          <mxGeometry x="364" y="1384" width="228" height="49" as="geometry" />
        </mxCell>
        <mxCell id="V7JE5qlOz5n8b-S0Wpdm-15" value="Menunggu 2 Detik" style="whiteSpace=wrap;strokeWidth=2;" vertex="1" parent="1">
          <mxGeometry x="324" y="1483" width="189" height="49" as="geometry" />
        </mxCell>
        <mxCell id="V7JE5qlOz5n8b-S0Wpdm-16" value="" style="curved=1;startArrow=none;endArrow=block;exitX=0.5;exitY=1;entryX=0.5;entryY=0;rounded=0;" edge="1" parent="1" source="V7JE5qlOz5n8b-S0Wpdm-1" target="V7JE5qlOz5n8b-S0Wpdm-2">
          <mxGeometry relative="1" as="geometry">
            <Array as="points" />
          </mxGeometry>
        </mxCell>
        <mxCell id="V7JE5qlOz5n8b-S0Wpdm-17" value="" style="curved=1;startArrow=none;endArrow=block;exitX=0.5;exitY=1;entryX=0.5;entryY=0;rounded=0;" edge="1" parent="1" source="V7JE5qlOz5n8b-S0Wpdm-2" target="V7JE5qlOz5n8b-S0Wpdm-3">
          <mxGeometry relative="1" as="geometry">
            <Array as="points" />
          </mxGeometry>
        </mxCell>
        <mxCell id="V7JE5qlOz5n8b-S0Wpdm-18" value="" style="curved=1;startArrow=none;endArrow=block;exitX=0.5;exitY=1;entryX=0.5;entryY=0;rounded=0;" edge="1" parent="1" source="V7JE5qlOz5n8b-S0Wpdm-3" target="V7JE5qlOz5n8b-S0Wpdm-4">
          <mxGeometry relative="1" as="geometry">
            <Array as="points" />
          </mxGeometry>
        </mxCell>
        <mxCell id="V7JE5qlOz5n8b-S0Wpdm-19" value="Tidak" style="curved=1;startArrow=none;endArrow=block;exitX=0.03;exitY=1;entryX=0.5;entryY=0;rounded=0;" edge="1" parent="1" source="V7JE5qlOz5n8b-S0Wpdm-4" target="V7JE5qlOz5n8b-S0Wpdm-5">
          <mxGeometry relative="1" as="geometry">
            <Array as="points">
              <mxPoint x="141" y="563" />
            </Array>
          </mxGeometry>
        </mxCell>
        <mxCell id="V7JE5qlOz5n8b-S0Wpdm-20" value="" style="curved=1;startArrow=none;endArrow=block;exitX=0.5;exitY=0.99;entryX=0.51;entryY=0.01;rounded=0;" edge="1" parent="1" source="V7JE5qlOz5n8b-S0Wpdm-5" target="V7JE5qlOz5n8b-S0Wpdm-6">
          <mxGeometry relative="1" as="geometry">
            <Array as="points" />
          </mxGeometry>
        </mxCell>
        <mxCell id="V7JE5qlOz5n8b-S0Wpdm-21" value="Ya" style="curved=1;startArrow=none;endArrow=block;exitX=0.98;exitY=1;entryX=0.5;entryY=0;rounded=0;" edge="1" parent="1" source="V7JE5qlOz5n8b-S0Wpdm-4" target="V7JE5qlOz5n8b-S0Wpdm-7">
          <mxGeometry relative="1" as="geometry">
            <Array as="points">
              <mxPoint x="410" y="563" />
            </Array>
          </mxGeometry>
        </mxCell>
        <mxCell id="V7JE5qlOz5n8b-S0Wpdm-22" value="" style="curved=1;startArrow=none;endArrow=block;exitX=0.5;exitY=0.99;entryX=0.5;entryY=0.01;rounded=0;" edge="1" parent="1" source="V7JE5qlOz5n8b-S0Wpdm-7" target="V7JE5qlOz5n8b-S0Wpdm-8">
          <mxGeometry relative="1" as="geometry">
            <Array as="points" />
          </mxGeometry>
        </mxCell>
        <mxCell id="V7JE5qlOz5n8b-S0Wpdm-23" value="" style="curved=1;startArrow=none;endArrow=block;exitX=0.5;exitY=1;entryX=0.5;entryY=0;rounded=0;" edge="1" parent="1" source="V7JE5qlOz5n8b-S0Wpdm-8" target="V7JE5qlOz5n8b-S0Wpdm-9">
          <mxGeometry relative="1" as="geometry">
            <Array as="points" />
          </mxGeometry>
        </mxCell>
        <mxCell id="V7JE5qlOz5n8b-S0Wpdm-24" value="" style="curved=1;startArrow=none;endArrow=block;exitX=0.25;exitY=1;entryX=0.5;entryY=0;rounded=0;" edge="1" parent="1" source="V7JE5qlOz5n8b-S0Wpdm-9" target="V7JE5qlOz5n8b-S0Wpdm-10">
          <mxGeometry relative="1" as="geometry">
            <Array as="points">
              <mxPoint x="335" y="907" />
            </Array>
          </mxGeometry>
        </mxCell>
        <mxCell id="V7JE5qlOz5n8b-S0Wpdm-25" value="" style="curved=1;startArrow=none;endArrow=block;exitX=0.5;exitY=1;entryX=0.5;entryY=0;rounded=0;" edge="1" parent="1" source="V7JE5qlOz5n8b-S0Wpdm-10" target="V7JE5qlOz5n8b-S0Wpdm-11">
          <mxGeometry relative="1" as="geometry">
            <Array as="points" />
          </mxGeometry>
        </mxCell>
        <mxCell id="V7JE5qlOz5n8b-S0Wpdm-26" value="" style="curved=1;startArrow=none;endArrow=block;exitX=0.5;exitY=0.99;entryX=0.5;entryY=0;rounded=0;" edge="1" parent="1" source="V7JE5qlOz5n8b-S0Wpdm-11" target="V7JE5qlOz5n8b-S0Wpdm-12">
          <mxGeometry relative="1" as="geometry">
            <Array as="points" />
          </mxGeometry>
        </mxCell>
        <mxCell id="V7JE5qlOz5n8b-S0Wpdm-27" value="Berhasil" style="curved=1;startArrow=none;endArrow=block;exitX=0;exitY=0.89;entryX=0.5;entryY=-0.01;rounded=0;" edge="1" parent="1" source="V7JE5qlOz5n8b-S0Wpdm-12" target="V7JE5qlOz5n8b-S0Wpdm-13">
          <mxGeometry relative="1" as="geometry">
            <Array as="points">
              <mxPoint x="192" y="1347" />
            </Array>
          </mxGeometry>
        </mxCell>
        <mxCell id="V7JE5qlOz5n8b-S0Wpdm-28" value="Gagal" style="curved=1;startArrow=none;endArrow=block;exitX=1.01;exitY=0.89;entryX=0.5;entryY=-0.01;rounded=0;" edge="1" parent="1" source="V7JE5qlOz5n8b-S0Wpdm-12" target="V7JE5qlOz5n8b-S0Wpdm-14">
          <mxGeometry relative="1" as="geometry">
            <Array as="points">
              <mxPoint x="478" y="1347" />
            </Array>
          </mxGeometry>
        </mxCell>
        <mxCell id="V7JE5qlOz5n8b-S0Wpdm-29" value="" style="curved=1;startArrow=none;endArrow=block;exitX=0.5;exitY=0.99;entryX=0;entryY=0.07;rounded=0;" edge="1" parent="1" source="V7JE5qlOz5n8b-S0Wpdm-13" target="V7JE5qlOz5n8b-S0Wpdm-15">
          <mxGeometry relative="1" as="geometry">
            <Array as="points">
              <mxPoint x="192" y="1458" />
            </Array>
          </mxGeometry>
        </mxCell>
        <mxCell id="V7JE5qlOz5n8b-S0Wpdm-30" value="" style="curved=1;startArrow=none;endArrow=block;exitX=0.5;exitY=0.99;entryX=0.66;entryY=-0.01;rounded=0;" edge="1" parent="1" source="V7JE5qlOz5n8b-S0Wpdm-14" target="V7JE5qlOz5n8b-S0Wpdm-15">
          <mxGeometry relative="1" as="geometry">
            <Array as="points">
              <mxPoint x="478" y="1458" />
            </Array>
          </mxGeometry>
        </mxCell>
        <mxCell id="V7JE5qlOz5n8b-S0Wpdm-31" value="" style="curved=1;startArrow=none;endArrow=block;exitX=1;exitY=0.04;entryX=1.01;entryY=0.84;rounded=0;" edge="1" parent="1" source="V7JE5qlOz5n8b-S0Wpdm-15" target="V7JE5qlOz5n8b-S0Wpdm-9">
          <mxGeometry relative="1" as="geometry">
            <Array as="points">
              <mxPoint x="627" y="1458" />
              <mxPoint x="627" y="907" />
            </Array>
          </mxGeometry>
        </mxCell>
      </root>
    </mxGraphModel>
  </diagram>
  <diagram id="Rb-6spCDzrHLOJhRCK4w" name="Page-18">
    <mxGraphModel dx="880" dy="468" grid="1" gridSize="10" guides="1" tooltips="1" connect="1" arrows="1" fold="1" page="1" pageScale="1" pageWidth="850" pageHeight="1100" math="0" shadow="0">
      <root>
        <mxCell id="0" />
        <mxCell id="1" parent="0" />
        <mxCell id="P4eZUlWT5UOHJ75bxDq9-1" value="Mulai Program" style="whiteSpace=wrap;strokeWidth=2;" vertex="1" parent="1">
          <mxGeometry x="204" y="20" width="163" height="49" as="geometry" />
        </mxCell>
        <mxCell id="P4eZUlWT5UOHJ75bxDq9-2" value="Inisialisasi Serial 115200 baud" style="whiteSpace=wrap;strokeWidth=2;" vertex="1" parent="1">
          <mxGeometry x="168" y="119" width="233" height="67" as="geometry" />
        </mxCell>
        <mxCell id="P4eZUlWT5UOHJ75bxDq9-3" value="Inisialisasi WiFiManager" style="whiteSpace=wrap;strokeWidth=2;" vertex="1" parent="1">
          <mxGeometry x="170" y="236" width="229" height="49" as="geometry" />
        </mxCell>
        <mxCell id="P4eZUlWT5UOHJ75bxDq9-4" value="Memulai Portal Konfigurasi" style="whiteSpace=wrap;strokeWidth=2;" vertex="1" parent="1">
          <mxGeometry x="159" y="335" width="252" height="49" as="geometry" />
        </mxCell>
        <mxCell id="P4eZUlWT5UOHJ75bxDq9-5" value="WiFi Terhubung" style="rhombus;strokeWidth=2;whiteSpace=wrap;" vertex="1" parent="1">
          <mxGeometry x="205" y="434" width="160" height="160" as="geometry" />
        </mxCell>
        <mxCell id="P4eZUlWT5UOHJ75bxDq9-6" value="Tampilkan Terhubung ke WiFi" style="whiteSpace=wrap;strokeWidth=2;" vertex="1" parent="1">
          <mxGeometry x="20" y="666" width="234" height="67" as="geometry" />
        </mxCell>
        <mxCell id="P4eZUlWT5UOHJ75bxDq9-7" value="Tampilkan Gagal Terhubung ke WiFi" style="whiteSpace=wrap;strokeWidth=2;" vertex="1" parent="1">
          <mxGeometry x="304" y="666" width="257" height="67" as="geometry" />
        </mxCell>
        <mxCell id="P4eZUlWT5UOHJ75bxDq9-8" value="Loop Utama" style="whiteSpace=wrap;strokeWidth=2;" vertex="1" parent="1">
          <mxGeometry x="212" y="783" width="146" height="49" as="geometry" />
        </mxCell>
        <mxCell id="P4eZUlWT5UOHJ75bxDq9-9" value="" style="whiteSpace=wrap;strokeWidth=2;" vertex="1" parent="1">
          <mxGeometry x="267" y="882" as="geometry" />
        </mxCell>
        <mxCell id="P4eZUlWT5UOHJ75bxDq9-10" value="" style="whiteSpace=wrap;strokeWidth=2;" vertex="1" parent="1">
          <mxGeometry x="285" y="932" as="geometry" />
        </mxCell>
        <mxCell id="P4eZUlWT5UOHJ75bxDq9-11" value="" style="curved=1;startArrow=none;endArrow=block;exitX=0.5;exitY=1;entryX=0.5;entryY=0;rounded=0;" edge="1" parent="1" source="P4eZUlWT5UOHJ75bxDq9-1" target="P4eZUlWT5UOHJ75bxDq9-2">
          <mxGeometry relative="1" as="geometry">
            <Array as="points" />
          </mxGeometry>
        </mxCell>
        <mxCell id="P4eZUlWT5UOHJ75bxDq9-12" value="" style="curved=1;startArrow=none;endArrow=block;exitX=0.5;exitY=0.99;entryX=0.5;entryY=-0.01;rounded=0;" edge="1" parent="1" source="P4eZUlWT5UOHJ75bxDq9-2" target="P4eZUlWT5UOHJ75bxDq9-3">
          <mxGeometry relative="1" as="geometry">
            <Array as="points" />
          </mxGeometry>
        </mxCell>
        <mxCell id="P4eZUlWT5UOHJ75bxDq9-13" value="" style="curved=1;startArrow=none;endArrow=block;exitX=0.5;exitY=0.99;entryX=0.5;entryY=-0.01;rounded=0;" edge="1" parent="1" source="P4eZUlWT5UOHJ75bxDq9-3" target="P4eZUlWT5UOHJ75bxDq9-4">
          <mxGeometry relative="1" as="geometry">
            <Array as="points" />
          </mxGeometry>
        </mxCell>
        <mxCell id="P4eZUlWT5UOHJ75bxDq9-14" value="" style="curved=1;startArrow=none;endArrow=block;exitX=0.5;exitY=0.99;entryX=0.5;entryY=0;rounded=0;" edge="1" parent="1" source="P4eZUlWT5UOHJ75bxDq9-4" target="P4eZUlWT5UOHJ75bxDq9-5">
          <mxGeometry relative="1" as="geometry">
            <Array as="points" />
          </mxGeometry>
        </mxCell>
        <mxCell id="P4eZUlWT5UOHJ75bxDq9-15" value="Ya" style="curved=1;startArrow=none;endArrow=block;exitX=0;exitY=0.89;entryX=0.5;entryY=0;rounded=0;" edge="1" parent="1" source="P4eZUlWT5UOHJ75bxDq9-5" target="P4eZUlWT5UOHJ75bxDq9-6">
          <mxGeometry relative="1" as="geometry">
            <Array as="points">
              <mxPoint x="137" y="630" />
            </Array>
          </mxGeometry>
        </mxCell>
        <mxCell id="P4eZUlWT5UOHJ75bxDq9-16" value="Tidak" style="curved=1;startArrow=none;endArrow=block;exitX=1;exitY=0.89;entryX=0.5;entryY=0;rounded=0;" edge="1" parent="1" source="P4eZUlWT5UOHJ75bxDq9-5" target="P4eZUlWT5UOHJ75bxDq9-7">
          <mxGeometry relative="1" as="geometry">
            <Array as="points">
              <mxPoint x="433" y="630" />
            </Array>
          </mxGeometry>
        </mxCell>
        <mxCell id="P4eZUlWT5UOHJ75bxDq9-17" value="" style="curved=1;startArrow=none;endArrow=block;exitX=0.5;exitY=1;entryX=0;entryY=0;rounded=0;" edge="1" parent="1" source="P4eZUlWT5UOHJ75bxDq9-6" target="P4eZUlWT5UOHJ75bxDq9-8">
          <mxGeometry relative="1" as="geometry">
            <Array as="points">
              <mxPoint x="137" y="758" />
            </Array>
          </mxGeometry>
        </mxCell>
        <mxCell id="P4eZUlWT5UOHJ75bxDq9-18" value="" style="curved=1;startArrow=none;endArrow=block;exitX=0.5;exitY=1;entryX=1;entryY=0;rounded=0;" edge="1" parent="1" source="P4eZUlWT5UOHJ75bxDq9-7" target="P4eZUlWT5UOHJ75bxDq9-8">
          <mxGeometry relative="1" as="geometry">
            <Array as="points">
              <mxPoint x="433" y="758" />
            </Array>
          </mxGeometry>
        </mxCell>
        <mxCell id="P4eZUlWT5UOHJ75bxDq9-19" value="" style="curved=1;startArrow=none;endArrow=none;exitX=0.44;exitY=1;entryX=Infinity;entryY=-Infinity;rounded=0;" edge="1" parent="1" source="P4eZUlWT5UOHJ75bxDq9-8" target="P4eZUlWT5UOHJ75bxDq9-9">
          <mxGeometry relative="1" as="geometry">
            <Array as="points">
              <mxPoint x="267" y="857" />
            </Array>
          </mxGeometry>
        </mxCell>
        <mxCell id="P4eZUlWT5UOHJ75bxDq9-20" value="" style="curved=1;startArrow=none;endArrow=none;exitX=Infinity;exitY=-Infinity;entryX=-Infinity;entryY=-Infinity;rounded=0;" edge="1" parent="1" source="P4eZUlWT5UOHJ75bxDq9-9" target="P4eZUlWT5UOHJ75bxDq9-10">
          <mxGeometry relative="1" as="geometry">
            <Array as="points">
              <mxPoint x="267" y="907" />
            </Array>
          </mxGeometry>
        </mxCell>
        <mxCell id="P4eZUlWT5UOHJ75bxDq9-21" value="" style="curved=1;startArrow=none;endArrow=block;exitX=-Infinity;exitY=-Infinity;entryX=0.56;entryY=1;rounded=0;" edge="1" parent="1" source="P4eZUlWT5UOHJ75bxDq9-10" target="P4eZUlWT5UOHJ75bxDq9-8">
          <mxGeometry relative="1" as="geometry">
            <Array as="points">
              <mxPoint x="302" y="907" />
              <mxPoint x="302" y="857" />
            </Array>
          </mxGeometry>
        </mxCell>
      </root>
    </mxGraphModel>
  </diagram>
  <diagram id="7Dc8Wj2NfjtvGitevl6l" name="Page-19">
    <mxGraphModel dx="880" dy="468" grid="1" gridSize="10" guides="1" tooltips="1" connect="1" arrows="1" fold="1" page="1" pageScale="1" pageWidth="850" pageHeight="1100" math="0" shadow="0">
      <root>
        <mxCell id="0" />
        <mxCell id="1" parent="0" />
        <mxCell id="Rd6SQHWgD3A1VPLL_YiG-1" value="Mulai Program" style="whiteSpace=wrap;strokeWidth=2;" vertex="1" parent="1">
          <mxGeometry x="520" y="20" width="163" height="49" as="geometry" />
        </mxCell>
        <mxCell id="Rd6SQHWgD3A1VPLL_YiG-2" value="Inisialisasi Serial 115200 baud" style="whiteSpace=wrap;strokeWidth=2;" vertex="1" parent="1">
          <mxGeometry x="485" y="119" width="233" height="67" as="geometry" />
        </mxCell>
        <mxCell id="Rd6SQHWgD3A1VPLL_YiG-3" value="Inisialisasi GPIO" style="whiteSpace=wrap;strokeWidth=2;" vertex="1" parent="1">
          <mxGeometry x="515" y="236" width="172" height="49" as="geometry" />
        </mxCell>
        <mxCell id="Rd6SQHWgD3A1VPLL_YiG-4" value="Atur output GPIO 5 dan 4 ke LOW" style="whiteSpace=wrap;strokeWidth=2;" vertex="1" parent="1">
          <mxGeometry x="481" y="335" width="242" height="67" as="geometry" />
        </mxCell>
        <mxCell id="Rd6SQHWgD3A1VPLL_YiG-5" value="Menghubungkan ke WiFi" style="whiteSpace=wrap;strokeWidth=2;" vertex="1" parent="1">
          <mxGeometry x="485" y="451" width="232" height="49" as="geometry" />
        </mxCell>
        <mxCell id="Rd6SQHWgD3A1VPLL_YiG-6" value="WiFi Terhubung" style="rhombus;strokeWidth=2;whiteSpace=wrap;" vertex="1" parent="1">
          <mxGeometry x="631" y="550" width="160" height="160" as="geometry" />
        </mxCell>
        <mxCell id="Rd6SQHWgD3A1VPLL_YiG-7" value="Tunggu 500 ms dan coba lagi" style="whiteSpace=wrap;strokeWidth=2;" vertex="1" parent="1">
          <mxGeometry x="349" y="783" width="235" height="67" as="geometry" />
        </mxCell>
        <mxCell id="Rd6SQHWgD3A1VPLL_YiG-8" value="Tampilkan Alamat IP" style="whiteSpace=wrap;strokeWidth=2;" vertex="1" parent="1">
          <mxGeometry x="634" y="792" width="206" height="49" as="geometry" />
        </mxCell>
        <mxCell id="Rd6SQHWgD3A1VPLL_YiG-9" value="Mulai Web Server" style="whiteSpace=wrap;strokeWidth=2;" vertex="1" parent="1">
          <mxGeometry x="644" y="899" width="185" height="49" as="geometry" />
        </mxCell>
        <mxCell id="Rd6SQHWgD3A1VPLL_YiG-10" value="Loop Utama" style="whiteSpace=wrap;strokeWidth=2;" vertex="1" parent="1">
          <mxGeometry x="664" y="998" width="146" height="49" as="geometry" />
        </mxCell>
        <mxCell id="Rd6SQHWgD3A1VPLL_YiG-11" value="Periksa Klien Baru" style="whiteSpace=wrap;strokeWidth=2;" vertex="1" parent="1">
          <mxGeometry x="718" y="1097" width="189" height="49" as="geometry" />
        </mxCell>
        <mxCell id="Rd6SQHWgD3A1VPLL_YiG-12" value="Klien Tersedia" style="rhombus;strokeWidth=2;whiteSpace=wrap;" vertex="1" parent="1">
          <mxGeometry x="662" y="1196" width="149" height="149" as="geometry" />
        </mxCell>
        <mxCell id="Rd6SQHWgD3A1VPLL_YiG-13" value="Terima Permintaan Klien" style="whiteSpace=wrap;strokeWidth=2;" vertex="1" parent="1">
          <mxGeometry x="618" y="1419" width="237" height="49" as="geometry" />
        </mxCell>
        <mxCell id="Rd6SQHWgD3A1VPLL_YiG-14" value="Timeout 2000 ms" style="rhombus;strokeWidth=2;whiteSpace=wrap;" vertex="1" parent="1">
          <mxGeometry x="651" y="1518" width="172" height="172" as="geometry" />
        </mxCell>
        <mxCell id="Rd6SQHWgD3A1VPLL_YiG-15" value="Tutup Koneksi" style="whiteSpace=wrap;strokeWidth=2;" vertex="1" parent="1">
          <mxGeometry x="938" y="2331" width="160" height="49" as="geometry" />
        </mxCell>
        <mxCell id="Rd6SQHWgD3A1VPLL_YiG-16" value="Proses Header HTTP" style="whiteSpace=wrap;strokeWidth=2;" vertex="1" parent="1">
          <mxGeometry x="354" y="1763" width="204" height="49" as="geometry" />
        </mxCell>
        <mxCell id="Rd6SQHWgD3A1VPLL_YiG-17" value="Permintaan Diterima" style="rhombus;strokeWidth=2;whiteSpace=wrap;" vertex="1" parent="1">
          <mxGeometry x="357" y="1862" width="198" height="198" as="geometry" />
        </mxCell>
        <mxCell id="Rd6SQHWgD3A1VPLL_YiG-18" value="GPIO 5 On" style="whiteSpace=wrap;strokeWidth=2;" vertex="1" parent="1">
          <mxGeometry x="20" y="2133" width="133" height="49" as="geometry" />
        </mxCell>
        <mxCell id="Rd6SQHWgD3A1VPLL_YiG-19" value="GPIO 5 Off" style="whiteSpace=wrap;strokeWidth=2;" vertex="1" parent="1">
          <mxGeometry x="203" y="2133" width="137" height="49" as="geometry" />
        </mxCell>
        <mxCell id="Rd6SQHWgD3A1VPLL_YiG-20" value="GPIO 4 On" style="whiteSpace=wrap;strokeWidth=2;" vertex="1" parent="1">
          <mxGeometry x="390" y="2133" width="133" height="49" as="geometry" />
        </mxCell>
        <mxCell id="Rd6SQHWgD3A1VPLL_YiG-21" value="GPIO 4 Off" style="whiteSpace=wrap;strokeWidth=2;" vertex="1" parent="1">
          <mxGeometry x="572" y="2133" width="137" height="49" as="geometry" />
        </mxCell>
        <mxCell id="Rd6SQHWgD3A1VPLL_YiG-22" value="Bangun Halaman HTML" style="whiteSpace=wrap;strokeWidth=2;" vertex="1" parent="1">
          <mxGeometry x="759" y="2133" width="224" height="49" as="geometry" />
        </mxCell>
        <mxCell id="Rd6SQHWgD3A1VPLL_YiG-23" value="Kirim Respons HTTP" style="whiteSpace=wrap;strokeWidth=2;" vertex="1" parent="1">
          <mxGeometry x="770" y="2232" width="202" height="49" as="geometry" />
        </mxCell>
        <mxCell id="Rd6SQHWgD3A1VPLL_YiG-24" value="" style="curved=1;startArrow=none;endArrow=block;exitX=0.5;exitY=1;entryX=0.5;entryY=0;rounded=0;" edge="1" parent="1" source="Rd6SQHWgD3A1VPLL_YiG-1" target="Rd6SQHWgD3A1VPLL_YiG-2">
          <mxGeometry relative="1" as="geometry">
            <Array as="points" />
          </mxGeometry>
        </mxCell>
        <mxCell id="Rd6SQHWgD3A1VPLL_YiG-25" value="" style="curved=1;startArrow=none;endArrow=block;exitX=0.5;exitY=0.99;entryX=0.5;entryY=-0.01;rounded=0;" edge="1" parent="1" source="Rd6SQHWgD3A1VPLL_YiG-2" target="Rd6SQHWgD3A1VPLL_YiG-3">
          <mxGeometry relative="1" as="geometry">
            <Array as="points" />
          </mxGeometry>
        </mxCell>
        <mxCell id="Rd6SQHWgD3A1VPLL_YiG-26" value="" style="curved=1;startArrow=none;endArrow=block;exitX=0.5;exitY=0.99;entryX=0.5;entryY=-0.01;rounded=0;" edge="1" parent="1" source="Rd6SQHWgD3A1VPLL_YiG-3" target="Rd6SQHWgD3A1VPLL_YiG-4">
          <mxGeometry relative="1" as="geometry">
            <Array as="points" />
          </mxGeometry>
        </mxCell>
        <mxCell id="Rd6SQHWgD3A1VPLL_YiG-27" value="" style="curved=1;startArrow=none;endArrow=block;exitX=0.5;exitY=0.99;entryX=0.5;entryY=0;rounded=0;" edge="1" parent="1" source="Rd6SQHWgD3A1VPLL_YiG-4" target="Rd6SQHWgD3A1VPLL_YiG-5">
          <mxGeometry relative="1" as="geometry">
            <Array as="points" />
          </mxGeometry>
        </mxCell>
        <mxCell id="Rd6SQHWgD3A1VPLL_YiG-28" value="" style="curved=1;startArrow=none;endArrow=block;exitX=0.73;exitY=1;entryX=0.5;entryY=0;rounded=0;" edge="1" parent="1" source="Rd6SQHWgD3A1VPLL_YiG-5" target="Rd6SQHWgD3A1VPLL_YiG-6">
          <mxGeometry relative="1" as="geometry">
            <Array as="points">
              <mxPoint x="710" y="525" />
            </Array>
          </mxGeometry>
        </mxCell>
        <mxCell id="Rd6SQHWgD3A1VPLL_YiG-29" value="Tidak" style="curved=1;startArrow=none;endArrow=block;exitX=0;exitY=0.93;entryX=0.72;entryY=0;rounded=0;" edge="1" parent="1" source="Rd6SQHWgD3A1VPLL_YiG-6" target="Rd6SQHWgD3A1VPLL_YiG-7">
          <mxGeometry relative="1" as="geometry">
            <Array as="points">
              <mxPoint x="575" y="746" />
            </Array>
          </mxGeometry>
        </mxCell>
        <mxCell id="Rd6SQHWgD3A1VPLL_YiG-30" value="" style="curved=1;startArrow=none;endArrow=block;exitX=0.46;exitY=0;entryX=0.17;entryY=1;rounded=0;" edge="1" parent="1" source="Rd6SQHWgD3A1VPLL_YiG-7" target="Rd6SQHWgD3A1VPLL_YiG-5">
          <mxGeometry relative="1" as="geometry">
            <Array as="points">
              <mxPoint x="445" y="746" />
              <mxPoint x="445" y="525" />
            </Array>
          </mxGeometry>
        </mxCell>
        <mxCell id="Rd6SQHWgD3A1VPLL_YiG-31" value="Ya" style="curved=1;startArrow=none;endArrow=block;exitX=0.61;exitY=1;entryX=0.5;entryY=-0.01;rounded=0;" edge="1" parent="1" source="Rd6SQHWgD3A1VPLL_YiG-6" target="Rd6SQHWgD3A1VPLL_YiG-8">
          <mxGeometry relative="1" as="geometry">
            <Array as="points">
              <mxPoint x="737" y="746" />
            </Array>
          </mxGeometry>
        </mxCell>
        <mxCell id="Rd6SQHWgD3A1VPLL_YiG-32" value="" style="curved=1;startArrow=none;endArrow=block;exitX=0.5;exitY=0.99;entryX=0.5;entryY=0.01;rounded=0;" edge="1" parent="1" source="Rd6SQHWgD3A1VPLL_YiG-8" target="Rd6SQHWgD3A1VPLL_YiG-9">
          <mxGeometry relative="1" as="geometry">
            <Array as="points" />
          </mxGeometry>
        </mxCell>
        <mxCell id="Rd6SQHWgD3A1VPLL_YiG-33" value="" style="curved=1;startArrow=none;endArrow=block;exitX=0.5;exitY=1.01;entryX=0.5;entryY=0.01;rounded=0;" edge="1" parent="1" source="Rd6SQHWgD3A1VPLL_YiG-9" target="Rd6SQHWgD3A1VPLL_YiG-10">
          <mxGeometry relative="1" as="geometry">
            <Array as="points" />
          </mxGeometry>
        </mxCell>
        <mxCell id="Rd6SQHWgD3A1VPLL_YiG-34" value="" style="curved=1;startArrow=none;endArrow=block;exitX=0.76;exitY=1.01;entryX=0.5;entryY=0.01;rounded=0;" edge="1" parent="1" source="Rd6SQHWgD3A1VPLL_YiG-10" target="Rd6SQHWgD3A1VPLL_YiG-11">
          <mxGeometry relative="1" as="geometry">
            <Array as="points">
              <mxPoint x="813" y="1072" />
            </Array>
          </mxGeometry>
        </mxCell>
        <mxCell id="Rd6SQHWgD3A1VPLL_YiG-35" value="" style="curved=1;startArrow=none;endArrow=block;exitX=0.5;exitY=1.01;entryX=0.88;entryY=0;rounded=0;" edge="1" parent="1" source="Rd6SQHWgD3A1VPLL_YiG-11" target="Rd6SQHWgD3A1VPLL_YiG-12">
          <mxGeometry relative="1" as="geometry">
            <Array as="points">
              <mxPoint x="813" y="1171" />
            </Array>
          </mxGeometry>
        </mxCell>
        <mxCell id="Rd6SQHWgD3A1VPLL_YiG-36" value="Tidak" style="curved=1;startArrow=none;endArrow=block;exitX=0.12;exitY=0;entryX=0.24;entryY=1.01;rounded=0;" edge="1" parent="1" source="Rd6SQHWgD3A1VPLL_YiG-12" target="Rd6SQHWgD3A1VPLL_YiG-10">
          <mxGeometry relative="1" as="geometry">
            <Array as="points">
              <mxPoint x="661" y="1171" />
              <mxPoint x="661" y="1072" />
            </Array>
          </mxGeometry>
        </mxCell>
        <mxCell id="Rd6SQHWgD3A1VPLL_YiG-37" value="Ya" style="curved=1;startArrow=none;endArrow=block;exitX=0.5;exitY=1.01;entryX=0.5;entryY=0;rounded=0;" edge="1" parent="1" source="Rd6SQHWgD3A1VPLL_YiG-12" target="Rd6SQHWgD3A1VPLL_YiG-13">
          <mxGeometry relative="1" as="geometry">
            <Array as="points" />
          </mxGeometry>
        </mxCell>
        <mxCell id="Rd6SQHWgD3A1VPLL_YiG-38" value="" style="curved=1;startArrow=none;endArrow=block;exitX=0.5;exitY=1;entryX=0.5;entryY=0;rounded=0;" edge="1" parent="1" source="Rd6SQHWgD3A1VPLL_YiG-13" target="Rd6SQHWgD3A1VPLL_YiG-14">
          <mxGeometry relative="1" as="geometry">
            <Array as="points" />
          </mxGeometry>
        </mxCell>
        <mxCell id="Rd6SQHWgD3A1VPLL_YiG-39" value="Ya" style="curved=1;startArrow=none;endArrow=block;exitX=1;exitY=0.72;entryX=0.5;entryY=0;rounded=0;" edge="1" parent="1" source="Rd6SQHWgD3A1VPLL_YiG-14" target="Rd6SQHWgD3A1VPLL_YiG-15">
          <mxGeometry relative="1" as="geometry">
            <Array as="points">
              <mxPoint x="1018" y="1727" />
            </Array>
          </mxGeometry>
        </mxCell>
        <mxCell id="Rd6SQHWgD3A1VPLL_YiG-40" value="Tidak" style="curved=1;startArrow=none;endArrow=block;exitX=0;exitY=0.72;entryX=0.5;entryY=0;rounded=0;" edge="1" parent="1" source="Rd6SQHWgD3A1VPLL_YiG-14" target="Rd6SQHWgD3A1VPLL_YiG-16">
          <mxGeometry relative="1" as="geometry">
            <Array as="points">
              <mxPoint x="456" y="1727" />
            </Array>
          </mxGeometry>
        </mxCell>
        <mxCell id="Rd6SQHWgD3A1VPLL_YiG-41" value="" style="curved=1;startArrow=none;endArrow=block;exitX=0.5;exitY=1;entryX=0.5;entryY=0;rounded=0;" edge="1" parent="1" source="Rd6SQHWgD3A1VPLL_YiG-16" target="Rd6SQHWgD3A1VPLL_YiG-17">
          <mxGeometry relative="1" as="geometry">
            <Array as="points" />
          </mxGeometry>
        </mxCell>
        <mxCell id="Rd6SQHWgD3A1VPLL_YiG-42" value="GET /5/on" style="curved=1;startArrow=none;endArrow=block;exitX=0;exitY=0.68;entryX=0.5;entryY=0;rounded=0;" edge="1" parent="1" source="Rd6SQHWgD3A1VPLL_YiG-17" target="Rd6SQHWgD3A1VPLL_YiG-18">
          <mxGeometry relative="1" as="geometry">
            <Array as="points">
              <mxPoint x="86" y="2097" />
            </Array>
          </mxGeometry>
        </mxCell>
        <mxCell id="Rd6SQHWgD3A1VPLL_YiG-43" value="GET /5/off" style="curved=1;startArrow=none;endArrow=block;exitX=0;exitY=0.87;entryX=0.5;entryY=0;rounded=0;" edge="1" parent="1" source="Rd6SQHWgD3A1VPLL_YiG-17" target="Rd6SQHWgD3A1VPLL_YiG-19">
          <mxGeometry relative="1" as="geometry">
            <Array as="points">
              <mxPoint x="271" y="2097" />
            </Array>
          </mxGeometry>
        </mxCell>
        <mxCell id="Rd6SQHWgD3A1VPLL_YiG-44" value="GET /4/on" style="curved=1;startArrow=none;endArrow=block;exitX=0.5;exitY=1;entryX=0.5;entryY=0;rounded=0;" edge="1" parent="1" source="Rd6SQHWgD3A1VPLL_YiG-17" target="Rd6SQHWgD3A1VPLL_YiG-20">
          <mxGeometry relative="1" as="geometry">
            <Array as="points" />
          </mxGeometry>
        </mxCell>
        <mxCell id="Rd6SQHWgD3A1VPLL_YiG-45" value="GET /4/off" style="curved=1;startArrow=none;endArrow=block;exitX=1;exitY=0.87;entryX=0.5;entryY=0;rounded=0;" edge="1" parent="1" source="Rd6SQHWgD3A1VPLL_YiG-17" target="Rd6SQHWgD3A1VPLL_YiG-21">
          <mxGeometry relative="1" as="geometry">
            <Array as="points">
              <mxPoint x="641" y="2097" />
            </Array>
          </mxGeometry>
        </mxCell>
        <mxCell id="Rd6SQHWgD3A1VPLL_YiG-46" value="" style="curved=1;startArrow=none;endArrow=block;exitX=1;exitY=0.66;entryX=0.5;entryY=0;rounded=0;" edge="1" parent="1" source="Rd6SQHWgD3A1VPLL_YiG-17" target="Rd6SQHWgD3A1VPLL_YiG-22">
          <mxGeometry relative="1" as="geometry">
            <Array as="points">
              <mxPoint x="871" y="2097" />
            </Array>
          </mxGeometry>
        </mxCell>
        <mxCell id="Rd6SQHWgD3A1VPLL_YiG-47" value="" style="curved=1;startArrow=none;endArrow=block;exitX=0.5;exitY=1;entryX=0.5;entryY=0;rounded=0;" edge="1" parent="1" source="Rd6SQHWgD3A1VPLL_YiG-22" target="Rd6SQHWgD3A1VPLL_YiG-23">
          <mxGeometry relative="1" as="geometry">
            <Array as="points" />
          </mxGeometry>
        </mxCell>
        <mxCell id="Rd6SQHWgD3A1VPLL_YiG-48" value="" style="curved=1;startArrow=none;endArrow=block;exitX=0.5;exitY=1;entryX=0.05;entryY=0;rounded=0;" edge="1" parent="1" source="Rd6SQHWgD3A1VPLL_YiG-23" target="Rd6SQHWgD3A1VPLL_YiG-15">
          <mxGeometry relative="1" as="geometry">
            <Array as="points">
              <mxPoint x="871" y="2306" />
            </Array>
          </mxGeometry>
        </mxCell>
      </root>
    </mxGraphModel>
  </diagram>
  <diagram id="DBQDbimEp7dlDXiAGoWU" name="Page-20">
    <mxGraphModel dx="880" dy="468" grid="1" gridSize="10" guides="1" tooltips="1" connect="1" arrows="1" fold="1" page="1" pageScale="1" pageWidth="850" pageHeight="1100" math="0" shadow="0">
      <root>
        <mxCell id="0" />
        <mxCell id="1" parent="0" />
        <mxCell id="m06AwnGY2UX4polxsXZN-1" value="Mulai Program" style="whiteSpace=wrap;strokeWidth=2;" vertex="1" parent="1">
          <mxGeometry x="202" y="20" width="163" height="49" as="geometry" />
        </mxCell>
        <mxCell id="m06AwnGY2UX4polxsXZN-2" value="Inisialisasi Serial 115200 baud" style="whiteSpace=wrap;strokeWidth=2;" vertex="1" parent="1">
          <mxGeometry x="166" y="119" width="233" height="67" as="geometry" />
        </mxCell>
        <mxCell id="m06AwnGY2UX4polxsXZN-3" value="Konfigurasi pin LED sebagai output" style="whiteSpace=wrap;strokeWidth=2;" vertex="1" parent="1">
          <mxGeometry x="155" y="236" width="256" height="67" as="geometry" />
        </mxCell>
        <mxCell id="m06AwnGY2UX4polxsXZN-4" value="Menghubungkan ke WiFi" style="whiteSpace=wrap;strokeWidth=2;" vertex="1" parent="1">
          <mxGeometry x="167" y="352" width="232" height="49" as="geometry" />
        </mxCell>
        <mxCell id="m06AwnGY2UX4polxsXZN-5" value="WiFi Terhubung" style="rhombus;strokeWidth=2;whiteSpace=wrap;" vertex="1" parent="1">
          <mxGeometry x="315" y="451" width="160" height="160" as="geometry" />
        </mxCell>
        <mxCell id="m06AwnGY2UX4polxsXZN-6" value="Mencoba Kembali Setiap 1 Detik" style="whiteSpace=wrap;strokeWidth=2;" vertex="1" parent="1">
          <mxGeometry x="20" y="684" width="248" height="67" as="geometry" />
        </mxCell>
        <mxCell id="m06AwnGY2UX4polxsXZN-7" value="Tampilkan Alamat IP" style="whiteSpace=wrap;strokeWidth=2;" vertex="1" parent="1">
          <mxGeometry x="318" y="693" width="206" height="49" as="geometry" />
        </mxCell>
        <mxCell id="m06AwnGY2UX4polxsXZN-8" value="Inisialisasi Web Server" style="whiteSpace=wrap;strokeWidth=2;" vertex="1" parent="1">
          <mxGeometry x="312" y="800" width="219" height="49" as="geometry" />
        </mxCell>
        <mxCell id="m06AwnGY2UX4polxsXZN-9" value="Set Halaman Root dan Handle PWM" style="whiteSpace=wrap;strokeWidth=2;" vertex="1" parent="1">
          <mxGeometry x="313" y="899" width="218" height="67" as="geometry" />
        </mxCell>
        <mxCell id="m06AwnGY2UX4polxsXZN-10" value="Mulai Web Server" style="whiteSpace=wrap;strokeWidth=2;" vertex="1" parent="1">
          <mxGeometry x="329" y="1016" width="185" height="49" as="geometry" />
        </mxCell>
        <mxCell id="m06AwnGY2UX4polxsXZN-11" value="Loop Utama" style="whiteSpace=wrap;strokeWidth=2;" vertex="1" parent="1">
          <mxGeometry x="348" y="1115" width="146" height="49" as="geometry" />
        </mxCell>
        <mxCell id="m06AwnGY2UX4polxsXZN-12" value="Periksa Permintaan Klien" style="whiteSpace=wrap;strokeWidth=2;" vertex="1" parent="1">
          <mxGeometry x="380" y="1214" width="238" height="49" as="geometry" />
        </mxCell>
        <mxCell id="m06AwnGY2UX4polxsXZN-13" value="Permintaan Klien Diterima" style="rhombus;strokeWidth=2;whiteSpace=wrap;" vertex="1" parent="1">
          <mxGeometry x="379" y="1313" width="239" height="239" as="geometry" />
        </mxCell>
        <mxCell id="m06AwnGY2UX4polxsXZN-14" value="Bangun Halaman HTML" style="whiteSpace=wrap;strokeWidth=2;" vertex="1" parent="1">
          <mxGeometry x="523" y="1724" width="224" height="49" as="geometry" />
        </mxCell>
        <mxCell id="m06AwnGY2UX4polxsXZN-15" value="Baca Nilai PWM" style="whiteSpace=wrap;strokeWidth=2;" vertex="1" parent="1">
          <mxGeometry x="277" y="1625" width="170" height="49" as="geometry" />
        </mxCell>
        <mxCell id="m06AwnGY2UX4polxsXZN-16" value="Atur Nilai PWM ke LED" style="whiteSpace=wrap;strokeWidth=2;" vertex="1" parent="1">
          <mxGeometry x="252" y="1724" width="221" height="49" as="geometry" />
        </mxCell>
        <mxCell id="m06AwnGY2UX4polxsXZN-17" value="Kirim Respons HTML" style="whiteSpace=wrap;strokeWidth=2;" vertex="1" parent="1">
          <mxGeometry x="320" y="1823" width="204" height="49" as="geometry" />
        </mxCell>
        <mxCell id="m06AwnGY2UX4polxsXZN-18" value="" style="curved=1;startArrow=none;endArrow=block;exitX=0.5;exitY=1;entryX=0.5;entryY=0;rounded=0;" edge="1" parent="1" source="m06AwnGY2UX4polxsXZN-1" target="m06AwnGY2UX4polxsXZN-2">
          <mxGeometry relative="1" as="geometry">
            <Array as="points" />
          </mxGeometry>
        </mxCell>
        <mxCell id="m06AwnGY2UX4polxsXZN-19" value="" style="curved=1;startArrow=none;endArrow=block;exitX=0.5;exitY=0.99;entryX=0.5;entryY=-0.01;rounded=0;" edge="1" parent="1" source="m06AwnGY2UX4polxsXZN-2" target="m06AwnGY2UX4polxsXZN-3">
          <mxGeometry relative="1" as="geometry">
            <Array as="points" />
          </mxGeometry>
        </mxCell>
        <mxCell id="m06AwnGY2UX4polxsXZN-20" value="" style="curved=1;startArrow=none;endArrow=block;exitX=0.5;exitY=0.99;entryX=0.5;entryY=0;rounded=0;" edge="1" parent="1" source="m06AwnGY2UX4polxsXZN-3" target="m06AwnGY2UX4polxsXZN-4">
          <mxGeometry relative="1" as="geometry">
            <Array as="points" />
          </mxGeometry>
        </mxCell>
        <mxCell id="m06AwnGY2UX4polxsXZN-21" value="" style="curved=1;startArrow=none;endArrow=block;exitX=0.74;exitY=1;entryX=0.5;entryY=0;rounded=0;" edge="1" parent="1" source="m06AwnGY2UX4polxsXZN-4" target="m06AwnGY2UX4polxsXZN-5">
          <mxGeometry relative="1" as="geometry">
            <Array as="points">
              <mxPoint x="395" y="426" />
            </Array>
          </mxGeometry>
        </mxCell>
        <mxCell id="m06AwnGY2UX4polxsXZN-22" value="Tidak" style="curved=1;startArrow=none;endArrow=block;exitX=0;exitY=0.92;entryX=0.72;entryY=0;rounded=0;" edge="1" parent="1" source="m06AwnGY2UX4polxsXZN-5" target="m06AwnGY2UX4polxsXZN-6">
          <mxGeometry relative="1" as="geometry">
            <Array as="points">
              <mxPoint x="256" y="647" />
            </Array>
          </mxGeometry>
        </mxCell>
        <mxCell id="m06AwnGY2UX4polxsXZN-23" value="" style="curved=1;startArrow=none;endArrow=block;exitX=0.46;exitY=0;entryX=0.16;entryY=1;rounded=0;" edge="1" parent="1" source="m06AwnGY2UX4polxsXZN-6" target="m06AwnGY2UX4polxsXZN-4">
          <mxGeometry relative="1" as="geometry">
            <Array as="points">
              <mxPoint x="123" y="647" />
              <mxPoint x="123" y="426" />
            </Array>
          </mxGeometry>
        </mxCell>
        <mxCell id="m06AwnGY2UX4polxsXZN-24" value="Ya" style="curved=1;startArrow=none;endArrow=block;exitX=0.61;exitY=1;entryX=0.5;entryY=-0.01;rounded=0;" edge="1" parent="1" source="m06AwnGY2UX4polxsXZN-5" target="m06AwnGY2UX4polxsXZN-7">
          <mxGeometry relative="1" as="geometry">
            <Array as="points">
              <mxPoint x="422" y="647" />
            </Array>
          </mxGeometry>
        </mxCell>
        <mxCell id="m06AwnGY2UX4polxsXZN-25" value="" style="curved=1;startArrow=none;endArrow=block;exitX=0.5;exitY=0.99;entryX=0.5;entryY=0.01;rounded=0;" edge="1" parent="1" source="m06AwnGY2UX4polxsXZN-7" target="m06AwnGY2UX4polxsXZN-8">
          <mxGeometry relative="1" as="geometry">
            <Array as="points" />
          </mxGeometry>
        </mxCell>
        <mxCell id="m06AwnGY2UX4polxsXZN-26" value="" style="curved=1;startArrow=none;endArrow=block;exitX=0.5;exitY=1.01;entryX=0.5;entryY=0.01;rounded=0;" edge="1" parent="1" source="m06AwnGY2UX4polxsXZN-8" target="m06AwnGY2UX4polxsXZN-9">
          <mxGeometry relative="1" as="geometry">
            <Array as="points" />
          </mxGeometry>
        </mxCell>
        <mxCell id="m06AwnGY2UX4polxsXZN-27" value="" style="curved=1;startArrow=none;endArrow=block;exitX=0.5;exitY=1;entryX=0.5;entryY=0;rounded=0;" edge="1" parent="1" source="m06AwnGY2UX4polxsXZN-9" target="m06AwnGY2UX4polxsXZN-10">
          <mxGeometry relative="1" as="geometry">
            <Array as="points" />
          </mxGeometry>
        </mxCell>
        <mxCell id="m06AwnGY2UX4polxsXZN-28" value="" style="curved=1;startArrow=none;endArrow=block;exitX=0.5;exitY=1;entryX=0.5;entryY=0;rounded=0;" edge="1" parent="1" source="m06AwnGY2UX4polxsXZN-10" target="m06AwnGY2UX4polxsXZN-11">
          <mxGeometry relative="1" as="geometry">
            <Array as="points" />
          </mxGeometry>
        </mxCell>
        <mxCell id="m06AwnGY2UX4polxsXZN-29" value="" style="curved=1;startArrow=none;endArrow=block;exitX=0.77;exitY=1;entryX=0.5;entryY=0;rounded=0;" edge="1" parent="1" source="m06AwnGY2UX4polxsXZN-11" target="m06AwnGY2UX4polxsXZN-12">
          <mxGeometry relative="1" as="geometry">
            <Array as="points">
              <mxPoint x="499" y="1189" />
            </Array>
          </mxGeometry>
        </mxCell>
        <mxCell id="m06AwnGY2UX4polxsXZN-30" value="" style="curved=1;startArrow=none;endArrow=block;exitX=0.5;exitY=1;entryX=0.5;entryY=0;rounded=0;" edge="1" parent="1" source="m06AwnGY2UX4polxsXZN-12" target="m06AwnGY2UX4polxsXZN-13">
          <mxGeometry relative="1" as="geometry">
            <Array as="points" />
          </mxGeometry>
        </mxCell>
        <mxCell id="m06AwnGY2UX4polxsXZN-31" value="Halaman Root" style="curved=1;startArrow=none;endArrow=block;exitX=0.94;exitY=1;entryX=0.5;entryY=-0.01;rounded=0;" edge="1" parent="1" source="m06AwnGY2UX4polxsXZN-13" target="m06AwnGY2UX4polxsXZN-14">
          <mxGeometry relative="1" as="geometry">
            <Array as="points">
              <mxPoint x="635" y="1588" />
            </Array>
          </mxGeometry>
        </mxCell>
        <mxCell id="m06AwnGY2UX4polxsXZN-32" value="Set PWM" style="curved=1;startArrow=none;endArrow=block;exitX=0.06;exitY=1;entryX=0.5;entryY=-0.01;rounded=0;" edge="1" parent="1" source="m06AwnGY2UX4polxsXZN-13" target="m06AwnGY2UX4polxsXZN-15">
          <mxGeometry relative="1" as="geometry">
            <Array as="points">
              <mxPoint x="363" y="1588" />
            </Array>
          </mxGeometry>
        </mxCell>
        <mxCell id="m06AwnGY2UX4polxsXZN-33" value="" style="curved=1;startArrow=none;endArrow=block;exitX=0.5;exitY=0.99;entryX=0.5;entryY=-0.01;rounded=0;" edge="1" parent="1" source="m06AwnGY2UX4polxsXZN-15" target="m06AwnGY2UX4polxsXZN-16">
          <mxGeometry relative="1" as="geometry">
            <Array as="points" />
          </mxGeometry>
        </mxCell>
        <mxCell id="m06AwnGY2UX4polxsXZN-34" value="" style="curved=1;startArrow=none;endArrow=block;exitX=0.5;exitY=0.99;entryX=1;entryY=0.01;rounded=0;" edge="1" parent="1" source="m06AwnGY2UX4polxsXZN-14" target="m06AwnGY2UX4polxsXZN-17">
          <mxGeometry relative="1" as="geometry">
            <Array as="points">
              <mxPoint x="635" y="1798" />
            </Array>
          </mxGeometry>
        </mxCell>
        <mxCell id="m06AwnGY2UX4polxsXZN-35" value="" style="curved=1;startArrow=none;endArrow=block;exitX=0;exitY=0;entryX=0;entryY=0.85;rounded=0;" edge="1" parent="1" source="m06AwnGY2UX4polxsXZN-17" target="m06AwnGY2UX4polxsXZN-11">
          <mxGeometry relative="1" as="geometry">
            <Array as="points">
              <mxPoint x="213" y="1798" />
              <mxPoint x="213" y="1189" />
            </Array>
          </mxGeometry>
        </mxCell>
        <mxCell id="m06AwnGY2UX4polxsXZN-36" value="" style="curved=1;startArrow=none;endArrow=block;exitX=0.5;exitY=0.99;entryX=0.35;entryY=-0.01;rounded=0;" edge="1" parent="1" source="m06AwnGY2UX4polxsXZN-16" target="m06AwnGY2UX4polxsXZN-17">
          <mxGeometry relative="1" as="geometry">
            <Array as="points">
              <mxPoint x="363" y="1798" />
            </Array>
          </mxGeometry>
        </mxCell>
      </root>
    </mxGraphModel>
  </diagram>
  <diagram id="9KATMSfMQ1cJOxVh9woD" name="Page-21">
    <mxGraphModel dx="880" dy="468" grid="1" gridSize="10" guides="1" tooltips="1" connect="1" arrows="1" fold="1" page="1" pageScale="1" pageWidth="850" pageHeight="1100" math="0" shadow="0">
      <root>
        <mxCell id="0" />
        <mxCell id="1" parent="0" />
        <mxCell id="y-JrHCVmdn8OriW5Z4O7-1" value="Mulai Program" style="whiteSpace=wrap;strokeWidth=2;" vertex="1" parent="1">
          <mxGeometry x="314" y="20" width="163" height="49" as="geometry" />
        </mxCell>
        <mxCell id="y-JrHCVmdn8OriW5Z4O7-2" value="Inisialisasi Serial Monitor 115200 baud" style="whiteSpace=wrap;strokeWidth=2;" vertex="1" parent="1">
          <mxGeometry x="277" y="119" width="238" height="67" as="geometry" />
        </mxCell>
        <mxCell id="y-JrHCVmdn8OriW5Z4O7-3" value="Inisialisasi Sensor DHT11" style="whiteSpace=wrap;strokeWidth=2;" vertex="1" parent="1">
          <mxGeometry x="278" y="236" width="235" height="49" as="geometry" />
        </mxCell>
        <mxCell id="y-JrHCVmdn8OriW5Z4O7-4" value="Menghubungkan ke WiFi" style="whiteSpace=wrap;strokeWidth=2;" vertex="1" parent="1">
          <mxGeometry x="279" y="335" width="232" height="49" as="geometry" />
        </mxCell>
        <mxCell id="y-JrHCVmdn8OriW5Z4O7-5" value="WiFi Terhubung?" style="rhombus;strokeWidth=2;whiteSpace=wrap;" vertex="1" parent="1">
          <mxGeometry x="412" y="434" width="166" height="166" as="geometry" />
        </mxCell>
        <mxCell id="y-JrHCVmdn8OriW5Z4O7-6" value="Mencoba Kembali Setiap 0.5 Detik" style="whiteSpace=wrap;strokeWidth=2;" vertex="1" parent="1">
          <mxGeometry x="151" y="672" width="235" height="67" as="geometry" />
        </mxCell>
        <mxCell id="y-JrHCVmdn8OriW5Z4O7-7" value="WiFi Terhubung" style="whiteSpace=wrap;strokeWidth=2;" vertex="1" parent="1">
          <mxGeometry x="436" y="681" width="171" height="49" as="geometry" />
        </mxCell>
        <mxCell id="y-JrHCVmdn8OriW5Z4O7-8" value="Loop Utama" style="whiteSpace=wrap;strokeWidth=2;" vertex="1" parent="1">
          <mxGeometry x="449" y="789" width="146" height="49" as="geometry" />
        </mxCell>
        <mxCell id="y-JrHCVmdn8OriW5Z4O7-9" value="Membaca Suhu dan Kelembaban dari DHT" style="whiteSpace=wrap;strokeWidth=2;" vertex="1" parent="1">
          <mxGeometry x="492" y="888" width="216" height="67" as="geometry" />
        </mxCell>
        <mxCell id="y-JrHCVmdn8OriW5Z4O7-10" value="Pembacaan Berhasil?" style="rhombus;strokeWidth=2;whiteSpace=wrap;" vertex="1" parent="1">
          <mxGeometry x="501" y="1004" width="198" height="198" as="geometry" />
        </mxCell>
        <mxCell id="y-JrHCVmdn8OriW5Z4O7-11" value="Cetak Kesalahan di Serial Monitor" style="whiteSpace=wrap;strokeWidth=2;" vertex="1" parent="1">
          <mxGeometry x="55" y="2524" width="241" height="67" as="geometry" />
        </mxCell>
        <mxCell id="y-JrHCVmdn8OriW5Z4O7-12" value="Membaca Nilai Potensiometer" style="whiteSpace=wrap;strokeWidth=2;" vertex="1" parent="1">
          <mxGeometry x="653" y="1275" width="166" height="67" as="geometry" />
        </mxCell>
        <mxCell id="y-JrHCVmdn8OriW5Z4O7-13" value="Menghitung Persentase Nilai Potensiometer" style="whiteSpace=wrap;strokeWidth=2;" vertex="1" parent="1">
          <mxGeometry x="623" y="1392" width="225" height="67" as="geometry" />
        </mxCell>
        <mxCell id="y-JrHCVmdn8OriW5Z4O7-14" value="Menampilkan Data di Serial Monitor" style="whiteSpace=wrap;strokeWidth=2;" vertex="1" parent="1">
          <mxGeometry x="607" y="1508" width="256" height="67" as="geometry" />
        </mxCell>
        <mxCell id="y-JrHCVmdn8OriW5Z4O7-15" value="WiFi Masih Terhubung?" style="rhombus;strokeWidth=2;whiteSpace=wrap;" vertex="1" parent="1">
          <mxGeometry x="631" y="1625" width="210" height="210" as="geometry" />
        </mxCell>
        <mxCell id="y-JrHCVmdn8OriW5Z4O7-16" value="Cetak Gagal Mengirim Data" style="whiteSpace=wrap;strokeWidth=2;" vertex="1" parent="1">
          <mxGeometry x="896" y="2533" width="255" height="49" as="geometry" />
        </mxCell>
        <mxCell id="y-JrHCVmdn8OriW5Z4O7-17" value="Membuka Koneksi ke ThingSpeak" style="whiteSpace=wrap;strokeWidth=2;" vertex="1" parent="1">
          <mxGeometry x="481" y="1908" width="209" height="67" as="geometry" />
        </mxCell>
        <mxCell id="y-JrHCVmdn8OriW5Z4O7-18" value="Koneksi Berhasil?" style="rhombus;strokeWidth=2;whiteSpace=wrap;" vertex="1" parent="1">
          <mxGeometry x="500" y="2025" width="171" height="171" as="geometry" />
        </mxCell>
        <mxCell id="y-JrHCVmdn8OriW5Z4O7-19" value="Cetak Gagal Terhubung ke ThingSpeak" style="whiteSpace=wrap;strokeWidth=2;" vertex="1" parent="1">
          <mxGeometry x="599" y="2524" width="247" height="67" as="geometry" />
        </mxCell>
        <mxCell id="y-JrHCVmdn8OriW5Z4O7-20" value="Mengirim Data ke ThingSpeak" style="whiteSpace=wrap;strokeWidth=2;" vertex="1" parent="1">
          <mxGeometry x="355" y="2268" width="186" height="67" as="geometry" />
        </mxCell>
        <mxCell id="y-JrHCVmdn8OriW5Z4O7-21" value="Cetak Data Terkirim ke ThingSpeak" style="whiteSpace=wrap;strokeWidth=2;" vertex="1" parent="1">
          <mxGeometry x="335" y="2408" width="224" height="67" as="geometry" />
        </mxCell>
        <mxCell id="y-JrHCVmdn8OriW5Z4O7-22" value="Menutup Koneksi ke ThingSpeak" style="whiteSpace=wrap;strokeWidth=2;" vertex="1" parent="1">
          <mxGeometry x="346" y="2524" width="203" height="67" as="geometry" />
        </mxCell>
        <mxCell id="y-JrHCVmdn8OriW5Z4O7-23" value="Menunggu 20 Detik" style="whiteSpace=wrap;strokeWidth=2;" vertex="1" parent="1">
          <mxGeometry x="349" y="2641" width="197" height="49" as="geometry" />
        </mxCell>
        <mxCell id="y-JrHCVmdn8OriW5Z4O7-24" value="" style="curved=1;startArrow=none;endArrow=block;exitX=0.5;exitY=1;entryX=0.5;entryY=0;rounded=0;" edge="1" parent="1" source="y-JrHCVmdn8OriW5Z4O7-1" target="y-JrHCVmdn8OriW5Z4O7-2">
          <mxGeometry relative="1" as="geometry">
            <Array as="points" />
          </mxGeometry>
        </mxCell>
        <mxCell id="y-JrHCVmdn8OriW5Z4O7-25" value="" style="curved=1;startArrow=none;endArrow=block;exitX=0.5;exitY=0.99;entryX=0.5;entryY=-0.01;rounded=0;" edge="1" parent="1" source="y-JrHCVmdn8OriW5Z4O7-2" target="y-JrHCVmdn8OriW5Z4O7-3">
          <mxGeometry relative="1" as="geometry">
            <Array as="points" />
          </mxGeometry>
        </mxCell>
        <mxCell id="y-JrHCVmdn8OriW5Z4O7-26" value="" style="curved=1;startArrow=none;endArrow=block;exitX=0.5;exitY=0.99;entryX=0.5;entryY=-0.01;rounded=0;" edge="1" parent="1" source="y-JrHCVmdn8OriW5Z4O7-3" target="y-JrHCVmdn8OriW5Z4O7-4">
          <mxGeometry relative="1" as="geometry">
            <Array as="points" />
          </mxGeometry>
        </mxCell>
        <mxCell id="y-JrHCVmdn8OriW5Z4O7-27" value="" style="curved=1;startArrow=none;endArrow=block;exitX=0.71;exitY=0.99;entryX=0.5;entryY=0;rounded=0;" edge="1" parent="1" source="y-JrHCVmdn8OriW5Z4O7-4" target="y-JrHCVmdn8OriW5Z4O7-5">
          <mxGeometry relative="1" as="geometry">
            <Array as="points">
              <mxPoint x="495" y="409" />
            </Array>
          </mxGeometry>
        </mxCell>
        <mxCell id="y-JrHCVmdn8OriW5Z4O7-28" value="Tidak" style="curved=1;startArrow=none;endArrow=block;exitX=0;exitY=0.97;entryX=0.7;entryY=0;rounded=0;" edge="1" parent="1" source="y-JrHCVmdn8OriW5Z4O7-5" target="y-JrHCVmdn8OriW5Z4O7-6">
          <mxGeometry relative="1" as="geometry">
            <Array as="points">
              <mxPoint x="369" y="636" />
            </Array>
          </mxGeometry>
        </mxCell>
        <mxCell id="y-JrHCVmdn8OriW5Z4O7-29" value="" style="curved=1;startArrow=none;endArrow=block;exitX=0.46;exitY=0;entryX=0.19;entryY=0.99;rounded=0;" edge="1" parent="1" source="y-JrHCVmdn8OriW5Z4O7-6" target="y-JrHCVmdn8OriW5Z4O7-4">
          <mxGeometry relative="1" as="geometry">
            <Array as="points">
              <mxPoint x="248" y="636" />
              <mxPoint x="248" y="409" />
            </Array>
          </mxGeometry>
        </mxCell>
        <mxCell id="y-JrHCVmdn8OriW5Z4O7-30" value="Ya" style="curved=1;startArrow=none;endArrow=block;exitX=0.61;exitY=1;entryX=0.5;entryY=0;rounded=0;" edge="1" parent="1" source="y-JrHCVmdn8OriW5Z4O7-5" target="y-JrHCVmdn8OriW5Z4O7-7">
          <mxGeometry relative="1" as="geometry">
            <Array as="points">
              <mxPoint x="522" y="636" />
            </Array>
          </mxGeometry>
        </mxCell>
        <mxCell id="y-JrHCVmdn8OriW5Z4O7-31" value="" style="curved=1;startArrow=none;endArrow=block;exitX=0.5;exitY=1;entryX=0.5;entryY=0;rounded=0;" edge="1" parent="1" source="y-JrHCVmdn8OriW5Z4O7-7" target="y-JrHCVmdn8OriW5Z4O7-8">
          <mxGeometry relative="1" as="geometry">
            <Array as="points" />
          </mxGeometry>
        </mxCell>
        <mxCell id="y-JrHCVmdn8OriW5Z4O7-32" value="" style="curved=1;startArrow=none;endArrow=block;exitX=0.76;exitY=1;entryX=0.5;entryY=0;rounded=0;" edge="1" parent="1" source="y-JrHCVmdn8OriW5Z4O7-8" target="y-JrHCVmdn8OriW5Z4O7-9">
          <mxGeometry relative="1" as="geometry">
            <Array as="points">
              <mxPoint x="600" y="863" />
            </Array>
          </mxGeometry>
        </mxCell>
        <mxCell id="y-JrHCVmdn8OriW5Z4O7-33" value="" style="curved=1;startArrow=none;endArrow=block;exitX=0.5;exitY=0.99;entryX=0.5;entryY=0;rounded=0;" edge="1" parent="1" source="y-JrHCVmdn8OriW5Z4O7-9" target="y-JrHCVmdn8OriW5Z4O7-10">
          <mxGeometry relative="1" as="geometry">
            <Array as="points" />
          </mxGeometry>
        </mxCell>
        <mxCell id="y-JrHCVmdn8OriW5Z4O7-34" value="Tidak" style="curved=1;startArrow=none;endArrow=block;exitX=0;exitY=0.66;entryX=0.5;entryY=0;rounded=0;" edge="1" parent="1" source="y-JrHCVmdn8OriW5Z4O7-10" target="y-JrHCVmdn8OriW5Z4O7-11">
          <mxGeometry relative="1" as="geometry">
            <Array as="points">
              <mxPoint x="176" y="1239" />
            </Array>
          </mxGeometry>
        </mxCell>
        <mxCell id="y-JrHCVmdn8OriW5Z4O7-35" value="Ya" style="curved=1;startArrow=none;endArrow=block;exitX=1;exitY=1;entryX=0.5;entryY=0;rounded=0;" edge="1" parent="1" source="y-JrHCVmdn8OriW5Z4O7-10" target="y-JrHCVmdn8OriW5Z4O7-12">
          <mxGeometry relative="1" as="geometry">
            <Array as="points">
              <mxPoint x="736" y="1239" />
            </Array>
          </mxGeometry>
        </mxCell>
        <mxCell id="y-JrHCVmdn8OriW5Z4O7-36" value="" style="curved=1;startArrow=none;endArrow=block;exitX=0.5;exitY=1;entryX=0.5;entryY=0;rounded=0;" edge="1" parent="1" source="y-JrHCVmdn8OriW5Z4O7-12" target="y-JrHCVmdn8OriW5Z4O7-13">
          <mxGeometry relative="1" as="geometry">
            <Array as="points" />
          </mxGeometry>
        </mxCell>
        <mxCell id="y-JrHCVmdn8OriW5Z4O7-37" value="" style="curved=1;startArrow=none;endArrow=block;exitX=0.5;exitY=0.99;entryX=0.5;entryY=0.01;rounded=0;" edge="1" parent="1" source="y-JrHCVmdn8OriW5Z4O7-13" target="y-JrHCVmdn8OriW5Z4O7-14">
          <mxGeometry relative="1" as="geometry">
            <Array as="points" />
          </mxGeometry>
        </mxCell>
        <mxCell id="y-JrHCVmdn8OriW5Z4O7-38" value="" style="curved=1;startArrow=none;endArrow=block;exitX=0.5;exitY=1;entryX=0.5;entryY=0;rounded=0;" edge="1" parent="1" source="y-JrHCVmdn8OriW5Z4O7-14" target="y-JrHCVmdn8OriW5Z4O7-15">
          <mxGeometry relative="1" as="geometry">
            <Array as="points" />
          </mxGeometry>
        </mxCell>
        <mxCell id="y-JrHCVmdn8OriW5Z4O7-39" value="Tidak" style="curved=1;startArrow=none;endArrow=block;exitX=1;exitY=0.75;entryX=0.5;entryY=0;rounded=0;" edge="1" parent="1" source="y-JrHCVmdn8OriW5Z4O7-15" target="y-JrHCVmdn8OriW5Z4O7-16">
          <mxGeometry relative="1" as="geometry">
            <Array as="points">
              <mxPoint x="1024" y="1871" />
            </Array>
          </mxGeometry>
        </mxCell>
        <mxCell id="y-JrHCVmdn8OriW5Z4O7-40" value="Ya" style="curved=1;startArrow=none;endArrow=block;exitX=0;exitY=0.97;entryX=0.5;entryY=0;rounded=0;" edge="1" parent="1" source="y-JrHCVmdn8OriW5Z4O7-15" target="y-JrHCVmdn8OriW5Z4O7-17">
          <mxGeometry relative="1" as="geometry">
            <Array as="points">
              <mxPoint x="585" y="1871" />
            </Array>
          </mxGeometry>
        </mxCell>
        <mxCell id="y-JrHCVmdn8OriW5Z4O7-41" value="" style="curved=1;startArrow=none;endArrow=block;exitX=0.5;exitY=0.99;entryX=0.5;entryY=0;rounded=0;" edge="1" parent="1" source="y-JrHCVmdn8OriW5Z4O7-17" target="y-JrHCVmdn8OriW5Z4O7-18">
          <mxGeometry relative="1" as="geometry">
            <Array as="points" />
          </mxGeometry>
        </mxCell>
        <mxCell id="y-JrHCVmdn8OriW5Z4O7-42" value="Tidak" style="curved=1;startArrow=none;endArrow=block;exitX=1;exitY=0.94;entryX=0.5;entryY=0;rounded=0;" edge="1" parent="1" source="y-JrHCVmdn8OriW5Z4O7-18" target="y-JrHCVmdn8OriW5Z4O7-19">
          <mxGeometry relative="1" as="geometry">
            <Array as="points">
              <mxPoint x="723" y="2232" />
            </Array>
          </mxGeometry>
        </mxCell>
        <mxCell id="y-JrHCVmdn8OriW5Z4O7-43" value="Ya" style="curved=1;startArrow=none;endArrow=block;exitX=0;exitY=0.94;entryX=0.5;entryY=0;rounded=0;" edge="1" parent="1" source="y-JrHCVmdn8OriW5Z4O7-18" target="y-JrHCVmdn8OriW5Z4O7-20">
          <mxGeometry relative="1" as="geometry">
            <Array as="points">
              <mxPoint x="448" y="2232" />
            </Array>
          </mxGeometry>
        </mxCell>
        <mxCell id="y-JrHCVmdn8OriW5Z4O7-44" value="" style="curved=1;startArrow=none;endArrow=block;exitX=0.5;exitY=1;entryX=0.5;entryY=0;rounded=0;" edge="1" parent="1" source="y-JrHCVmdn8OriW5Z4O7-20" target="y-JrHCVmdn8OriW5Z4O7-21">
          <mxGeometry relative="1" as="geometry">
            <Array as="points" />
          </mxGeometry>
        </mxCell>
        <mxCell id="y-JrHCVmdn8OriW5Z4O7-45" value="" style="curved=1;startArrow=none;endArrow=block;exitX=0.5;exitY=0.99;entryX=0.5;entryY=0;rounded=0;" edge="1" parent="1" source="y-JrHCVmdn8OriW5Z4O7-21" target="y-JrHCVmdn8OriW5Z4O7-22">
          <mxGeometry relative="1" as="geometry">
            <Array as="points" />
          </mxGeometry>
        </mxCell>
        <mxCell id="y-JrHCVmdn8OriW5Z4O7-46" value="" style="curved=1;startArrow=none;endArrow=block;exitX=0.5;exitY=1;entryX=1;entryY=0.33;rounded=0;" edge="1" parent="1" source="y-JrHCVmdn8OriW5Z4O7-16" target="y-JrHCVmdn8OriW5Z4O7-23">
          <mxGeometry relative="1" as="geometry">
            <Array as="points">
              <mxPoint x="1024" y="2616" />
            </Array>
          </mxGeometry>
        </mxCell>
        <mxCell id="y-JrHCVmdn8OriW5Z4O7-47" value="" style="curved=1;startArrow=none;endArrow=block;exitX=0.5;exitY=1;entryX=1;entryY=0.14;rounded=0;" edge="1" parent="1" source="y-JrHCVmdn8OriW5Z4O7-19" target="y-JrHCVmdn8OriW5Z4O7-23">
          <mxGeometry relative="1" as="geometry">
            <Array as="points">
              <mxPoint x="723" y="2616" />
            </Array>
          </mxGeometry>
        </mxCell>
        <mxCell id="y-JrHCVmdn8OriW5Z4O7-48" value="" style="curved=1;startArrow=none;endArrow=block;exitX=0.5;exitY=1;entryX=0.5;entryY=0;rounded=0;" edge="1" parent="1" source="y-JrHCVmdn8OriW5Z4O7-22" target="y-JrHCVmdn8OriW5Z4O7-23">
          <mxGeometry relative="1" as="geometry">
            <Array as="points" />
          </mxGeometry>
        </mxCell>
        <mxCell id="y-JrHCVmdn8OriW5Z4O7-49" value="" style="curved=1;startArrow=none;endArrow=block;exitX=0.5;exitY=1;entryX=0;entryY=0.13;rounded=0;" edge="1" parent="1" source="y-JrHCVmdn8OriW5Z4O7-11" target="y-JrHCVmdn8OriW5Z4O7-23">
          <mxGeometry relative="1" as="geometry">
            <Array as="points">
              <mxPoint x="176" y="2616" />
            </Array>
          </mxGeometry>
        </mxCell>
        <mxCell id="y-JrHCVmdn8OriW5Z4O7-50" value="" style="curved=1;startArrow=none;endArrow=block;exitX=0;exitY=0.27;entryX=0;entryY=0.64;rounded=0;" edge="1" parent="1" source="y-JrHCVmdn8OriW5Z4O7-23" target="y-JrHCVmdn8OriW5Z4O7-8">
          <mxGeometry relative="1" as="geometry">
            <Array as="points">
              <mxPoint x="20" y="2616" />
              <mxPoint x="20" y="863" />
            </Array>
          </mxGeometry>
        </mxCell>
      </root>
    </mxGraphModel>
  </diagram>
</mxfile>
